<?xml version="1.0" encoding="utf-8"?>
<!-- Generator: Adobe Illustrator 15.0.0, SVG Export Plug-In . SVG Version: 6.00 Build 0)  -->
<!DOCTYPE svg PUBLIC "-//W3C//DTD SVG 1.1//EN" "http://www.w3.org/Graphics/SVG/1.1/DTD/svg11.dtd">
<svg version="1.1" id="Layer_1" xmlns="http://www.w3.org/2000/svg" xmlns:xlink="http://www.w3.org/1999/xlink" x="0px" y="0px"
	 width="150px" height="150px" viewBox="0 0 150 150" enable-background="new 0 0 150 150" xml:space="preserve">
<path fill="#626365" d="M63.312,41.874c-2.312,0-4.701,0.256-7.166,0.776c-12.151,2.559-20.082,10.185-23.862,22.013
	c-0.485,1.521-1.181,2.263-2.738,2.74c-8.454,2.599-14.286,10.282-14.536,18.893c-0.352,12.06,9.047,21.675,21.469,21.765
	c5.104,0.038,10.207,0.049,15.311,0.049c7.863,0,15.729-0.027,23.59-0.027c0.234,0,0.469,0,0.703,0c6.788,0,13.578-0.02,20.366-0.02
	c5.612,0,11.225,0.015,16.833,0.063c0.076,0,0.146,0.001,0.222,0.001c4.048,0,7.709-0.95,11.138-3.085
	c7.194-4.485,10.898-10.939,10.296-19.404c-0.604-8.458-5.138-14.426-12.937-17.722c-1.635-0.69-2.443-1.599-3.041-3.197
	c-3.157-8.457-10.97-13.486-19.243-13.486c-3.25,0-6.572,0.775-9.706,2.425c-0.585,0.309-1.063,0.466-1.493,0.466
	c-0.645,0-1.191-0.354-1.845-1.085C80.138,45.748,72.307,41.874,63.312,41.874L63.312,41.874z M90.357,95.889H80.041
	c-0.727,0-1.395-0.394-1.748-1.027l-3.566-6.412c-1.422,2.783-3.17,6.145-3.281,6.361c-0.346,0.66-1.028,1.077-1.774,1.077H59.644
	c-0.738,0-1.416-0.407-1.763-1.057c-0.349-0.65-0.309-1.439,0.099-2.055l9.224-13.82l-8.981-13.281
	c-0.416-0.612-0.458-1.404-0.111-2.058c0.348-0.654,1.028-1.063,1.767-1.063h10.198c0.717,0,1.38,0.385,1.735,1.008
	c0,0,1.942,3.396,3.5,6.111l3.257-6.065c0.349-0.649,1.025-1.055,1.763-1.055h9.906c0.743,0,1.425,0.412,1.771,1.07
	c0.345,0.659,0.297,1.454-0.126,2.065l-8.9,12.888l9.059,14.235c0.393,0.616,0.417,1.397,0.065,2.035
	C91.759,95.491,91.086,95.889,90.357,95.889z"/>
</svg>
