<?xml version="1.0" encoding="utf-8"?>
<!-- Generator: Adobe Illustrator 15.0.0, SVG Export Plug-In . SVG Version: 6.00 Build 0)  -->
<!DOCTYPE svg PUBLIC "-//W3C//DTD SVG 1.1//EN" "http://www.w3.org/Graphics/SVG/1.1/DTD/svg11.dtd">
<svg version="1.1" id="Laag_1" xmlns="http://www.w3.org/2000/svg" xmlns:xlink="http://www.w3.org/1999/xlink" x="0px" y="0px"
	 width="29.729px" height="24.997px" viewBox="0 0 29.729 24.997" enable-background="new 0 0 29.729 24.997" xml:space="preserve">
<rect y="-0.003" fill="#307EC0" width="30.081" height="25"/>
<g>
	<g>
		<g>
			<g>
				<defs>
					<rect id="SVGID_1_" y="-0.003" width="30.081" height="25"/>
				</defs>
				<clipPath id="SVGID_2_">
					<use xlink:href="#SVGID_1_"  overflow="visible"/>
				</clipPath>
				<path clip-path="url(#SVGID_2_)" fill="#FFFFFF" d="M20.959,19.141H9.118V9.602h11.841V19.141z M21.758,6.054h-1.293V5.172
					c0-0.649-0.524-1.176-1.174-1.176h-0.047c-0.647,0-1.177,0.526-1.177,1.176v0.882h-6.062V5.172c0-0.649-0.526-1.176-1.174-1.176
					h-0.047c-0.649,0-1.175,0.526-1.175,1.176v0.882H8.319c-0.649,0-1.175,0.525-1.175,1.175v12.594
					c0,0.646,0.526,1.174,1.175,1.174h13.438c0.65,0,1.178-0.524,1.178-1.174V7.229C22.935,6.58,22.409,6.054,21.758,6.054"/>
			</g>
		</g>
	</g>
	<g>
		<g>
			<g>
				<defs>
					<rect id="SVGID_3_" y="-0.003" width="30.081" height="25"/>
				</defs>
				<clipPath id="SVGID_4_">
					<use xlink:href="#SVGID_3_"  overflow="visible"/>
				</clipPath>
				<path clip-path="url(#SVGID_4_)" fill="#FFFFFF" d="M10.728,13.918h2.044c0.104,0,0.188-0.084,0.188-0.188v-2.043
					c0-0.105-0.084-0.189-0.188-0.189h-2.044c-0.104,0-0.188,0.084-0.188,0.189v2.043C10.54,13.834,10.624,13.918,10.728,13.918"/>
			</g>
		</g>
	</g>
	<g>
		<g>
			<g>
				<defs>
					<rect id="SVGID_5_" y="-0.003" width="30.081" height="25"/>
				</defs>
				<clipPath id="SVGID_6_">
					<use xlink:href="#SVGID_5_"  overflow="visible"/>
				</clipPath>
				<path clip-path="url(#SVGID_6_)" fill="#FFFFFF" d="M14.017,13.918h2.044c0.104,0,0.188-0.084,0.188-0.188v-2.043
					c0-0.105-0.084-0.189-0.188-0.189h-2.044c-0.104,0-0.188,0.084-0.188,0.189v2.043C13.83,13.834,13.914,13.918,14.017,13.918"/>
			</g>
		</g>
	</g>
	<g>
		<g>
			<g>
				<defs>
					<rect id="SVGID_7_" y="-0.003" width="30.081" height="25"/>
				</defs>
				<clipPath id="SVGID_8_">
					<use xlink:href="#SVGID_7_"  overflow="visible"/>
				</clipPath>
				<path clip-path="url(#SVGID_8_)" fill="#FFFFFF" d="M17.306,13.918h2.045c0.104,0,0.188-0.084,0.188-0.188v-2.043
					c0-0.105-0.084-0.189-0.188-0.189h-2.045c-0.104,0-0.188,0.084-0.188,0.189v2.043C17.12,13.834,17.204,13.918,17.306,13.918"/>
			</g>
		</g>
	</g>
	<g>
		<g>
			<g>
				<defs>
					<rect id="SVGID_9_" y="-0.003" width="30.081" height="25"/>
				</defs>
				<clipPath id="SVGID_10_">
					<use xlink:href="#SVGID_9_"  overflow="visible"/>
				</clipPath>
				<path clip-path="url(#SVGID_10_)" fill="#FFFFFF" d="M10.728,17.208h2.044c0.104,0,0.188-0.084,0.188-0.188v-2.045
					c0-0.104-0.084-0.188-0.188-0.188h-2.044c-0.104,0-0.188,0.084-0.188,0.188v2.045C10.54,17.124,10.624,17.208,10.728,17.208"/>
			</g>
		</g>
	</g>
	<g>
		<g>
			<g>
				<defs>
					<rect id="SVGID_11_" y="-0.003" width="30.081" height="25"/>
				</defs>
				<clipPath id="SVGID_12_">
					<use xlink:href="#SVGID_11_"  overflow="visible"/>
				</clipPath>
				<path clip-path="url(#SVGID_12_)" fill="#FFFFFF" d="M14.017,17.208h2.044c0.104,0,0.188-0.084,0.188-0.188v-2.045
					c0-0.104-0.084-0.188-0.188-0.188h-2.044c-0.104,0-0.188,0.084-0.188,0.188v2.045C13.83,17.124,13.914,17.208,14.017,17.208"/>
			</g>
		</g>
	</g>
	<g>
		<g>
			<g>
				<defs>
					<rect id="SVGID_13_" y="-0.003" width="30.081" height="25"/>
				</defs>
				<clipPath id="SVGID_14_">
					<use xlink:href="#SVGID_13_"  overflow="visible"/>
				</clipPath>
				<path clip-path="url(#SVGID_14_)" fill="#FFFFFF" d="M17.306,17.208h2.045c0.104,0,0.188-0.084,0.188-0.188v-2.045
					c0-0.104-0.084-0.188-0.188-0.188h-2.045c-0.104,0-0.188,0.084-0.188,0.188v2.045C17.12,17.124,17.204,17.208,17.306,17.208"/>
			</g>
		</g>
	</g>
</g>
</svg>
