<?xml version="1.0" encoding="utf-8"?>
<!-- Generator: Adobe Illustrator 15.0.0, SVG Export Plug-In . SVG Version: 6.00 Build 0)  -->
<!DOCTYPE svg PUBLIC "-//W3C//DTD SVG 1.1//EN" "http://www.w3.org/Graphics/SVG/1.1/DTD/svg11.dtd">
<svg version="1.1" id="Layer_1" xmlns="http://www.w3.org/2000/svg" xmlns:xlink="http://www.w3.org/1999/xlink" x="0px" y="0px"
	 width="90px" height="66px" viewBox="0 0 90 66" enable-background="new 0 0 90 66" xml:space="preserve">
<path fill="#414142" d="M56.696,32.556l16.982-16.95c0.633-0.638,0.982-1.495,0.982-2.386c0-0.896-0.35-1.752-0.982-2.384
	l-7.604-7.619c-0.633-0.632-1.496-0.988-2.386-0.988l0,0c-0.896,0-1.753,0.363-2.385,0.988l-16.95,16.982L27.404,3.217
	c-0.636-0.632-1.493-0.988-2.389-0.988l0,0c-0.899,0.007-1.755,0.363-2.388,0.988l-7.573,7.619
	c-1.308,1.311-1.308,3.453,0.007,4.758l16.946,16.95L15.021,49.491c-0.642,0.633-0.985,1.489-0.985,2.393
	c0,0.89,0.349,1.746,0.985,2.379l7.611,7.611c0.632,0.627,1.493,0.989,2.382,0.989h0.007c0.896-0.007,1.746-0.369,2.382-1.001
	l16.95-16.977l16.989,16.95c0.658,0.658,1.522,0.987,2.379,0.987c0.863,0,1.727-0.336,2.378-0.987l7.579-7.573
	c0.633-0.633,0.982-1.489,0.982-2.379c0-0.903-0.363-1.76-0.982-2.393L56.696,32.556z"/>
</svg>
