<?xml version="1.0" encoding="utf-8"?>
<!-- Generator: Adobe Illustrator 15.0.0, SVG Export Plug-In . SVG Version: 6.00 Build 0)  -->
<!DOCTYPE svg PUBLIC "-//W3C//DTD SVG 1.1//EN" "http://www.w3.org/Graphics/SVG/1.1/DTD/svg11.dtd">
<svg version="1.1" id="Layer_2" xmlns="http://www.w3.org/2000/svg" xmlns:xlink="http://www.w3.org/1999/xlink" x="0px" y="0px"
	 width="150px" height="150px" viewBox="0 0 150 150" enable-background="new 0 0 150 150" xml:space="preserve">
<g>
	<g>
		<g>
			<path fill="#626365" d="M27.062,129.076c-1.386,0-2.674-0.719-3.403-1.896c-0.729-1.18-0.795-2.652-0.175-3.893L70.368,29.52
				c0.678-1.355,2.063-2.211,3.578-2.211c1.515,0,2.9,0.856,3.578,2.211l46.885,93.767c0.619,1.24,0.554,2.713-0.176,3.893
				s-2.017,1.896-3.402,1.896H27.062z M106.693,116.374L74.076,51.137l-32.619,65.237H106.693z"/>
			<path fill="#626365" d="M73.946,31.309l46.883,93.767H27.062L73.946,31.309 M34.985,120.374h78.181l-39.09-78.181L34.985,120.374
				 M73.946,23.309c-3.03,0-5.8,1.712-7.155,4.422l-46.884,93.767c-1.24,2.48-1.107,5.426,0.35,7.784s4.033,3.794,6.805,3.794
				h93.767c2.772,0,5.348-1.436,6.806-3.794c1.457-2.358,1.59-5.304,0.35-7.784L81.102,27.731
				C79.746,25.021,76.977,23.309,73.946,23.309L73.946,23.309z M47.929,112.374l26.146-52.292l26.146,52.292H47.929L47.929,112.374z
				"/>
		</g>
		<g>
			<path fill="#626365" d="M34.985,122.874c-0.866,0-1.671-0.448-2.126-1.187c-0.455-0.737-0.497-1.656-0.109-2.433l39.09-78.18
				c0.423-0.847,1.289-1.382,2.236-1.382c0.947,0,1.813,0.535,2.236,1.382l39.09,78.181c0.389,0.775,0.347,1.695-0.108,2.434
				c-0.456,0.736-1.261,1.186-2.127,1.186L34.985,122.874L34.985,122.874z"/>
			<path fill="#626365" d="M74.076,42.193l39.09,78.181H34.985L74.076,42.193 M74.076,37.193c-1.894,0-3.625,1.07-4.472,2.764
				l-39.091,78.182c-0.775,1.549-0.692,3.391,0.219,4.864s2.521,2.371,4.253,2.371h78.181c1.732,0,3.342-0.897,4.253-2.371
				c0.911-1.476,0.994-3.315,0.22-4.864L78.548,39.957C77.701,38.263,75.971,37.193,74.076,37.193L74.076,37.193z"/>
		</g>
	</g>
	<path fill="#FFFFFF" d="M71.631,78.257v-4.89h4.891v4.89H71.631z M75.069,70.764h-2.027l-0.993-11.747v-8.408h4.016v8.408
		L75.069,70.764z"/>
	<path fill="#FFFFFF" d="M64.953,112.091h-2.092v5.187h-3.92v-5.187h-9.035v-2.442l6.838-19.881h4.184c0,0.082,0,0.135,0,0.157
		l-6.416,18.668h4.43v-8.278h3.92v8.278h2.092L64.953,112.091L64.953,112.091z"/>
	<path fill="#FFFFFF" d="M80.826,114.764c0,1.676-0.826,2.514-2.479,2.514h-8.58c-1.629,0-2.443-0.838-2.443-2.514V92.298
		c0-1.688,0.832-2.53,2.496-2.53h8.527c1.651,0,2.479,0.844,2.479,2.53V114.764L80.826,114.764z M76.801,113.743V93.3h-5.432v20.443
		H76.801L76.801,113.743z"/>
	<path fill="#FFFFFF" d="M98.141,112.091h-2.092v5.187h-3.92v-5.187h-9.035v-2.442l6.838-19.881h4.185c0,0.082,0,0.135,0,0.157
		L87.7,108.593h4.43v-8.278h3.92v8.278h2.093v3.498H98.141z"/>
</g>
</svg>
