<?xml version="1.0" encoding="utf-8"?>
<!-- Generator: Adobe Illustrator 15.0.0, SVG Export Plug-In . SVG Version: 6.00 Build 0)  -->
<!DOCTYPE svg PUBLIC "-//W3C//DTD SVG 1.1//EN" "http://www.w3.org/Graphics/SVG/1.1/DTD/svg11.dtd">
<svg version="1.1" id="Layer_1" xmlns="http://www.w3.org/2000/svg" xmlns:xlink="http://www.w3.org/1999/xlink" x="0px" y="0px"
	 width="150px" height="150px" viewBox="0 0 150 150" enable-background="new 0 0 150 150" xml:space="preserve">
<g>
	<path fill="#626365" d="M34.439,61.504c1.619,1.62,3.238,1.08,3.778,0.541l8.729-7.757c0.334,0.054,0.637,0.2,0.987,0.2
		c3.579,0,6.478-2.898,6.478-6.478c0-1.987-0.945-3.703-2.354-4.891l-1.425-19.94c0-1.08-1.08-2.159-2.699-2.159
		c-2.159,0-2.699,1.08-2.699,2.159L44.301,42.79c-1.678,1.172-2.845,3.018-2.845,5.22c0,0.243,0.113,0.448,0.141,0.686l-7.698,9.031
		C33.359,58.266,32.82,59.885,34.439,61.504z"/>
	<path fill="#626365" d="M142.939,128.98L98.136,55.027c-5.397-9.176-14.574-9.176-19.973,0L33.899,128.98
		c-5.398,9.177-1.08,16.194,9.716,16.194h89.068C144.019,145.175,148.338,137.617,142.939,128.98z M82.481,75.539
		c1.62-1.618,3.778-2.698,5.938-2.698c2.7,0,4.319,1.08,5.938,2.698c1.619,1.619,2.158,3.779,2.158,5.938
		s-3.238,17.813-4.317,29.149h-8.097c-1.079-11.336-4.319-26.99-4.319-29.149S80.862,77.158,82.481,75.539z M94.357,129.521
		c-1.619,1.619-3.778,2.158-5.938,2.158c-2.159,0-4.317-0.539-5.938-2.158c-1.619-1.62-2.699-3.24-2.699-5.938
		c0-2.158,1.08-4.318,2.699-5.938c1.62-1.619,3.778-2.158,5.938-2.158s4.319,0.539,5.938,2.158c1.619,1.62,2.699,3.78,2.699,5.938
		C97.057,126.28,95.977,127.9,94.357,129.521z"/>
	<path fill="#626365" d="M50.633,91.194l7.557-12.416c-3.778,1.079-7.018,1.62-10.256,1.62c-17.813,0-32.388-14.576-32.388-32.389
		c0-17.813,14.575-32.388,32.388-32.388c16.734,0,30.768,12.955,32.388,29.689c2.159-1.62,5.398-2.699,8.097-2.699
		c0.54,0,1.62,0,2.159,0C87.879,21.02,69.526,4.825,47.934,4.825C24.183,4.825,4.75,24.258,4.75,48.01
		c0,23.751,19.433,43.185,43.184,43.185C49.014,91.194,49.554,91.194,50.633,91.194z"/>
</g>
</svg>
