<?xml version="1.0" encoding="utf-8"?>
<!-- Generator: Adobe Illustrator 17.0.0, SVG Export Plug-In . SVG Version: 6.00 Build 0)  -->
<!DOCTYPE svg PUBLIC "-//W3C//DTD SVG 1.1//EN" "http://www.w3.org/Graphics/SVG/1.1/DTD/svg11.dtd">
<svg version="1.1" id="Laag_1" xmlns="http://www.w3.org/2000/svg" xmlns:xlink="http://www.w3.org/1999/xlink" x="0px" y="0px"
	 width="18.435px" height="27.5px" viewBox="0 0 18.435 27.5" enable-background="new 0 0 18.435 27.5" xml:space="preserve">
<g>
	<path fill="#307EC0" d="M9.28,12.993c-1.368,0-2.477-1.109-2.477-2.477S7.912,8.039,9.28,8.039s2.477,1.109,2.477,2.477
		S10.648,12.993,9.28,12.993 M9.28,4.188c-3.513,0-6.371,2.858-6.371,6.371c0,1.415,0.904,3.721,2.762,7.052
		c1.315,2.355,2.608,4.32,2.662,4.402l0.947,1.436l0.947-1.436c0.054-0.082,1.347-2.046,2.662-4.402
		c1.858-3.331,2.762-5.637,2.762-7.052C15.651,7.046,12.793,4.188,9.28,4.188"/>
</g>
</svg>
