<?xml version="1.0" encoding="utf-8"?>
<!-- Generator: Adobe Illustrator 15.0.0, SVG Export Plug-In . SVG Version: 6.00 Build 0)  -->
<!DOCTYPE svg PUBLIC "-//W3C//DTD SVG 1.1//EN" "http://www.w3.org/Graphics/SVG/1.1/DTD/svg11.dtd">
<svg version="1.1" xmlns="http://www.w3.org/2000/svg" xmlns:xlink="http://www.w3.org/1999/xlink" x="0px" y="0px" width="150px"
	 height="150px" viewBox="0 0 150 150" enable-background="new 0 0 150 150" xml:space="preserve">
<g id="Layer_3" display="none">
	<g display="inline">
		<g>
			<path fill-rule="evenodd" clip-rule="evenodd" fill="#FFFFFF" d="M-53.474-13.999c84.052,0,168.103,0,252.155,0
				c0,57.272,0,114.541,0,171.813c-84.213,0-168.426,0-252.639,0c0-56.787,0-113.573,0-170.361
				C-53.999-13.234-54.038-13.917-53.474-13.999z M87.365,64.89c3.872,0,7.744,0,11.616,0c0-4.033,0-8.066,0-12.1
				c-3.872,0-7.744,0-11.616,0C87.365,56.824,87.365,60.857,87.365,64.89z M36.547,64.89c3.872,0,7.744,0,11.616,0
				c0-3.872,0-7.744,0-11.616c-3.872,0-7.744,0-11.616,0C36.547,57.146,36.547,61.019,36.547,64.89z M62.198,83.281
				c-15.301,1.238-28.963,6.702-40.17,13.552c-5.879,3.593-12.67,5.41-10.647,14.035c15.005-8.504,33.741-17.423,57.11-17.423
				c20.615,0,37.805,6.748,50.818,14.035c1.738,0.974,3.152,3.365,5.323,2.42c0-2.097,0-4.194,0-6.292
				C110.997,93.034,88.821,81.127,62.198,83.281z"/>
			<path fill-rule="evenodd" clip-rule="evenodd" d="M87.365,52.791c3.872,0,7.744,0,11.616,0c0,4.033,0,8.066,0,12.1
				c-3.872,0-7.744,0-11.616,0C87.365,60.857,87.365,56.824,87.365,52.791z"/>
			<path fill-rule="evenodd" clip-rule="evenodd" d="M36.547,53.274c3.872,0,7.744,0,11.616,0c0,3.872,0,7.744,0,11.616
				c-3.872,0-7.744,0-11.616,0C36.547,61.019,36.547,57.146,36.547,53.274z"/>
			<path fill-rule="evenodd" clip-rule="evenodd" d="M124.632,103.608c0,2.098,0,4.195,0,6.292c-2.171,0.945-3.585-1.446-5.323-2.42
				c-13.014-7.287-30.203-14.035-50.818-14.035c-23.369,0-42.105,8.919-57.11,17.423c-2.023-8.625,4.769-10.442,10.647-14.035
				c11.207-6.85,24.87-12.313,40.17-13.552C88.821,81.127,110.997,93.034,124.632,103.608z"/>
		</g>
	</g>
</g>
<g id="Layer_1">
	<g>
		<rect x="44.048" y="46.213" fill="#626465" width="11.504" height="11.638"/>
		<rect x="94.946" y="46.213" fill="#626465" width="11.504" height="11.638"/>
		<path fill="#626465" d="M75,86.339c31.59,0,46.564,13.114,56.122,17.448c0,0,2.223-6.224-3.268-9.715
			c-12.34-7.847-27.546-18.18-52.863-18.18s-40.506,10.333-52.846,18.18c-5.49,3.491-3.268,9.715-3.268,9.715
			C28.436,99.453,43.41,86.339,75,86.339z"/>
	</g>
</g>
</svg>
