<?xml version="1.0" encoding="utf-8"?>
<!-- Generator: Adobe Illustrator 15.0.0, SVG Export Plug-In . SVG Version: 6.00 Build 0)  -->
<!DOCTYPE svg PUBLIC "-//W3C//DTD SVG 1.1//EN" "http://www.w3.org/Graphics/SVG/1.1/DTD/svg11.dtd">
<svg version="1.1" xmlns="http://www.w3.org/2000/svg" xmlns:xlink="http://www.w3.org/1999/xlink" x="0px" y="0px" width="1800px"
	 height="919.322px" viewBox="0 0 1800 919.322" enable-background="new 0 0 1800 919.322" xml:space="preserve">
<g id="Laag_1">
	<g>
		<path fill="#626365" d="M1802.297,887.488v-31.834h-249.133v-40.138v-31.834h-31.834h-304.496V742.16v-95.501V3.065
			c0,0,0-2.768-2.77-2.768h-63.667c0,0-2.768,0-2.768,2.768v142.56c0,0,0,2.77-2.769,2.77H1014.85c0,0-2.769,0-2.769-2.77V50.124
			c0,0,0-2.768-2.259-1.168l-140.197,99.3h-0.051c0,0-0.054,0-0.054-2.768V50.124c0,0,0-2.768-2.259-1.168l-140.197,99.3h-0.051
			c0,0-0.053,0-0.053-2.768V50.124c0,0,0-2.768-2.26-1.168l-140.196,99.3h-0.052c0,0-0.054,0-0.054-2.768V50.124
			c0,0,0-2.768-2.259-1.168l-140.197,99.3h-0.051h-0.144V93.03c0,0,0-2.768-2.769-2.768H254.902c0,0-2.768,0-2.768,2.768v620.065H3
			v31.834h1182v174.393h31.834V815.517h304.494v40.138v8.304v23.529L1802.297,887.488L1802.297,887.488z"/>
		
			<image overflow="visible" width="2009" height="1549" xlink:href="FACTORY_RF-01.png"  transform="matrix(0.48 0 0 0.48 252.0471 0)">
		</image>
	</g>
	<g>
		<g>
			<g>
				<defs>
					<rect id="SVGID_1_" x="1518.916" y="836.405" width="53.269" height="53.268"/>
				</defs>
				<clipPath id="SVGID_2_">
					<use xlink:href="#SVGID_1_"  overflow="visible"/>
				</clipPath>
				<path clip-path="url(#SVGID_2_)" fill="#504F4E" d="M1568.238,853.372h-13.021v-13.021c0-3.946-3.946-3.946-3.946-3.946h-28.409
					c-3.946,0-3.946,3.946-3.946,3.946v45.376c0,3.946,3.946,3.946,3.946,3.946h0.001h28.407h16.968
					c3.946,0,3.946-3.946,3.946-3.946v-28.409C1572.185,853.372,1568.238,853.372,1568.238,853.372z"/>
			</g>
		</g>
	</g>
	<path fill="#504F4E" d="M1234.059,781.672h-14.739v-16.388c0-3.956-3.956-3.956-3.956-3.956h-28.478
		c-3.956,0-3.956,3.956-3.956,3.956v20.323c0,0.007,0,0.021,0,0.021v28.479c0,0.003,0,0.005,0,0.007v20.337
		c0,3.956,3.956,3.956,3.956,3.956h28.478c3.956,0,3.956-3.956,3.956-3.956v-16.388h14.739c3.956,0,3.956-3.956,3.956-3.956v-28.479
		C1238.015,781.672,1234.059,781.672,1234.059,781.672z"/>
</g>
<g id="Layer_2">
</g>
</svg>
