<?xml version="1.0" encoding="utf-8"?>
<!-- Generator: Adobe Illustrator 17.0.0, SVG Export Plug-In . SVG Version: 6.00 Build 0)  -->
<!DOCTYPE svg PUBLIC "-//W3C//DTD SVG 1.1//EN" "http://www.w3.org/Graphics/SVG/1.1/DTD/svg11.dtd">
<svg version="1.1" id="Laag_1" xmlns="http://www.w3.org/2000/svg" xmlns:xlink="http://www.w3.org/1999/xlink" x="0px" y="0px"
	 width="29.75px" height="19.566px" viewBox="0 0 29.75 19.566" enable-background="new 0 0 29.75 19.566" xml:space="preserve">
<g>
	<defs>
		<rect id="SVGID_9_" x="4.255" y="1.017" width="21.325" height="14.905"/>
	</defs>
	<clipPath id="SVGID_2_">
		<use xlink:href="#SVGID_9_"  overflow="visible"/>
	</clipPath>
	<path clip-path="url(#SVGID_2_)" fill="#616264" d="M24.627,14.016H5.916c-0.526,0-0.953,0.427-0.953,0.953
		s0.427,0.952,0.953,0.952h18.711c0.526,0,0.953-0.426,0.953-0.952C25.58,14.442,25.153,14.016,24.627,14.016"/>
</g>
<path fill="#616264" d="M4.917,8.812c-0.001,0-0.001,0-0.002,0c-0.26,0.005-0.473,0.21-0.489,0.47
	c-0.016,0.261,0.171,0.49,0.43,0.526l7.297,1.019l-2.119,1.333c-0.154,0.097-0.225,0.285-0.173,0.459
	c0.052,0.174,0.214,0.293,0.396,0.289l1.545-0.03c0.044-0.001,0.088-0.009,0.13-0.024l5.522-1.999l5.653-0.118
	c2.155-0.074,2.307-0.877,2.303-1.121c-0.004-0.19-0.079-0.478-0.414-0.777c-0.341-0.304-0.877-0.558-1.641-0.781
	c-0.255-0.074-0.382-0.141-0.517-0.213c-0.474-0.25-0.816-0.38-2.852-0.341L8.85,7.719L6.298,4.236
	C6.201,4.104,6.047,4.028,5.885,4.031L5.157,4.044c-0.15,0.003-0.29,0.073-0.383,0.191S4.647,4.506,4.678,4.652l0.913,4.151
	L4.917,8.812z"/>
</svg>
