<?xml version="1.0" encoding="utf-8"?>
<!-- Generator: Adobe Illustrator 17.0.0, SVG Export Plug-In . SVG Version: 6.00 Build 0)  -->
<!DOCTYPE svg PUBLIC "-//W3C//DTD SVG 1.1//EN" "http://www.w3.org/Graphics/SVG/1.1/DTD/svg11.dtd">
<svg version="1.1" id="Laag_1" xmlns="http://www.w3.org/2000/svg" xmlns:xlink="http://www.w3.org/1999/xlink" x="0px" y="0px"
	 width="30.75px" height="20.25px" viewBox="0 0 30.75 20.25" enable-background="new 0 0 30.75 20.25" xml:space="preserve">
<g>
	<path fill="#616264" d="M24.872,9.021l-6.346-5.759c-0.387-0.352-1.015-0.352-1.402,0c-0.387,0.351-0.387,0.921,0,1.272
		l4.653,4.223H4.829c-0.547,0-0.991,0.403-0.991,0.9c0,0.497,0.444,0.9,0.991,0.9h16.948l-4.653,4.223
		c-0.387,0.352-0.387,0.921,0,1.273c0.193,0.175,0.447,0.263,0.701,0.263c0.254,0,0.508-0.088,0.701-0.263l6.346-5.759
		C25.259,9.942,25.259,9.372,24.872,9.021"/>
</g>
</svg>
