<?xml version="1.0" encoding="utf-8"?>
<!-- Generator: Adobe Illustrator 15.0.0, SVG Export Plug-In . SVG Version: 6.00 Build 0)  -->
<!DOCTYPE svg PUBLIC "-//W3C//DTD SVG 1.1//EN" "http://www.w3.org/Graphics/SVG/1.1/DTD/svg11.dtd">
<svg version="1.1" id="Layer_1" xmlns="http://www.w3.org/2000/svg" xmlns:xlink="http://www.w3.org/1999/xlink" x="0px" y="0px"
	 width="98.62px" height="72.853px" viewBox="215.078 353.623 98.62 72.853" enable-background="new 215.078 353.623 98.62 72.853"
	 xml:space="preserve">
<g>
	<path fill="#414142" d="M273.155,403.519c-3.631,0-6.654-2.464-7.574-5.795h-8.109c0.49,1.87,0.779,3.822,0.779,5.85
		c0,10.124-6.549,18.725-15.624,21.85h63.349c3.666,0,6.638-2.973,6.638-6.633v-21.065h-31.888
		C279.801,401.054,276.779,403.519,273.155,403.519z"/>
	<path fill="#414142" d="M305.975,367.781H293.04v-2.759c0-6.461-5.125-9.942-9.938-9.942h-19.895c-6.451,0-9.943,5.124-9.943,9.942
		v2.759h-12.938c-3.666,0-6.639,2.966-6.639,6.627v6.116c0.479-0.028,0.958-0.072,1.445-0.072c9.153,0,17.057,5.361,20.801,13.1
		h56.677v-19.144C312.612,370.747,309.641,367.781,305.975,367.781z M286.412,367.781h-26.521v-2.759c0,0,0-3.314,3.315-3.314
		h19.895c0,0,3.311,0,3.311,3.314V367.781z"/>
	<path fill="#414142" d="M239.537,398.755l-6.276,6.274l-2.53-2.547c-0.623-0.619-1.622-0.619-2.24,0
		c-0.619,0.614-0.619,1.617,0,2.236l3.648,3.669c0.31,0.307,0.713,0.462,1.118,0.462c0.409,0,0.813-0.155,1.122-0.462l7.396-7.396
		c0.619-0.619,0.619-1.622,0-2.237C241.156,398.137,240.153,398.137,239.537,398.755z"/>
	<path fill="#414142" d="M253.739,403.572c0-10.277-8.328-18.61-18.604-18.61c-10.277,0-18.61,8.333-18.61,18.61
		c0,10.271,8.333,18.605,18.61,18.605C245.41,422.177,253.739,413.845,253.739,403.572z M235.135,418.302
		c-8.123,0-14.73-6.61-14.73-14.729c0-8.126,6.607-14.73,14.73-14.73c8.117,0,14.729,6.604,14.729,14.73
		C249.864,411.69,243.252,418.302,235.135,418.302z"/>
</g>
</svg>
