<?xml version="1.0" encoding="utf-8"?>
<!-- Generator: Adobe Illustrator 15.0.0, SVG Export Plug-In . SVG Version: 6.00 Build 0)  -->
<!DOCTYPE svg PUBLIC "-//W3C//DTD SVG 1.1//EN" "http://www.w3.org/Graphics/SVG/1.1/DTD/svg11.dtd">
<svg version="1.1" id="Laag_1" xmlns="http://www.w3.org/2000/svg" xmlns:xlink="http://www.w3.org/1999/xlink" x="0px" y="0px"
	 width="21.479px" height="15.042px" viewBox="0 0 21.479 15.042" enable-background="new 0 0 21.479 15.042" xml:space="preserve">
<g>
	<g>
		<g>
			<defs>
				<rect id="SVGID_1_" x="0.077" y="0.069" width="21.325" height="14.905"/>
			</defs>
			<clipPath id="SVGID_2_">
				<use xlink:href="#SVGID_1_"  overflow="visible"/>
			</clipPath>
			<path clip-path="url(#SVGID_2_)" fill="#616264" d="M2.248,9.042c-0.001,0-0.001,0.002-0.002,0.002
				c-0.231,0.119-0.331,0.396-0.23,0.637c0.102,0.242,0.371,0.363,0.619,0.281l6.991-2.326L8.319,9.771
				c-0.096,0.154-0.075,0.355,0.049,0.488s0.321,0.166,0.482,0.082l1.371-0.713c0.039-0.021,0.075-0.047,0.106-0.078l4.062-4.244
				l5.012-2.614c1.896-1.022,1.678-1.81,1.564-2.026c-0.088-0.168-0.283-0.394-0.715-0.513c-0.441-0.121-1.035-0.11-1.818,0.029
				c-0.26,0.047-0.402,0.043-0.557,0.039c-0.537-0.014-0.9,0.021-2.707,0.96L5.286,6.318L1.454,4.33
				c-0.146-0.076-0.317-0.076-0.461,0L0.346,4.664C0.214,4.733,0.119,4.858,0.088,5.005C0.056,5.152,0.094,5.304,0.186,5.421
				l2.661,3.313L2.248,9.042z"/>
		</g>
	</g>
	<g>
		<g>
			<defs>
				<rect id="SVGID_3_" x="0.077" y="0.069" width="21.325" height="14.905"/>
			</defs>
			<clipPath id="SVGID_4_">
				<use xlink:href="#SVGID_3_"  overflow="visible"/>
			</clipPath>
			<path clip-path="url(#SVGID_4_)" fill="#616264" d="M20.448,13.069H1.738c-0.526,0-0.953,0.429-0.953,0.953
				c0,0.526,0.427,0.952,0.953,0.952h18.71c0.525,0,0.953-0.426,0.953-0.952S20.974,13.069,20.448,13.069"/>
		</g>
	</g>
</g>
</svg>
