<?xml version="1.0" encoding="utf-8"?>
<!-- Generator: Adobe Illustrator 15.0.0, SVG Export Plug-In . SVG Version: 6.00 Build 0)  -->
<!DOCTYPE svg PUBLIC "-//W3C//DTD SVG 1.1//EN" "http://www.w3.org/Graphics/SVG/1.1/DTD/svg11.dtd">
<svg version="1.1" id="Layer_1" xmlns="http://www.w3.org/2000/svg" xmlns:xlink="http://www.w3.org/1999/xlink" x="0px" y="0px"
	 width="124.797px" height="116.463px" viewBox="234.993 362.713 124.797 116.463"
	 enable-background="new 234.993 362.713 124.797 116.463" xml:space="preserve">
<g>
	<path fill="#414142" d="M340.273,451.73c2.818-2.498,4.604-6.094,4.604-10.107c0-7.514-6.229-13.6-13.927-13.6
		c-7.692,0-13.932,6.086-13.932,13.6c0,4.072,1.836,7.711,4.728,10.209c-2.98,0.736-5.722,1.908-8.131,3.543
		c2.933,5.879,4.769,13.42,4.769,23.129h40.419C358.804,462.001,351.055,454.251,340.273,451.73z"/>
	<path fill="#414142" d="M284.963,442.65c3.785-3.342,6.183-8.152,6.183-13.521c0-10.062-8.354-18.226-18.653-18.226
		c-10.3,0-18.654,8.165-18.654,18.226c0,5.438,2.459,10.316,6.334,13.65c-14.162,3.516-24.286,13.902-24.286,35.725h73.896
		C309.781,456.402,299.405,446.025,284.963,442.65z"/>
	<path fill="#414142" d="M316.672,406.505c1.611,9.372,10.522,15.655,19.89,14.038l7.351,5.681l0.836-9.522
		c4.498-3.818,6.925-9.827,5.853-16.054c-1.617-9.373-10.523-15.649-19.89-14.032C321.339,388.233,315.055,397.133,316.672,406.505z
		"/>
	<path fill="#414142" d="M329.425,379.193c0.993-0.168,1.999-0.208,3.004-0.258c-1.774-4.122-4.64-7.828-8.574-10.607
		c-11.326-8.001-26.999-5.301-35,6.037c-7.996,11.332-5.295,27.009,6.031,35.005l1.724,13.448l10.697-8.961
		c1.298,0.111,2.604,0.078,3.903-0.018c-0.871-1.909-1.591-3.903-1.96-6.053C306.93,394.337,315.981,381.512,329.425,379.193z"/>
</g>
</svg>
