<?xml version="1.0" encoding="utf-8"?>
<!-- Generator: Adobe Illustrator 15.0.0, SVG Export Plug-In . SVG Version: 6.00 Build 0)  -->
<!DOCTYPE svg PUBLIC "-//W3C//DTD SVG 1.1//EN" "http://www.w3.org/Graphics/SVG/1.1/DTD/svg11.dtd">
<svg version="1.1" id="Laag_1" xmlns="http://www.w3.org/2000/svg" xmlns:xlink="http://www.w3.org/1999/xlink" x="0px" y="0px"
	 width="29.541px" height="17.333px" viewBox="0 0 29.541 17.333" enable-background="new 0 0 29.541 17.333" xml:space="preserve">
<path fill="#B5B5B5" d="M27.685,9.521L27.685,9.521c0,0.911-0.742,1.653-1.654,1.653v2.054c0,0.911-0.74,1.651-1.652,1.651h-2.852
	c-0.912,0-1.652-0.74-1.652-1.651V9.805H9.667v3.423c0,0.911-0.74,1.651-1.652,1.651H5.164c-0.912,0-1.654-0.74-1.654-1.651v-1.996
	c-0.912,0-1.653-0.742-1.653-1.652V7.869c0-0.912,0.741-1.654,1.653-1.654V4.105c0-0.912,0.742-1.652,1.654-1.652h2.851
	c0.912,0,1.652,0.74,1.652,1.652v3.42h10.148v-3.42c0-0.912,0.742-1.652,1.652-1.652h2.852c0.912,0,1.654,0.74,1.654,1.652v1.996
	c0.912,0,1.652,0.74,1.652,1.654v1.766H27.685L27.685,9.521z"/>
</svg>
