<?xml version="1.0" encoding="utf-8"?>
<!-- Generator: Adobe Illustrator 15.0.0, SVG Export Plug-In . SVG Version: 6.00 Build 0)  -->
<!DOCTYPE svg PUBLIC "-//W3C//DTD SVG 1.1//EN" "http://www.w3.org/Graphics/SVG/1.1/DTD/svg11.dtd">
<svg version="1.1" id="Laag_1" xmlns="http://www.w3.org/2000/svg" xmlns:xlink="http://www.w3.org/1999/xlink" x="0px" y="0px"
	 width="1959.942px" height="810.619px" viewBox="0 0 1959.942 810.619" enable-background="new 0 0 1959.942 810.619"
	 xml:space="preserve">
<path fill="#626365" d="M1959.942,678.054v-31.898h-549.701v31.898v100.344l-110.965,0.119l0.186-745.175
	c0,0,0-31.342-31.342-31.342H33.341C33.341,2,2,2,2,33.342v627.476c0,0,0,31.342,31.342,31.342h1233.88v118.137h8.717h23.182
	h111.121h31.896v-31.896V678.054H1959.942L1959.942,678.054z"/>
<g>
	<g>
		<g>
			<defs>
				<rect id="SVGID_1_" x="1265.139" y="759.351" width="53.27" height="53.268"/>
			</defs>
			<clipPath id="SVGID_2_">
				<use xlink:href="#SVGID_1_"  overflow="visible"/>
			</clipPath>
			<path clip-path="url(#SVGID_2_)" fill="#504F4E" d="M1314.463,776.317h-13.023v-13.02c0-3.947-3.945-3.947-3.945-3.947h-28.408
				c-3.945,0-3.945,3.947-3.945,3.947v45.375c0,3.945,3.945,3.945,3.945,3.945h0.002h28.406h16.969c3.945,0,3.945-3.945,3.945-3.945
				v-28.408C1318.409,776.317,1314.463,776.317,1314.463,776.317z"/>
		</g>
	</g>
</g>
<g>
	<g>
		<g>
			<defs>
				<rect id="SVGID_3_" x="1391.223" y="759.351" width="53.27" height="53.268"/>
			</defs>
			<clipPath id="SVGID_4_">
				<use xlink:href="#SVGID_3_"  overflow="visible"/>
			</clipPath>
			<path clip-path="url(#SVGID_4_)" fill="#504F4E" d="M1395.17,776.317h13.021v-13.02c0-3.947,3.945-3.947,3.945-3.947h28.41
				c3.945,0,3.945,3.947,3.945,3.947v45.375c0,3.945-3.945,3.945-3.945,3.945h-0.002h-28.406h-16.969
				c-3.945,0-3.945-3.945-3.945-3.945v-28.408C1391.223,776.317,1395.17,776.317,1395.17,776.317z"/>
		</g>
	</g>
</g>
<g>
	<g>
		<g>
			<defs>
				<rect id="SVGID_5_" x="1408.223" y="644.101" width="53.27" height="53.268"/>
			</defs>
			<clipPath id="SVGID_6_">
				<use xlink:href="#SVGID_5_"  overflow="visible"/>
			</clipPath>
			<path clip-path="url(#SVGID_6_)" fill="#504F4E" d="M1457.545,680.401h-13.021v13.021c0,3.945-3.945,3.945-3.945,3.945h-28.41
				c-3.945,0-3.945-3.945-3.945-3.945v-45.375c0-3.947,3.945-3.947,3.945-3.947h0.002h28.406h16.969
				c3.945,0,3.945,3.947,3.945,3.947v28.408C1461.493,680.401,1457.545,680.401,1457.545,680.401z"/>
		</g>
	</g>
</g>
<rect x="33.608" y="34.053" fill="#999898" width="1233.333" height="626.715"/>
</svg>
