<?xml version="1.0" encoding="utf-8"?>
<!-- Generator: Adobe Illustrator 15.0.0, SVG Export Plug-In . SVG Version: 6.00 Build 0)  -->
<!DOCTYPE svg PUBLIC "-//W3C//DTD SVG 1.1//EN" "http://www.w3.org/Graphics/SVG/1.1/DTD/svg11.dtd">
<svg version="1.1" id="Laag_1" xmlns="http://www.w3.org/2000/svg" xmlns:xlink="http://www.w3.org/1999/xlink" x="0px" y="0px"
	 width="1750.442px" height="848.564px" viewBox="252.058 351.436 1750.442 848.564"
	 enable-background="new 252.058 351.436 1750.442 848.564" xml:space="preserve">
<path fill="#626365" d="M1660.3,1127.834l-110.966,0.118l0.186-745.174c0,0,0-31.342-31.342-31.342H283.4
	c0,0-31.342,0-31.342,31.342v627.476c0,0,0,31.342,31.342,31.342h1233.88v118.136h8.717h23.181H1660.3h340.2v-31.897"/>
<g>
	<g>
		<defs>
			<rect id="SVGID_1_" x="1515.198" y="1108.787" width="53.269" height="53.268"/>
		</defs>
		<clipPath id="SVGID_2_">
			<use xlink:href="#SVGID_1_"  overflow="visible"/>
		</clipPath>
		<path clip-path="url(#SVGID_2_)" fill="#504F4E" d="M1564.521,1125.754h-13.022v-13.021c0-3.946-3.945-3.946-3.945-3.946h-28.409
			c-3.946,0-3.946,3.946-3.946,3.946v45.376c0,3.945,3.946,3.945,3.946,3.945h0.001h28.407h16.968c3.946,0,3.946-3.945,3.946-3.945
			V1129.7C1568.467,1125.754,1564.521,1125.754,1564.521,1125.754z"/>
	</g>
</g>
</svg>
