<?xml version="1.0" encoding="utf-8"?>
<!-- Generator: Adobe Illustrator 15.0.0, SVG Export Plug-In . SVG Version: 6.00 Build 0)  -->
<!DOCTYPE svg PUBLIC "-//W3C//DTD SVG 1.1//EN" "http://www.w3.org/Graphics/SVG/1.1/DTD/svg11.dtd">
<svg version="1.1" id="Laag_1" xmlns="http://www.w3.org/2000/svg" xmlns:xlink="http://www.w3.org/1999/xlink" x="0px" y="0px"
	 width="83.93px" height="55.208px" viewBox="0 0 83.93 55.208" enable-background="new 0 0 83.93 55.208" xml:space="preserve">
<g opacity="0.32">
	<g>
		<path d="M79.279,22.351c0.092-0.351,0.165-0.704,0.165-1.068c0-2.634-2.462-4.961-6.235-6.404
			c-0.638-4.173-7.138-7.455-15.076-7.455c-1.72,0-3.365,0.162-4.905,0.447C49.62,3.75,43.217,1,35.899,1
			c-9.395,0-17.286,4.522-19.673,10.671c-6.122,2.013-10.253,5.776-10.253,10.097c0,1.658,0.616,3.233,1.712,4.661
			c-1.768,1.726-2.798,3.726-2.798,5.867c0,4.961,5.444,9.188,13.103,10.869c0.597,5.473,9.476,9.818,20.372,9.818
			c6.108,0,11.576-1.372,15.319-3.536c0.87,0.065,1.746,0.12,2.646,0.12c11.283,0,20.43-5.218,20.43-11.654
			c0-0.027-0.007-0.054-0.008-0.08c3.81-2.188,6.181-5.24,6.181-8.621C82.93,26.662,81.574,24.298,79.279,22.351"/>
	</g>
</g>
<g>
	<g>
		<path fill="#FFFFFF" d="M77.774,21.351c0.092-0.351,0.165-0.704,0.165-1.068c0-2.634-2.462-4.961-6.235-6.404
			c-0.638-4.173-7.138-7.455-15.076-7.455c-1.72,0-3.365,0.162-4.905,0.447C48.115,2.75,41.712,0,34.394,0
			c-9.395,0-17.286,4.522-19.673,10.671C8.599,12.684,4.468,16.447,4.468,20.768c0,1.658,0.616,3.233,1.712,4.661
			c-1.768,1.726-2.798,3.726-2.798,5.867c0,4.961,5.444,9.188,13.103,10.869c0.597,5.473,9.476,9.818,20.372,9.818
			c6.108,0,11.576-1.372,15.319-3.536c0.87,0.065,1.746,0.12,2.646,0.12c11.283,0,20.43-5.218,20.43-11.654
			c0-0.027-0.007-0.054-0.008-0.08c3.81-2.188,6.181-5.24,6.181-8.621C81.425,25.662,80.07,23.298,77.774,21.351"/>
	</g>
</g>
</svg>
