<?xml version="1.0" encoding="utf-8"?>
<!-- Generator: Adobe Illustrator 15.0.0, SVG Export Plug-In . SVG Version: 6.00 Build 0)  -->
<!DOCTYPE svg PUBLIC "-//W3C//DTD SVG 1.1//EN" "http://www.w3.org/Graphics/SVG/1.1/DTD/svg11.dtd">
<svg version="1.1" id="Laag_1" xmlns="http://www.w3.org/2000/svg" xmlns:xlink="http://www.w3.org/1999/xlink" x="0px" y="0px"
	 width="28.166px" height="25.791px" viewBox="0 0 28.166 25.791" enable-background="new 0 0 28.166 25.791" xml:space="preserve">
<g>
	<path fill="#2980CD" d="M14.101,2.046c-0.545,0-0.98,0.442-0.98,0.987v5.103c0,0.698-0.533,1.271-1.246,1.315V3.033
		c0-0.545-0.435-0.987-0.979-0.987c-0.546,0-0.981,0.442-0.981,0.987v6.418C9.2,9.406,8.667,8.834,8.667,8.135V3.033
		c0-0.545-0.435-0.987-0.979-0.987c-0.547,0-0.981,0.442-0.981,0.987v5.103c0,1.672,1.248,3.056,2.863,3.265l-0.65,10.4
		c-0.004,0.076-0.006,0.166-0.002,0.244c0.069,1.092,1.008,1.922,2.101,1.854c1.09-0.068,1.92-1.009,1.851-2.099l-0.652-10.4
		c1.617-0.209,2.865-1.593,2.865-3.265V3.033C15.081,2.488,14.646,2.046,14.101,2.046"/>
	<path fill="#2980CD" d="M21.456,21.857l-0.425-19.36c0-0.218-0.108-0.419-0.297-0.528s-0.419-0.109-0.606-0.003
		c-1.226,0.7-3.197,2.074-3.197,3.654v9.133c0,0.635,0.451,1.161,1.047,1.284l-0.359,5.818c-0.005,0.076-0.005,0.164,0,0.24
		c0.066,1.061,0.979,1.869,2.038,1.803C20.718,23.833,21.521,22.919,21.456,21.857"/>
</g>
</svg>
