<?xml version="1.0" encoding="utf-8"?>
<!-- Generator: Adobe Illustrator 15.0.0, SVG Export Plug-In . SVG Version: 6.00 Build 0)  -->
<!DOCTYPE svg PUBLIC "-//W3C//DTD SVG 1.1//EN" "http://www.w3.org/Graphics/SVG/1.1/DTD/svg11.dtd">
<svg version="1.1" id="Laag_1" xmlns="http://www.w3.org/2000/svg" xmlns:xlink="http://www.w3.org/1999/xlink" x="0px" y="0px"
	 width="132.008px" height="73.9px" viewBox="4.5 4.667 132.008 73.9" enable-background="new 4.5 4.667 132.008 73.9"
	 xml:space="preserve">
<g>
	<path fill="#1D1D1B" d="M73.108,60.202c-0.208-0.016-0.464-0.016-0.768-0.016h-1.12v2.527h1.04c0.304,0,0.56,0,0.768-0.014
		c0.736-0.066,1.408-0.322,1.408-1.25S73.844,60.266,73.108,60.202 M19.876,44.45c0-0.928-0.592-1.184-1.328-1.248
		c-0.208-0.016-0.464-0.016-0.768-0.016h-1.12v2.527h1.04c0.304,0,0.56,0,0.768-0.014C19.204,45.633,19.876,45.377,19.876,44.45
		 M26.644,63.881h2.048l-1.024-3.391L26.644,63.881z M58.26,63.465c0,2.338,1.04,3.633,2.704,3.633s2.704-1.295,2.704-3.633
		c0-2.35-1.04-3.631-2.704-3.631S58.26,61.116,58.26,63.465 M61.764,44.45c0-0.928-0.592-1.184-1.328-1.248
		c-0.208-0.016-0.464-0.016-0.768-0.016h-1.12v2.527h1.04c0.304,0,0.56,0,0.768-0.014C61.092,45.633,61.764,45.377,61.764,44.45
		 M80.997,46.881h2.047L82.02,43.49L80.997,46.881z M111.17,46.465c0-2.35-1.039-3.63-2.703-3.63s-2.704,1.28-2.704,3.63
		c0,2.338,1.04,3.633,2.704,3.633S111.17,48.803,111.17,46.465 M126.531,51.986h-3.76l-4.017-7.296
		c0.097,1.12,0.097,2.096,0.097,2.736v4.56h-2.88V40.947h3.584l4.191,7.615c-0.08-1.119-0.096-2.255-0.096-2.896v-4.719h2.88V51.986
		z M114.116,46.465c0,3.537-2.209,5.744-5.648,5.744c-3.44,0-5.648-2.207-5.648-5.744c0-3.55,2.208-5.742,5.648-5.742
		C111.907,40.723,114.116,42.915,114.116,46.465 M101,57.965h6v3.701h-6V57.965z M100.963,51.986h-2.881v-11.04h2.881V51.986z
		 M97.299,68.986h-6v-3.7h6V68.986z M97.299,61.667h-6v-3.699h6V61.667z M96.836,43.186h-3.584v8.8h-2.881v-8.8h-3.584v-2.239
		h10.049V43.186z M83.812,40.947l3.983,11.039h-3.135l-0.929-2.864h-3.44l-0.928,2.864h-3.056l3.983-11.039H83.812z M77.428,40.947
		l-3.984,11.039h-3.52L65.94,40.947h3.136l2.64,8.815l2.656-8.815H77.428z M62.548,46.706c1.152,0.416,1.568,1.266,1.728,2.592
		c0.144,1.248,0.4,2.033,0.832,2.688h-3.136c-0.256-0.784-0.416-1.424-0.512-2.207c-0.144-1.217-0.624-1.92-1.36-1.969
		c-0.32-0.017-0.592-0.017-0.912-0.017h-0.64v4.192h-2.88V40.947h4.384c0.688,0,1.136,0.015,1.728,0.08
		c1.6,0.192,2.992,0.976,2.992,2.927C64.772,45.346,64.02,46.275,62.548,46.706 M55.316,63.465c0-3.551,2.208-5.742,5.648-5.742
		s5.648,2.191,5.648,5.742c0,3.537-2.208,5.744-5.648,5.744S55.316,67.002,55.316,63.465 M54.964,60.186H51.38v8.8H48.5v-8.8h-3.584
		v-2.238h10.048V60.186z M53.78,51.986h-8.464V40.947h8.304v2.239h-5.424v2.145H53.3v2.239h-5.104v2.177h5.584V51.986z
		 M44.276,61.738h-2.88l-0.032-0.159c-0.24-1.185-0.96-1.744-2.128-1.744c-1.376,0-2.416,1.151-2.416,3.535
		c0,2.784,1.152,3.729,2.432,3.729c1.12,0,1.84-0.688,2.08-1.903l0.032-0.161h2.88l-0.016,0.161
		c-0.272,2.655-2.304,4.015-5.072,4.015c-2.96,0-5.344-1.92-5.344-5.664c0-3.84,2.464-5.822,5.456-5.822
		c3.152,0,4.768,1.679,4.992,3.855L44.276,61.738z M37.876,43.826c0,0.706,0.512,1.135,2.336,1.568
		c2.432,0.577,3.424,1.792,3.424,3.487c0,2.209-2.112,3.328-4.336,3.328c-2.8,0-4.688-1.119-4.864-3.599h2.88
		c0.192,1.039,1.04,1.487,1.904,1.487c0.8,0,1.408-0.416,1.408-1.023c0-0.576-0.416-1.072-1.776-1.408
		c-2.512-0.625-3.984-1.408-3.984-3.617c0-2.128,1.984-3.327,4.176-3.327c2.912,0,4.128,1.584,4.368,3.631h-2.88
		c-0.128-0.911-0.608-1.519-1.552-1.519C38.324,42.835,37.876,43.154,37.876,43.826 M33.444,68.986h-3.136l-0.928-2.864h-3.44
		l-0.928,2.864h-3.056l3.984-11.038h3.52L33.444,68.986z M33.284,51.986H24.82V40.947h8.304v2.239H27.7v2.145h5.104v2.239H27.7
		v2.177h5.584V51.986z M20.66,46.706c1.152,0.416,1.568,1.266,1.728,2.592c0.144,1.248,0.4,2.033,0.832,2.688h-3.136
		c-0.256-0.784-0.416-1.424-0.512-2.207c-0.144-1.217-0.624-1.92-1.36-1.969c-0.32-0.017-0.592-0.017-0.912-0.017h-0.64v4.192h-2.88
		V40.947h4.384c0.688,0,1.136,0.015,1.728,0.08c1.6,0.192,2.992,0.976,2.992,2.927C22.884,45.346,22.132,46.275,20.66,46.706
		 M13.78,57.948h8.304v2.238H16.66v2.145h4.944v2.239H16.66v4.416h-2.88V57.948z M68.34,57.948h4.384
		c0.688,0,1.136,0.014,1.728,0.079c1.6,0.192,2.992,0.976,2.992,2.927c0,1.393-0.752,2.321-2.224,2.752
		c1.151,0.416,1.567,1.266,1.728,2.592c0.145,1.248,0.4,2.033,0.832,2.688h-3.136c-0.256-0.784-0.416-1.424-0.513-2.207
		c-0.144-1.217-0.623-1.92-1.359-1.969c-0.32-0.017-0.592-0.017-0.912-0.017h-0.64v4.192h-2.88V57.948z M78.196,57.948h3.232
		l2.176,4.366l2.096-4.366h3.152l-3.889,6.814v4.224h-2.879v-4.224L78.196,57.948z M101,65.286h6v3.7h-6V65.286z M110.799,57.965h6
		v3.701h-6V57.965z M110.799,65.286h6v3.7h-6V65.286z M120.5,57.965h6v3.701h-6V57.965z M120.5,65.286h6v3.7h-6V65.286z
		 M136.508,78.567v-48v-25.9h-10v25.9H99.795v-16.9L75.997,30.352V13.667L52.15,30.384v0.183h-0.004v-16.9l-23.8,16.685V13.667
		L4.5,30.384v0.983h0.059v47.2H136.508z"/>
	<path fill="#FFFFFF" d="M73.077,60.178c-0.207-0.016-0.464-0.016-0.768-0.016h-1.12v2.527h1.04c0.305,0,0.561,0,0.768-0.016
		c0.736-0.064,1.408-0.32,1.408-1.248S73.813,60.243,73.077,60.178 M19.846,44.426c0-0.928-0.592-1.184-1.328-1.249
		c-0.208-0.016-0.464-0.016-0.768-0.016h-1.12v2.528h1.04c0.304,0,0.56,0,0.768-0.016C19.174,45.61,19.846,45.354,19.846,44.426
		 M26.613,63.858h2.048l-1.024-3.393L26.613,63.858z M58.229,63.442c0,2.336,1.04,3.633,2.704,3.633s2.704-1.297,2.704-3.633
		c0-2.352-1.04-3.632-2.704-3.632S58.229,61.09,58.229,63.442 M61.733,44.426c0-0.928-0.592-1.184-1.328-1.249
		c-0.208-0.016-0.464-0.016-0.768-0.016h-1.12v2.528h1.04c0.304,0,0.56,0,0.768-0.016C61.061,45.61,61.733,45.354,61.733,44.426
		 M80.965,46.858h2.048l-1.024-3.392L80.965,46.858z M111.141,46.442c0-2.352-1.04-3.632-2.705-3.632
		c-1.664,0-2.703,1.28-2.703,3.632c0,2.336,1.039,3.633,2.703,3.633C110.101,50.075,111.141,48.778,111.141,46.442 M126.5,51.961
		h-3.76l-4.017-7.295c0.096,1.119,0.096,2.096,0.096,2.735v4.56h-2.88v-11.04h3.584l4.191,7.616
		c-0.079-1.119-0.096-2.256-0.096-2.896v-4.72h2.881V51.961z M114.084,46.442c0,3.536-2.207,5.744-5.648,5.744
		c-3.439,0-5.646-2.208-5.646-5.744c0-3.552,2.207-5.744,5.646-5.744C111.877,40.698,114.084,42.89,114.084,46.442 M100.933,51.961
		h-2.88v-11.04h2.88V51.961z M96.805,43.162h-3.584v8.799H90.34v-8.799h-3.584v-2.24h10.049V43.162z M83.781,40.922l3.984,11.04
		h-3.136l-0.928-2.863h-3.44l-0.929,2.863h-3.056l3.984-11.04H83.781z M77.397,40.922l-3.984,11.04h-3.52l-3.984-11.04h3.136
		l2.64,8.816l2.655-8.816H77.397z M62.517,46.682c1.152,0.416,1.568,1.264,1.728,2.592c0.144,1.248,0.4,2.032,0.832,2.688h-3.136
		c-0.256-0.783-0.416-1.424-0.512-2.207c-0.144-1.217-0.624-1.92-1.36-1.969c-0.32-0.016-0.592-0.016-0.912-0.016h-0.64v4.191h-2.88
		v-11.04h4.384c0.688,0,1.136,0.016,1.728,0.08c1.6,0.192,2.992,0.976,2.992,2.928C64.741,45.323,63.989,46.25,62.517,46.682
		 M55.285,63.442c0-3.552,2.208-5.744,5.648-5.744s5.648,2.192,5.648,5.744c0,3.536-2.208,5.744-5.648,5.744
		S55.285,66.978,55.285,63.442 M54.933,60.163h-3.584v8.799h-2.88v-8.799h-3.584v-2.24h10.048V60.163z M53.749,51.961h-8.464v-11.04
		h8.304v2.24h-5.424v2.144h5.104v2.239h-5.104v2.177h5.584V51.961z M44.245,61.713h-2.88l-0.032-0.159
		c-0.24-1.185-0.96-1.744-2.128-1.744c-1.376,0-2.416,1.151-2.416,3.536c0,2.783,1.152,3.729,2.432,3.729
		c1.12,0,1.84-0.689,2.08-1.904l0.032-0.16h2.88l-0.016,0.16c-0.272,2.656-2.304,4.016-5.072,4.016c-2.96,0-5.344-1.92-5.344-5.664
		c0-3.84,2.464-5.824,5.456-5.824c3.152,0,4.768,1.68,4.992,3.856L44.245,61.713z M37.845,43.802c0,0.705,0.512,1.136,2.336,1.568
		c2.432,0.576,3.424,1.793,3.424,3.488c0,2.208-2.112,3.328-4.336,3.328c-2.8,0-4.688-1.12-4.864-3.6h2.88
		c0.192,1.039,1.04,1.488,1.904,1.488c0.8,0,1.408-0.416,1.408-1.025c0-0.575-0.416-1.071-1.776-1.407
		c-2.512-0.624-3.984-1.408-3.984-3.616c0-2.128,1.984-3.328,4.176-3.328c2.912,0,4.128,1.584,4.368,3.632h-2.88
		c-0.128-0.913-0.608-1.521-1.552-1.521C38.293,42.81,37.845,43.13,37.845,43.802 M33.413,68.961h-3.136l-0.928-2.863h-3.44
		l-0.928,2.863h-3.056l3.984-11.039h3.52L33.413,68.961z M33.253,51.961h-8.464v-11.04h8.304v2.24h-5.424v2.144h5.104v2.239h-5.104
		v2.177h5.584V51.961z M20.63,46.682c1.152,0.416,1.568,1.264,1.728,2.592c0.144,1.248,0.4,2.032,0.832,2.688h-3.136
		c-0.256-0.783-0.416-1.424-0.512-2.207c-0.144-1.217-0.624-1.92-1.36-1.969c-0.32-0.016-0.592-0.016-0.912-0.016h-0.64v4.191h-2.88
		v-11.04h4.384c0.688,0,1.136,0.016,1.728,0.08c1.6,0.192,2.992,0.976,2.992,2.928C22.854,45.323,22.102,46.25,20.63,46.682
		 M13.75,57.922h8.304v2.24H16.63v2.144h4.944v2.239H16.63v4.416h-2.88V57.922z M68.309,57.922h4.384
		c0.688,0,1.136,0.016,1.728,0.08c1.601,0.191,2.992,0.976,2.992,2.928c0,1.393-0.752,2.32-2.224,2.752
		c1.151,0.416,1.567,1.264,1.728,2.592c0.145,1.248,0.4,2.032,0.832,2.688h-3.136c-0.256-0.783-0.416-1.424-0.512-2.207
		c-0.144-1.217-0.624-1.92-1.36-1.969c-0.32-0.016-0.592-0.016-0.912-0.016h-0.64v4.191h-2.88V57.922z M78.165,57.922h3.232
		l2.176,4.367l2.096-4.367h3.152l-3.888,6.815v4.224h-2.88v-4.224L78.165,57.922z"/>
</g>
</svg>
