<?xml version="1.0" encoding="utf-8"?>
<!-- Generator: Adobe Illustrator 15.0.0, SVG Export Plug-In . SVG Version: 6.00 Build 0)  -->
<!DOCTYPE svg PUBLIC "-//W3C//DTD SVG 1.1//EN" "http://www.w3.org/Graphics/SVG/1.1/DTD/svg11.dtd">
<svg version="1.1" id="Layer_1" xmlns="http://www.w3.org/2000/svg" xmlns:xlink="http://www.w3.org/1999/xlink" x="0px" y="0px"
	 width="90.153px" height="66.158px" viewBox="252.471 168.153 90.153 66.158"
	 enable-background="new 252.471 168.153 90.153 66.158" xml:space="preserve">
<path fill="#414142" d="M334.082,169.157h-73.262c-3.981,0-7.224,3.326-7.224,7.414v49.59c0,4.075,3.242,7.405,7.224,7.405h73.262
	c3.986,0,7.226-3.33,7.226-7.405v-49.59C341.308,172.482,338.069,169.157,334.082,169.157z M263.777,174.055h67.314
	c0.476,0,0.947,0.093,1.4,0.254l-31.413,29.42c-1.031,1.041-2.294,1.586-3.617,1.586c-1.281,0-2.498-0.499-3.506-1.456
	c-0.015,0-0.015,0-0.015-0.01l-31.581-29.541C262.819,174.157,263.287,174.055,263.777,174.055z M335.997,224.506l-16.72-15.818
	c-1.18-1.114-3.034-1.06-4.163,0.115c-1.108,1.18-1.063,3.049,0.12,4.168l16.498,15.604c-0.208,0.037-0.394,0.093-0.61,0.093
	h-67.305c-0.227,0-0.43-0.064-0.651-0.097l16.196-15.485c1.176-1.124,1.23-2.987,0.12-4.167c-1.133-1.175-2.992-1.23-4.167-0.116
	l-16.377,15.661c-0.222-0.708-0.365-1.438-0.365-2.243l-0.051-41.723c0-0.971,0.194-1.91,0.519-2.743l32.385,30.304
	c0.028,0.023,0.055,0.027,0.088,0.046c1.725,1.582,3.771,2.433,5.948,2.433c2.207,0,4.366-0.929,6.119-2.617
	c0.015-0.01,0.042-0.01,0.051-0.023l32.178-30.151c0.323,0.842,0.521,1.767,0.521,2.752l0.052,41.723
	C336.382,223.039,336.233,223.793,335.997,224.506z"/>
</svg>
