<?xml version="1.0" encoding="utf-8"?>
<!-- Generator: Adobe Illustrator 15.0.0, SVG Export Plug-In . SVG Version: 6.00 Build 0)  -->
<!DOCTYPE svg PUBLIC "-//W3C//DTD SVG 1.1//EN" "http://www.w3.org/Graphics/SVG/1.1/DTD/svg11.dtd">
<svg version="1.1" id="Layer_1" xmlns="http://www.w3.org/2000/svg" xmlns:xlink="http://www.w3.org/1999/xlink" x="0px" y="0px"
	 width="68.148px" height="66.79px" viewBox="263.609 205.136 68.148 66.79" enable-background="new 263.609 205.136 68.148 66.79"
	 xml:space="preserve">
<path fill="#414142" d="M325.82,211.182c-6.993-6.993-18.321-6.993-25.313,0c-5.242,5.242-6.552,12.923-3.938,19.384l-31.792,31.786
	l-0.43,7.289l1.725,1.725l10.286-0.865l3.867-3.856l-2.143-2.144l3.855-3.867l1.289,1.289c0,0,3.433-1.708,3.856-3.867
	c0.43-2.138,0.005-7.718,0.005-7.718l11.156-0.854l8.855-8.852c6.316,2.272,13.647,0.935,18.719-4.135
	C332.808,229.505,332.808,218.172,325.82,211.182z M323.289,220.141c-1.776,1.775-4.655,1.775-6.429,0.005
	c-1.778-1.781-1.778-4.66,0-6.435c1.772-1.767,4.651-1.772,6.429,0.008C325.068,215.486,325.068,218.365,323.289,220.141z"/>
</svg>
