<?xml version="1.0" encoding="utf-8"?>
<!-- Generator: Adobe Illustrator 15.0.0, SVG Export Plug-In . SVG Version: 6.00 Build 0)  -->
<!DOCTYPE svg PUBLIC "-//W3C//DTD SVG 1.1//EN" "http://www.w3.org/Graphics/SVG/1.1/DTD/svg11.dtd">
<svg version="1.1" id="Layer_1" xmlns="http://www.w3.org/2000/svg" xmlns:xlink="http://www.w3.org/1999/xlink" x="0px" y="0px"
	 width="61.148px" height="73.031px" viewBox="265.613 261.118 61.148 73.031"
	 enable-background="new 265.613 261.118 61.148 73.031" xml:space="preserve">
<path fill="#414142" d="M320.815,284.131h-3.628c0.154-6.583-2.548-13.148-8.08-17.594c-8.708-7.01-21.101-6.321-28.981,1.183
	c-1.108,0.975-1.469,2.482-0.672,3.64c1.896,2.744,4.107,0.702,4.107,0.702c5.864-5.918,15.46-6.566,22.093-1.229
	c4.158,3.345,6.067,8.321,5.932,13.298H271.48c-2.714,0-4.938,2.225-4.938,4.939v39.466c0,2.71,2.225,4.939,4.938,4.939h49.336
	c2.714,0,4.936-2.229,4.936-4.939V289.07C325.75,286.356,323.529,284.131,320.815,284.131z M299.271,312.4v5.839
	c0,1.685-1.365,3.055-3.055,3.055c-1.688,0-3.05-1.37-3.05-3.055V312.4c-2.383-1.142-4.039-3.557-4.039-6.371
	c0-3.918,3.167-7.089,7.089-7.089c3.914,0,7.093,3.171,7.093,7.089C303.309,308.843,301.653,311.258,299.271,312.4z"/>
</svg>
