<?xml version="1.0" encoding="utf-8"?>
<!-- Generator: Adobe Illustrator 16.0.0, SVG Export Plug-In . SVG Version: 6.00 Build 0)  -->
<!DOCTYPE svg PUBLIC "-//W3C//DTD SVG 1.1//EN" "http://www.w3.org/Graphics/SVG/1.1/DTD/svg11.dtd">
<svg version="1.1" id="Laag_1" xmlns="http://www.w3.org/2000/svg" xmlns:xlink="http://www.w3.org/1999/xlink" x="0px" y="0px"
	 width="25.833px" height="17.333px" viewBox="8.834 10.167 25.833 17.333" enable-background="new 8.834 10.167 25.833 17.333"
	 xml:space="preserve">
<g>
	<defs>
		<rect id="SVGID_1_" x="10.167" y="12.084" width="23.321" height="13.766"/>
	</defs>
	<clipPath id="SVGID_2_">
		<use xlink:href="#SVGID_1_"  overflow="visible"/>
	</clipPath>
	<path clip-path="url(#SVGID_2_)" fill="#2980CD" d="M16.056,24.678c2.607,0,4.734-2.117,4.73-4.713
		c-0.002-2.611-2.109-4.727-4.715-4.734c-2.598-0.006-4.728,2.115-4.734,4.719C11.331,22.547,13.456,24.678,16.056,24.678
		 M22.876,20.083c0.059,2.578,2.246,4.721,4.942,4.592c2.648-0.125,4.641-2.34,4.49-5.029c-0.14-2.531-2.347-4.562-5.046-4.408
		C24.821,15.375,22.76,17.631,22.876,20.083 M23.042,23.702c-0.387,0.652-0.762,1.281-1.151,1.934
		c-0.452-0.631-0.89-1.242-1.336-1.865c-0.461,0.529-0.981,0.967-1.579,1.307c-3.586,2.035-8.107-0.143-8.734-4.219
		c-0.238-1.549,0.104-2.977,0.998-4.266c0.088-0.129,0.109-0.234,0.055-0.381c-0.241-0.666-0.512-1.314-1.027-1.896h0.292
		c1.181,0,2.36-0.002,3.542,0.004c0.135,0,0.219-0.037,0.309-0.146c0.524-0.652,1.244-1.016,2.004-1.305
		c1.097-0.418,2.242-0.607,3.406-0.703c1.434-0.117,2.868-0.113,4.299,0.049c1.427,0.16,2.825,0.436,4.064,1.215
		c0.323,0.203,0.581,0.506,0.885,0.744c0.104,0.08,0.259,0.137,0.392,0.137c1.141,0.012,2.282,0.006,3.424,0.006h0.29
		c-0.057,0.08-0.086,0.129-0.121,0.172c-0.398,0.49-0.646,1.059-0.846,1.646c-0.022,0.061,0.015,0.166,0.06,0.223
		c0.858,1.141,1.266,2.418,1.218,3.848c-0.085,2.58-1.94,4.889-4.475,5.467c-2.288,0.523-4.243-0.111-5.842-1.834
		C23.136,23.803,23.104,23.768,23.042,23.702"/>
	<path clip-path="url(#SVGID_2_)" fill="#2980CD" d="M27.601,21.913c1.071-0.002,1.963-0.893,1.96-1.957
		c-0.003-1.066-0.9-1.961-1.964-1.959c-1.073,0.002-1.955,0.889-1.952,1.961C25.648,21.04,26.524,21.915,27.601,21.913
		 M27.591,17.129c1.584-0.002,2.837,1.25,2.837,2.832c0,1.564-1.262,2.828-2.823,2.828c-1.579,0-2.838-1.258-2.838-2.838
		C24.769,18.381,26.021,17.129,27.591,17.129"/>
	<path clip-path="url(#SVGID_2_)" fill="#2980CD" d="M18.019,19.95c-0.006-1.072-0.893-1.957-1.961-1.953
		c-1.066,0.004-1.96,0.902-1.955,1.967c0.002,1.068,0.895,1.951,1.967,1.949C17.144,21.909,18.022,21.024,18.019,19.95
		 M13.233,19.903c0.015-1.574,1.297-2.793,2.918-2.773c1.539,0.018,2.756,1.307,2.744,2.904c-0.013,1.531-1.316,2.771-2.899,2.756
		C14.453,22.774,13.219,21.485,13.233,19.903"/>
	<path clip-path="url(#SVGID_2_)" fill="#2980CD" d="M28.562,19.963c-0.002,0.527-0.438,0.963-0.964,0.961s-0.964-0.438-0.967-0.963
		c-0.003-0.537,0.439-0.975,0.979-0.969C28.144,19,28.564,19.43,28.562,19.963"/>
	<path clip-path="url(#SVGID_2_)" fill="#2980CD" d="M16.056,18.995c0.535-0.002,0.967,0.42,0.975,0.949
		c0.007,0.533-0.439,0.984-0.973,0.979c-0.53-0.004-0.959-0.438-0.959-0.965C15.101,19.422,15.525,18.995,16.056,18.995"/>
</g>
</svg>
