<?xml version="1.0" encoding="utf-8"?>
<!-- Generator: Adobe Illustrator 15.0.0, SVG Export Plug-In . SVG Version: 6.00 Build 0)  -->
<!DOCTYPE svg PUBLIC "-//W3C//DTD SVG 1.1//EN" "http://www.w3.org/Graphics/SVG/1.1/DTD/svg11.dtd">
<svg version="1.1" id="Laag_1" xmlns="http://www.w3.org/2000/svg" xmlns:xlink="http://www.w3.org/1999/xlink" x="0px" y="0px"
	 width="27.5px" height="21px" viewBox="0 0 27.5 21" enable-background="new 0 0 27.5 21" xml:space="preserve">
<g>
	<path fill="#2980CD" d="M23.906,11.939c0,0.666-0.553,1.272-1.271,1.272H4.812c-0.664,0-1.273-0.554-1.273-1.272V4.246
		c0-0.664,0.553-1.272,1.273-1.272h17.821c0.664,0,1.273,0.554,1.273,1.272V11.939L23.906,11.939z M26.01,4.246
		c0-1.881-1.494-3.375-3.377-3.375H4.812c-1.883,0-3.376,1.494-3.376,3.375v7.693c0,1.883,1.493,3.377,3.376,3.377h6.53v1.604H7.358
		c-0.332,0-0.609,0.274-0.609,0.608v1.992c0,0.332,0.277,0.607,0.609,0.607h12.728c0.332,0,0.609-0.275,0.609-0.607v-1.99
		c0-0.334-0.277-0.609-0.609-0.609h-3.93v-1.605h6.531c1.883,0,3.377-1.494,3.377-3.377L26.01,4.246z"/>
	<path fill="#2980CD" d="M12.892,5.298c0-0.388-0.276-0.664-0.664-0.664H8.187c-0.387,0-0.664,0.276-0.664,0.664
		S7.8,5.962,8.187,5.962h1.218v4.813c0,0.443,0.332,0.775,0.775,0.775s0.775-0.332,0.775-0.775V5.962h1.217
		C12.616,5.906,12.892,5.631,12.892,5.298"/>
	<path fill="#2980CD" d="M18.76,4.634c-0.332,0-0.664,0.222-0.775,0.554L17.32,7.566c-0.221,0.774-0.443,1.606-0.609,2.438h-0.055
		c-0.166-0.83-0.389-1.662-0.609-2.492l-0.662-2.324c-0.111-0.332-0.443-0.607-0.775-0.607c-0.277,0-0.499,0.109-0.665,0.332
		c-0.165,0.222-0.223,0.496-0.112,0.719L15.549,11c0.109,0.332,0.387,0.553,0.719,0.553h0.721c0.332,0,0.609-0.221,0.719-0.553
		l1.826-5.369c0.057-0.223,0.057-0.498-0.109-0.72C19.256,4.745,19.035,4.634,18.76,4.634"/>
</g>
</svg>
