<?xml version="1.0" encoding="utf-8"?>
<!-- Generator: Adobe Illustrator 15.0.0, SVG Export Plug-In . SVG Version: 6.00 Build 0)  -->
<!DOCTYPE svg PUBLIC "-//W3C//DTD SVG 1.1//EN" "http://www.w3.org/Graphics/SVG/1.1/DTD/svg11.dtd">
<svg version="1.1" id="Laag_1" xmlns="http://www.w3.org/2000/svg" xmlns:xlink="http://www.w3.org/1999/xlink" x="0px" y="0px"
	 width="26.333px" height="24px" viewBox="0 0 26.333 24" enable-background="new 0 0 26.333 24" xml:space="preserve">
<g>
	<path fill="#B5B5B5" d="M13.167,9.65c-0.719,0-1.385,0.23-1.933,0.617c-0.086,0.062-0.141,0.158-0.147,0.262
		c-0.01,0.105,0.029,0.209,0.103,0.283l0.274,0.272c0.121,0.123,0.31,0.142,0.451,0.046c0.358-0.242,0.787-0.386,1.25-0.386
		c0.465,0,0.894,0.144,1.252,0.386c0.144,0.096,0.332,0.075,0.453-0.046l0.272-0.272c0.074-0.074,0.111-0.178,0.104-0.283
		c-0.01-0.104-0.063-0.199-0.149-0.262C14.552,9.881,13.886,9.65,13.167,9.65"/>
	<path fill="#B5B5B5" d="M13.167,7.669c-1.282,0-2.478,0.373-3.489,1.013C9.584,8.739,9.523,8.835,9.511,8.944
		C9.499,9.053,9.538,9.16,9.615,9.237l0.273,0.274c0.116,0.116,0.297,0.137,0.438,0.051c0.83-0.504,1.803-0.795,2.842-0.795
		s2.012,0.291,2.84,0.795c0.143,0.086,0.322,0.063,0.438-0.051l0.274-0.274c0.076-0.077,0.113-0.185,0.102-0.293
		s-0.072-0.205-0.165-0.263C15.644,8.042,14.451,7.669,13.167,7.669"/>
	<path fill="#B5B5B5" d="M8.44,8.063C8.557,8.182,8.743,8.2,8.885,8.109c1.235-0.793,2.705-1.256,4.28-1.256
		c1.576,0,3.045,0.463,4.282,1.256c0.142,0.091,0.326,0.072,0.443-0.047l0.277-0.276c0.076-0.075,0.113-0.184,0.104-0.29
		c-0.012-0.107-0.07-0.203-0.161-0.262C16.688,6.3,14.99,5.757,13.166,5.757c-1.823,0-3.522,0.543-4.946,1.478
		C8.13,7.293,8.073,7.388,8.061,7.496c-0.012,0.106,0.025,0.215,0.102,0.29L8.44,8.063z"/>
	<path fill="#B5B5B5" d="M13.166,11.659c0.451,0,0.815,0.362,0.815,0.813c0,0.449-0.364,0.814-0.815,0.814
		c-0.448,0-0.813-0.365-0.813-0.814S12.717,11.659,13.166,11.659"/>
	<path fill="#B5B5B5" d="M4.934,3.265c0-0.176,0.144-0.317,0.32-0.317h15.821c0.178,0,0.32,0.143,0.32,0.317v11.982
		c0,0.177-0.145,0.318-0.32,0.318H5.254c-0.177,0-0.32-0.144-0.32-0.318L4.934,3.265L4.934,3.265z M4.386,17.212h17.56
		c0.605,0,1.098-0.489,1.098-1.096V2.398c0-0.606-0.49-1.1-1.096-1.1H4.386c-0.605,0-1.097,0.492-1.097,1.1v13.719
		C3.289,16.723,3.78,17.212,4.386,17.212"/>
	<path fill="#B5B5B5" d="M25.231,21.219l-0.822-2.195c-0.162-0.428-0.57-0.713-1.028-0.713H2.952c-0.458,0-0.868,0.285-1.028,0.713
		l-0.822,2.195c-0.127,0.336-0.08,0.713,0.125,1.01c0.204,0.295,0.542,0.473,0.902,0.473h22.074c0.359,0,0.697-0.178,0.902-0.473
		C25.31,21.932,25.358,21.555,25.231,21.219"/>
</g>
</svg>
