<?xml version="1.0" encoding="utf-8"?>
<!-- Generator: Adobe Illustrator 15.0.0, SVG Export Plug-In . SVG Version: 6.00 Build 0)  -->
<!DOCTYPE svg PUBLIC "-//W3C//DTD SVG 1.1//EN" "http://www.w3.org/Graphics/SVG/1.1/DTD/svg11.dtd">
<svg version="1.1" id="Laag_1" xmlns="http://www.w3.org/2000/svg" xmlns:xlink="http://www.w3.org/1999/xlink" x="0px" y="0px"
	 width="19.833px" height="20.083px" viewBox="0 0 19.833 20.083" enable-background="new 0 0 19.833 20.083" xml:space="preserve">
<path fill="#2980CD" d="M1.278,5.321C0.82,5.779,0.591,6.327,0.591,6.965v8.661c0,0.638,0.229,1.186,0.687,1.644
	s1.006,0.687,1.645,0.687h0.666V4.634H2.923C2.284,4.634,1.736,4.863,1.278,5.321"/>
<path fill="#2980CD" d="M12.581,4.634H7.252V3.302h5.329V4.634z M13.913,2.969c0-0.278-0.097-0.513-0.291-0.708
	c-0.195-0.194-0.431-0.291-0.707-0.291H6.919c-0.277,0-0.513,0.097-0.708,0.291C6.017,2.455,5.92,2.691,5.92,2.969v1.665H4.588
	v13.322h10.657V4.634h-1.332V2.969z"/>
<path fill="#2980CD" d="M18.555,5.321c-0.458-0.458-1.006-0.687-1.645-0.687h-0.666v13.322h0.666c0.639,0,1.187-0.229,1.645-0.687
	s0.688-1.006,0.688-1.644V6.965C19.243,6.327,19.013,5.779,18.555,5.321"/>
</svg>
