<?xml version="1.0" encoding="utf-8"?>
<!-- Generator: Adobe Illustrator 17.0.0, SVG Export Plug-In . SVG Version: 6.00 Build 0)  -->
<!DOCTYPE svg PUBLIC "-//W3C//DTD SVG 1.1//EN" "http://www.w3.org/Graphics/SVG/1.1/DTD/svg11.dtd">
<svg version="1.1" id="Laag_1" xmlns="http://www.w3.org/2000/svg" xmlns:xlink="http://www.w3.org/1999/xlink" x="0px" y="0px"
	 width="19.833px" height="20.083px" viewBox="0 0 19.833 20.083" enable-background="new 0 0 19.833 20.083" xml:space="preserve">
<path fill="#2980CD" d="M8.814,14.419c-0.165,0.163-0.431,0.163-0.594,0l-0.131-0.131l-0.144-0.142l-0.614-0.615l-0.01-0.014
	l-2.819-2.841c-0.165-0.163-0.165-0.431,0-0.592L5.39,9.195c0.165-0.164,0.429-0.164,0.593,0L8.52,11.75l5.331-5.332
	c0.163-0.164,0.428-0.164,0.592,0l0.888,0.889c0.164,0.164,0.164,0.43,0,0.593L8.814,14.419z M9.917,2.696
	c-4.058,0-7.346,3.289-7.346,7.345c0,4.058,3.288,7.346,7.346,7.346c4.058,0,7.346-3.288,7.346-7.346
	C17.263,5.985,13.974,2.696,9.917,2.696"/>
</svg>
