<?xml version="1.0" encoding="utf-8"?>
<!-- Generator: Adobe Illustrator 15.0.0, SVG Export Plug-In . SVG Version: 6.00 Build 0)  -->
<!DOCTYPE svg PUBLIC "-//W3C//DTD SVG 1.1//EN" "http://www.w3.org/Graphics/SVG/1.1/DTD/svg11.dtd">
<svg version="1.1" id="Laag_1" xmlns="http://www.w3.org/2000/svg" xmlns:xlink="http://www.w3.org/1999/xlink" x="0px" y="0px"
	 width="19.833px" height="20.083px" viewBox="0 0 19.833 20.083" enable-background="new 0 0 19.833 20.083" xml:space="preserve">
<g>
	<path fill="#2980CD" d="M17.049,9.685V3.839h-0.422c-2.576,0-8.349-0.389-9.558,0.444c-1.295,0.892-4.161,3.398-4.054,3.7
		c0.153,0.433,0.32,0.863,0.447,1.305c0.09,0.311,0.24,0.407,0.571,0.406C8.223,9.68,12.411,9.685,16.6,9.685H17.049z
		 M17.821,14.956h-0.406c-4.309,0-8.618-0.004-12.928,0.008c-0.329,0.002-0.464-0.09-0.555-0.412
		c-0.64-2.264-1.307-4.522-1.951-6.786C1.942,7.627,1.963,7.392,2.054,7.309C3.313,6.159,4.567,5,5.871,3.903
		C6.659,3.24,7.625,2.967,8.664,2.968c2.926,0.004,5.854,0.004,8.781-0.005c0.291-0.001,0.427,0.082,0.427,0.385
		c-0.004,3.821-0.006,7.643-0.009,11.464C17.863,14.838,17.849,14.864,17.821,14.956"/>
	<path fill="#2980CD" d="M17.849,15.138v1.974h-0.454c-4.091,0-8.182-0.005-12.272,0.01c-0.353,0-0.495-0.104-0.569-0.443
		c-0.112-0.512-0.283-1.008-0.437-1.54H17.849z"/>
</g>
</svg>
