<?xml version="1.0" encoding="utf-8"?>
<!-- Generator: Adobe Illustrator 15.0.0, SVG Export Plug-In . SVG Version: 6.00 Build 0)  -->
<!DOCTYPE svg PUBLIC "-//W3C//DTD SVG 1.1//EN" "http://www.w3.org/Graphics/SVG/1.1/DTD/svg11.dtd">
<svg version="1.1" id="Laag_1" xmlns="http://www.w3.org/2000/svg" xmlns:xlink="http://www.w3.org/1999/xlink" x="0px" y="0px"
	 width="19.833px" height="20.083px" viewBox="0 0 19.833 20.083" enable-background="new 0 0 19.833 20.083" xml:space="preserve">
<path fill="#757575" d="M3.384,14.892c0.095,0.118,0.4,0.319,1.367,0.319c0.442,0,0.761-0.106,0.948-0.315
	c0.278-0.31,0.229-0.79,0.229-0.79L5.924,9.55c0-0.293,0.118-0.557,0.333-0.744c0.288-0.251,0.698-0.319,1.02-0.329V4
	C7.062,4.107,6.811,4.229,6.519,4.368C5.408,4.897,5.236,5.465,5.22,5.523V9.77c0,1.791-0.679,2.55-1.224,3.161
	c-0.304,0.339-0.544,0.606-0.635,1.019C3.254,14.431,3.261,14.739,3.384,14.892 M14.778,4.872c0-0.453-0.367-0.821-0.82-0.821H9.822
	c-0.453,0-0.821,0.368-0.821,0.821v1.232c0,0.453,0.368,0.82,0.821,0.82h4.136c0.453,0,0.82-0.367,0.82-0.82V4.872z M2.312,13.715
	c0.153-0.684,0.541-1.118,0.883-1.5c0.489-0.547,0.951-1.063,0.951-2.445V5.488l0.001-0.039c0.009-0.121-0.038-0.877,1.91-2.051
	C6.579,3.083,7,2.939,7.278,2.795c0-0.598,0.484-1.083,1.082-1.083h7.061c0.598,0,1.082,0.485,1.082,1.083v13.788h0.039
	c0.598,0,1.082,0.484,1.082,1.082v0.707H6.156v-0.707c0-0.598,0.485-1.082,1.082-1.082h0.04V9.554
	C7.163,9.56,7.058,9.575,6.999,9.598v4.412c0.018,0.201,0.05,0.979-0.488,1.591c-0.4,0.454-0.992,0.685-1.759,0.685
	c-1.111,0-1.812-0.229-2.206-0.722C2.098,15.006,2.185,14.284,2.312,13.715"/>
</svg>
