<?xml version="1.0" encoding="utf-8"?>
<!-- Generator: Adobe Illustrator 17.0.0, SVG Export Plug-In . SVG Version: 6.00 Build 0)  -->
<!DOCTYPE svg PUBLIC "-//W3C//DTD SVG 1.1//EN" "http://www.w3.org/Graphics/SVG/1.1/DTD/svg11.dtd">
<svg version="1.1" id="Laag_1" xmlns="http://www.w3.org/2000/svg" xmlns:xlink="http://www.w3.org/1999/xlink" x="0px" y="0px"
	 width="19.833px" height="24.75px" viewBox="0 0 19.833 24.75" enable-background="new 0 0 19.833 24.75" xml:space="preserve">
<path fill="#757575" d="M18.3,22.198c0-0.161-0.042-0.289-0.125-0.387s-0.194-0.146-0.33-0.146c-0.136,0-0.247,0.049-0.33,0.146
	c-0.083,0.098-0.125,0.226-0.125,0.387c0,0.162,0.045,0.297,0.132,0.403c0.085,0.107,0.195,0.161,0.324,0.161
	c0.148,0,0.26-0.046,0.339-0.142C18.262,22.523,18.3,22.383,18.3,22.198 M18.905,22.185c0,0.313-0.1,0.568-0.297,0.766
	c-0.198,0.198-0.452,0.297-0.763,0.297c-0.346,0-0.611-0.13-0.79-0.389c-0.18-0.261-0.27-0.641-0.27-1.14
	c0-0.553,0.099-0.966,0.298-1.245c0.185-0.258,0.453-0.39,0.804-0.39l0.063,0.003c0.256,0,0.466,0.074,0.628,0.222
	c0.162,0.148,0.251,0.343,0.262,0.584h-0.598c0.001-0.096-0.027-0.172-0.084-0.229c-0.057-0.058-0.135-0.087-0.229-0.087h-0.025
	c-0.182-0.001-0.316,0.087-0.403,0.262c-0.067,0.135-0.108,0.336-0.122,0.598c0.164-0.172,0.361-0.257,0.592-0.257
	c0.273,0,0.497,0.094,0.671,0.283C18.817,21.65,18.905,21.888,18.905,22.185 M17.82,5.097c-0.13,0-0.232-0.035-0.306-0.105
	c-0.076-0.071-0.12-0.176-0.137-0.313h-0.609c0.03,0.276,0.135,0.496,0.314,0.657c0.178,0.161,0.405,0.241,0.681,0.241
	c0.345,0,0.618-0.098,0.821-0.295s0.304-0.465,0.304-0.801c0-0.292-0.087-0.531-0.259-0.717c-0.175-0.186-0.399-0.279-0.673-0.279
	c-0.197,0-0.38,0.052-0.55,0.158l0.105-0.653h1.25V2.476h-1.684l-0.202,1.675l0.532,0.025c0.041-0.064,0.096-0.116,0.169-0.154
	c0.072-0.039,0.15-0.058,0.234-0.058c0.136,0,0.245,0.053,0.328,0.159c0.083,0.105,0.126,0.243,0.126,0.414
	c0,0.168-0.043,0.304-0.124,0.406C18.06,5.045,17.953,5.097,17.82,5.097 M12.879,20.723l-0.747,1.243l-0.024,0.042h0.771V20.723z
	 M13.477,22.007h0.346v0.482h-0.346v0.678H12.88v-0.678h-1.219v-0.261v-0.263l1.14-1.88h0.338h0.339L13.477,22.007z M12.694,5.097
	c-0.142,0-0.252-0.045-0.326-0.135c-0.076-0.091-0.115-0.224-0.117-0.398h-0.59c0.004,0.325,0.099,0.575,0.284,0.75
	c0.183,0.176,0.442,0.263,0.776,0.263c0.324,0,0.583-0.088,0.772-0.266c0.19-0.178,0.286-0.418,0.286-0.721
	c0-0.276-0.088-0.481-0.264-0.617c-0.053-0.045-0.115-0.079-0.186-0.106l0.082-0.055c0.183-0.139,0.274-0.318,0.274-0.536
	c0-0.253-0.087-0.46-0.263-0.62c-0.176-0.16-0.403-0.241-0.678-0.241c-0.321,0-0.571,0.085-0.748,0.255
	c-0.177,0.171-0.267,0.412-0.272,0.727h0.559c0.003-0.155,0.04-0.275,0.112-0.358c0.073-0.084,0.175-0.127,0.308-0.127
	c0.114,0,0.206,0.038,0.276,0.111c0.069,0.074,0.103,0.171,0.103,0.291c0,0.125-0.035,0.222-0.105,0.289
	c-0.056,0.055-0.133,0.088-0.228,0.1c-0.062,0.006-0.121,0.012-0.175,0.014c-0.054,0.002-0.09,0.001-0.107-0.001v0.448
	c0.015-0.005,0.049-0.006,0.105-0.005c0.053,0,0.113,0.003,0.176,0.007c0.114,0.009,0.209,0.047,0.285,0.116
	c0.083,0.08,0.127,0.186,0.127,0.317c0,0.149-0.044,0.27-0.127,0.362C12.946,5.053,12.832,5.097,12.694,5.097 M7.625,22.153
	c0.301-0.192,0.505-0.364,0.613-0.518c0.11-0.153,0.166-0.347,0.166-0.582c0-0.286-0.096-0.519-0.288-0.699
	c-0.193-0.18-0.441-0.27-0.744-0.27c-0.325,0-0.582,0.099-0.766,0.294c-0.187,0.196-0.274,0.461-0.264,0.796h0.595
	c-0.006-0.179,0.03-0.321,0.107-0.426c0.077-0.105,0.186-0.157,0.323-0.157c0.131,0,0.234,0.043,0.314,0.125
	C7.76,20.8,7.8,20.91,7.8,21.046c0,0.126-0.038,0.238-0.109,0.342c-0.071,0.102-0.195,0.214-0.372,0.337
	c-0.394,0.277-0.662,0.515-0.803,0.716c-0.143,0.201-0.213,0.444-0.213,0.726h2.101v-0.532H7.056l0.001-0.005
	C7.157,22.488,7.348,22.329,7.625,22.153 M7.228,5.496h0.304h0.302V2.413H7.337C7.26,2.586,7.146,2.72,6.995,2.813
	c-0.15,0.093-0.319,0.135-0.508,0.125v0.434h0.74L7.228,5.496z M1.579,3.747h0.753c0.166,0,0.293-0.035,0.376-0.103
	c0.083-0.069,0.126-0.172,0.126-0.311c0-0.136-0.04-0.238-0.118-0.307c-0.08-0.069-0.2-0.103-0.359-0.103H1.579V3.747z M2.226,4.268
	H1.579v1.229H1.255H0.929v-3.11h0.324h1.244c0.295,0,0.534,0.08,0.715,0.238c0.181,0.16,0.272,0.368,0.272,0.627
	c0,0.299-0.101,0.517-0.303,0.656C3.128,3.945,3.067,3.976,2.999,4.001c0.039,0.015,0.073,0.032,0.104,0.05
	c0.178,0.106,0.27,0.284,0.278,0.533l0.015,0.509C3.399,5.195,3.41,5.267,3.428,5.309c0.018,0.043,0.053,0.076,0.106,0.102v0.083
	H2.816C2.799,5.461,2.784,5.392,2.771,5.286c-0.013-0.107-0.019-0.222-0.02-0.345L2.746,4.654c-0.003-0.14-0.045-0.239-0.124-0.298
	C2.543,4.296,2.411,4.268,2.226,4.268 M6.83,13.583H1.649v-1.444H1.66V6.73h1.444v5.409H6.83V6.73h1.444v5.409h3.727V6.73h1.444
	v5.409h3.725V6.73h1.444v12.261H17.17v-5.408h-3.725v5.408h-1.444v-5.408H8.274v5.408H6.83V13.583z"/>
</svg>
