<?xml version="1.0" encoding="utf-8"?>
<!-- Generator: Adobe Illustrator 17.0.0, SVG Export Plug-In . SVG Version: 6.00 Build 0)  -->
<!DOCTYPE svg PUBLIC "-//W3C//DTD SVG 1.1//EN" "http://www.w3.org/Graphics/SVG/1.1/DTD/svg11.dtd">
<svg version="1.1" id="Laag_1" xmlns="http://www.w3.org/2000/svg" xmlns:xlink="http://www.w3.org/1999/xlink" x="0px" y="0px"
	 width="19.833px" height="20.083px" viewBox="0 0 19.833 20.083" enable-background="new 0 0 19.833 20.083" xml:space="preserve">
<path fill="#757575" d="M14.598,12.851h-0.936c-1.034,0-1.873-0.839-1.873-1.873v-0.601c0.414-0.493,0.711-1.075,0.896-1.69
	c0.019-0.104,0.119-0.155,0.186-0.227c0.358-0.358,0.429-0.963,0.16-1.394c-0.037-0.065-0.103-0.122-0.099-0.203
	c0-0.549,0.003-1.099-0.001-1.647c-0.014-0.663-0.204-1.352-0.668-1.842c-0.375-0.397-0.89-0.633-1.421-0.734
	c-0.671-0.128-1.373-0.121-2.038,0.048C8.228,2.833,7.687,3.171,7.352,3.671C7.056,4.106,6.926,4.634,6.904,5.154
	C6.896,5.712,6.902,6.273,6.9,6.833c0.013,0.112-0.082,0.188-0.125,0.28c-0.253,0.46-0.142,1.086,0.265,1.42
	C7.143,8.604,7.163,8.734,7.2,8.846c0.178,0.553,0.472,1.065,0.844,1.511v0.621c0,1.034-0.838,1.873-1.873,1.873H5.235
	c0,0-1.697,0.468-2.809,2.809v0.936c0,0.518,0.419,0.936,0.936,0.936h13.109c0.517,0,0.936-0.418,0.936-0.936V15.66
	C16.295,13.319,14.598,12.851,14.598,12.851"/>
</svg>
