<?xml version="1.0" encoding="utf-8"?>
<!-- Generator: Adobe Illustrator 17.0.0, SVG Export Plug-In . SVG Version: 6.00 Build 0)  -->
<!DOCTYPE svg PUBLIC "-//W3C//DTD SVG 1.1//EN" "http://www.w3.org/Graphics/SVG/1.1/DTD/svg11.dtd">
<svg version="1.1" id="Laag_1" xmlns="http://www.w3.org/2000/svg" xmlns:xlink="http://www.w3.org/1999/xlink" x="0px" y="0px"
	 width="19.833px" height="20.083px" viewBox="0 0 19.833 20.083" enable-background="new 0 0 19.833 20.083" xml:space="preserve">
<path fill="#757575" d="M11.015,10.668l-1.098,0.634l-1.098-0.634L8.818,9.399l1.099-0.634L11.015,9.4V10.668z M16.64,10.53
	l-3.036,0.813l-1.17-0.675V9.401l1.157-0.664l3.049,0.817c0.061,0.016,0.123,0.024,0.184,0.024c0.313,0,0.6-0.209,0.684-0.526
	c0.102-0.378-0.123-0.768-0.501-0.869l-1.672-0.448l1.541-0.885c0.34-0.195,0.457-0.628,0.262-0.968
	c-0.196-0.34-0.628-0.458-0.968-0.262l-1.545,0.887l0.448-1.673c0.102-0.378-0.123-0.767-0.501-0.869
	c-0.377-0.098-0.767,0.124-0.869,0.502l-0.814,3.036l-1.164,0.669l-1.103-0.638V6.195l2.231-2.232c0.277-0.277,0.277-0.726,0-1.003
	s-0.726-0.277-1.003,0l-1.228,1.228V2.405c0-0.392-0.318-0.71-0.71-0.71s-0.709,0.318-0.709,0.71v1.774L7.983,2.96
	c-0.277-0.277-0.726-0.277-1.003,0c-0.277,0.277-0.277,0.726,0,1.003l2.223,2.223v1.353L8.107,8.171L6.943,7.503L6.13,4.467
	C6.029,4.089,5.64,3.866,5.262,3.965C4.883,4.067,4.658,4.456,4.76,4.834l0.448,1.672L3.663,5.62
	C3.323,5.424,2.89,5.542,2.695,5.882C2.5,6.222,2.617,6.655,2.957,6.85l1.541,0.885L2.826,8.183
	C2.448,8.284,2.223,8.674,2.325,9.052C2.41,9.369,2.696,9.578,3.009,9.578c0.061,0,0.123-0.008,0.184-0.024l3.05-0.818L7.399,9.4
	L7.4,10.668l-1.171,0.676L3.193,10.53c-0.376-0.099-0.767,0.124-0.868,0.502C2.223,11.41,2.448,11.799,2.826,11.9l1.666,0.447
	l-1.536,0.887c-0.34,0.196-0.456,0.63-0.26,0.969c0.132,0.228,0.37,0.355,0.615,0.355c0.12,0,0.242-0.03,0.354-0.096l1.544-0.891
	L4.76,15.249c-0.102,0.38,0.123,0.768,0.502,0.87c0.061,0.016,0.123,0.024,0.184,0.024c0.313,0,0.599-0.209,0.684-0.526l0.817-3.049
	l1.163-0.671l1.093,0.631v1.37L6.98,16.121c-0.277,0.277-0.277,0.726,0,1.003c0.138,0.139,0.32,0.208,0.502,0.208
	c0.181,0,0.363-0.069,0.501-0.208l1.22-1.219v1.774c0,0.392,0.317,0.709,0.709,0.709c0.392,0,0.71-0.317,0.71-0.709v-1.783
	l1.228,1.228c0.139,0.139,0.32,0.208,0.502,0.208s0.363-0.069,0.501-0.208c0.277-0.277,0.277-0.726,0-1.003l-2.231-2.232v-1.356
	l1.102-0.636l1.162,0.671l0.817,3.048c0.085,0.318,0.372,0.527,0.685,0.527c0.06,0,0.122-0.008,0.184-0.024
	c0.378-0.102,0.603-0.49,0.501-0.87l-0.45-1.678l1.545,0.891c0.112,0.066,0.234,0.096,0.354,0.096c0.245,0,0.484-0.127,0.615-0.355
	c0.196-0.339,0.08-0.773-0.259-0.969l-1.537-0.887l1.666-0.447c0.378-0.1,0.603-0.49,0.501-0.868
	C17.408,10.654,17.018,10.431,16.64,10.53"/>
</svg>
