<?xml version="1.0" encoding="utf-8"?>
<!-- Generator: Adobe Illustrator 17.0.0, SVG Export Plug-In . SVG Version: 6.00 Build 0)  -->
<!DOCTYPE svg PUBLIC "-//W3C//DTD SVG 1.1//EN" "http://www.w3.org/Graphics/SVG/1.1/DTD/svg11.dtd">
<svg version="1.1" id="Laag_1" xmlns="http://www.w3.org/2000/svg" xmlns:xlink="http://www.w3.org/1999/xlink" x="0px" y="0px"
	 width="19.833px" height="20.083px" viewBox="0 0 19.833 20.083" enable-background="new 0 0 19.833 20.083" xml:space="preserve">
<path fill="#2980CD" d="M14.53,9.208l-2.29,2.16l0.699,2.505c0.14,0.507-0.108,0.699-0.562,0.428l-2.46-1.483l-2.463,1.48
	c-0.451,0.271-0.716,0.078-0.588-0.434l0.676-2.725L5.324,9.182c-0.395-0.349-0.288-0.63,0.238-0.63h2.695l1.281-2.98
	c0.209-0.483,0.542-0.483,0.745,0.004l1.251,2.976h2.731C14.794,8.555,14.912,8.849,14.53,9.208 M9.917,2.691
	c-4.061,0-7.35,3.29-7.35,7.35c0,4.061,3.289,7.351,7.35,7.351s7.35-3.29,7.35-7.351C17.267,5.981,13.978,2.691,9.917,2.691"/>
</svg>
