<?xml version="1.0" standalone="no"?>
<!DOCTYPE svg PUBLIC "-//W3C//DTD SVG 1.1//EN" "http://www.w3.org/Graphics/SVG/1.1/DTD/svg11.dtd" >
<svg xmlns="http://www.w3.org/2000/svg">
<metadata></metadata>
<defs>
<font id="soap-iconsregular" horiz-adv-x="800" >
<font-face units-per-em="1000" ascent="850" descent="-150" />
<missing-glyph horiz-adv-x="500" />
<glyph unicode="&#x25fc;" horiz-adv-x="500" d="M0 0v0v0v0v0z" />
<glyph unicode="&#xe800;" horiz-adv-x="833" d="M54 122h-6q-12 0 -19.5 -7.5t-7.5 -19.5v-41q0 -12 7.5 -19.5t19.5 -7.5h128v437h-122v-342zM54 502h726v125l50 46h-826l50 -46v-125zM794 122h-14v342h-122v-437h136q12 0 19.5 7.5t7.5 19.5v41q0 12 -7.5 19.5t-19.5 7.5zM526 91q-26 62 -15 114.5t60 102.5 q-4 1 -49 -20t-79 -73q0 43 -18.5 80t-62.5 46q3 -1 16.5 -31.5t5.5 -73.5l-3 -13q-29 20 -70 36q5 -3 24.5 -50t-9.5 -100q-9 33 -29.5 57.5t-54.5 36.5q4 -3 17 -52t-12 -112l-6 -12h135q16 47 12.5 93.5t-5.5 49.5q42 -30 56 -69.5t13 -73.5h124q18 45 15 90t-39 80 q1 -1 -2 -33t-24 -73z" />
<glyph unicode="&#xe801;" horiz-adv-x="650" d="M599 526h-204l143 141q8 9 8 20t-8.5 19.5t-20 8.5t-20.5 -8l-172 -170l-172 170q-9 8 -20 8t-19.5 -8.5t-8.5 -19.5t8 -20l143 -141h-205q-19 0 -32 -13t-13 -32v-451q0 -19 13 -32t32 -13h548q19 0 32 13t13 32v451q0 19 -13 32t-32 13zM172 39q-19 0 -31.5 13 t-12.5 32t12.5 31.5t32 12.5t32.5 -12.5t13 -31.5t-13 -32t-33 -13zM325 39q-19 0 -32 13t-13 32t13 31.5t32 12.5t32 -12.5t13 -31.5t-13 -32t-32 -13zM478 39q-19 0 -32 13t-13 32t13 31.5t32 12.5t32 -12.5t13 -31.5t-13 -32t-32 -13zM581 219q0 -15 -10.5 -25.5 t-26.5 -10.5h-438q-15 0 -26 10.5t-11 25.5v208q0 15 11 25.5t26 10.5h438q16 0 26.5 -10.5t10.5 -25.5v-208z" />
<glyph unicode="&#xe802;" horiz-adv-x="533" d="M52 193v-214q0 -15 9.5 -24.5t24.5 -9.5h410q15 0 24.5 9.5t9.5 24.5v214h-478zM52 344v-112h478v489q0 15 -9.5 24.5t-24.5 9.5h-410q-15 0 -24.5 -9.5t-9.5 -24.5v-212h-15q-14 0 -24 -9.5t-10 -23.5v-99q0 -14 10 -23.5t24 -9.5h15zM26 393v67q0 9 6.5 15.5t15.5 6.5 h4v-111h-4q-9 0 -15.5 6.5t-6.5 15.5z" />
<glyph unicode="&#xe803;" horiz-adv-x="733" d="M680 356q-17 -19 -123 -89.5t-97 30.5q7 29 5 45q40 -5 85.5 12t88.5 66q63 77 50.5 139.5t-57.5 97.5q-46 39 -128.5 52.5t-143.5 -50.5q19 -17 90.5 -121.5t-29.5 -94.5q-30 6 -46 4q5 40 -12.5 84.5t-66.5 87.5q-78 62 -141.5 49.5t-98.5 -56.5q-39 -46 -53 -127 t51 -141q17 19 123 89.5t96 -30.5q-6 -28 -5 -45q-40 5 -85 -12t-89 -66q-62 -77 -49.5 -139.5t57.5 -97.5q46 -39 128 -52.5t143 50.5q-19 17 -90 121.5t30 94.5q28 -6 46 -4q-5 -40 12 -84.5t66 -87.5q78 -62 141.5 -49.5t98.5 56.5q39 46 53 127t-50 141zM369 289 q-26 1 -43 18t-17 42.5t17 42.5t43 17t43 -17t17 -42.5t-17 -42.5t-43 -18zM369 367q-8 0 -13 -5t-5 -12.5t5 -12.5t13 -5t13 5t5 12.5t-5 12.5t-13 5z" />
<glyph unicode="&#xe804;" horiz-adv-x="833" d="M791 690q-31 36 -65.5 49.5t-54.5 12.5q-11 1 -14 -5q-2 -1 -2 -3q-1 -6 3.5 -9t11.5 -5q16 -4 44 -17t52.5 -43t31.5 -60t8 -45q1 -8 2.5 -12.5t6.5 -5.5h1q5 -1 9 6q6 12 3 52t-37 85zM648 706q-8 1 -13 -5l-1 -3q-1 -6 3 -8.5t10 -4.5q13 -3 36 -14t43 -35.5t25.5 -48 t6.5 -36.5q0 -6 1.5 -10.5t6.5 -5.5h2q6 1 8 6q5 10 2.5 43t-30.5 70q-26 30 -55 41.5t-45 10.5zM637 656q-7 0 -12 -4l-1 -4q-1 -5 3 -7.5t8 -3.5q9 -3 25 -10.5t30 -24.5t18.5 -34t4.5 -26q1 -4 2 -8.5t6 -5.5h1q6 1 9 6q4 7 2 32t-23 52q-19 22 -40 30t-33 8zM381 252 q4 -21 -1 -40t-20 -33q-27 -24 -66.5 -17t-72 41.5t-36 74t21.5 64.5q16 14 37.5 17t44.5 -4l147 128q-93 79 -192.5 95t-170.5 -40q-65 -57 -69 -150.5t51 -194.5q-3 -2 -6 -5q-36 -40 -28.5 -95t55.5 -98.5t103.5 -46t93.5 34.5q3 4 5 7q69 -29 134 -25t113 43 q69 61 68.5 163.5t-67.5 207.5zM530 583q-18 -16 -24.5 -38.5t-0.5 -44.5l-239 -209q-11 -10 -12 -24t9 -25.5t24.5 -12.5t26.5 9l239 208q22 -9 45.5 -5.5t41.5 19.5q26 24 28 56.5t-20 59.5q-24 26 -57.5 27.5t-60.5 -20.5z" />
<glyph unicode="&#xe805;" horiz-adv-x="1067" d="M969 427q-24 -5 -47 -20q-5 31 -31.5 48t-63.5 19q-54 2 -105 -13l-23 -7q-17 -6 -23 -8q72 12 111.5 8.5t49.5 -6.5q14 -2 30 -13t19 -28q1 -7 0 -17t-3 -15l30 -15q27 28 69.5 42.5t83.5 -11.5l1 1q-30 24 -52.5 32t-45.5 3zM702 238q-77 -1 -142.5 -27t-113.5 -72 q-52 77 -78 151t-36 130q-5 27 -7 43l-2 15q62 -17 114.5 -68.5t55.5 -58.5q32 81 -44.5 124.5t-90.5 43.5q72 47 155 28t90 -26q-64 115 -157.5 97t-103.5 -30q80 94 159.5 96t85.5 -5q-104 68 -181 37.5t-91 -84.5q-43 138 -116.5 126.5t-81.5 -23.5q65 -11 97.5 -59.5 t32.5 -55.5q-131 84 -189.5 50t-57.5 -46q122 3 179 -27t56 -35q-146 -4 -171 -74t-18 -80q37 49 118 76t91 27q-102 -108 -75.5 -170.5t38.5 -63.5q-4 83 32 146.5t42 66.5l1 -1q-3 -24 4 -69q11 -64 38 -145.5t64 -157.5q-21 4 -33 4h-12q-89 -2 -148 -52.5t-61 -127.5 h901q-4 126 -101 210t-243 87z" />
<glyph unicode="&#xe806;" horiz-adv-x="483" d="M385 532h-284l-46 -189h367zM354 761l-92 -203h45l73 164h101v39h-127zM3 252h48l40 -313h284l50 313h48v59h-470v-59z" />
<glyph unicode="&#xe807;" horiz-adv-x="1000" d="M5 0q1 -25 18 -42t43 -18h868q26 1 43 18t18 42h-990zM873 261q-25 2 -46 -17q-17 18 -43 15q-21 4 -40 -14q-12 14 -37 15q-10 1 -21 -2.5t-20 -11.5q-1 -2 -4 -1q-9 10 -20 13t-24 3q-25 0 -40 -19q-21 22 -47 19.5t-41.5 -17t-17.5 -44.5q3 -29 18.5 -42.5t40.5 -16.5 q26 2 45 19q20 -18 46.5 -19t40.5 15q12 -15 41.5 -14.5t43.5 14.5q16 -16 41 -16q24 4 40 15q21 -17 47 -15q58 14 53 67q-4 28 -18.5 40.5t-37.5 13.5zM472 76q0 -13 11 -22.5t27 -9.5h382q15 0 26 9.5t11 22.5v35h-457v-35zM471 326v-36h459v36l1 6q-2 38 -67 63.5 t-163 25.5t-163 -25.5t-67 -63.5v-6zM361 561h-247l-41 -165h319zM356 726h88v34h-110l-80 -177h39zM105 44h247l43 273h42v51h-409v-51h42z" />
<glyph unicode="&#xe808;" horiz-adv-x="733" d="M713 576q-2 9 -9 9h-7q0 20 -1 40t-3 28q-4 17 -14 41l-12 27l-19 -8l11 -23q9 -21 13 -35q2 -8 3 -28.5t1 -41.5l-5 -1q-5 0 -8 -7l-7 -15q-5 -10 -6 -17v-7q-17 -6 -27.5 -19.5t-10.5 -31.5q0 -21 13.5 -36t34.5 -18v-6q-1 0 1.5 -3.5t14.5 -3.5v-207q-1 -51 -34 -85 t-83 -38v635q0 14 -10 24t-25 10h-413q-15 0 -25 -10t-10 -24v-716h-34q-2 1 -17.5 -4.5t-17.5 -29.5v-34h621v34q1 2 -4.5 17t-30.5 17h-34v53q62 4 103 46.5t43 104.5v207h5q6 2 6 8v48q10 6 10 16v53q-1 7 -6 17zM660 448q-15 3 -24.5 13.5t-9.5 25.5q0 12 6.5 21 t17.5 14v-30q1 -11 10 -16v-28zM490 498q0 -15 -10 -24.5t-24 -9.5h-276q-15 0 -25 9.5t-10 24.5v159q0 14 10 24t25 10h275q15 0 25 -10t10 -24v-159z" />
<glyph unicode="&#xe809;" horiz-adv-x="950" d="M108 323q4 -155 108.5 -258.5t261.5 -107.5q158 4 262.5 107.5t108.5 258.5q-4 155 -108.5 258.5t-262.5 107.5q-157 -4 -261.5 -107.5t-108.5 -258.5zM207 323q3 114 79.5 189.5t191.5 78.5q115 -3 192 -78.5t80 -189.5q-3 -114 -80 -189.5t-192 -78.5 q-115 3 -191.5 78.5t-79.5 189.5zM478 568q105 -3 175 -72t73 -173q-3 -104 -73 -173t-175 -72q-105 3 -174.5 72t-72.5 173q3 104 72.5 173t174.5 72zM28 737h7l-19 -195q1 -5 7 -6q3 0 7 2t4 4l15 195h6l-4 -195q0 -2 4 -4t7 -2t6.5 2t3.5 4l-3 195h6l15 -195q0 -2 3.5 -4 t6.5 -2q7 1 7 6l-18 195h6q3 -11 18.5 -106.5t1.5 -139.5l-28 -48q-11 -17 -11 -58q-1 -14 1 -152.5t13 -233.5q2 -3 1 -26.5t-29 -26.5q-29 3 -29.5 26.5t1.5 26.5q10 95 12 233.5t2 152.5q0 41 -11 58l-28 48q-15 44 0.5 139.5t18.5 106.5zM887 362q-5 30 -19 217t22 168 q72 -108 57 -238t-23 -142q-1 -13 -5 -146t8 -224q3 -3 3 -25.5t-36 -25.5q-36 3 -36 25.5t3 25.5q13 90 19.5 221t6.5 144z" />
<glyph unicode="&#xe80a;" horiz-adv-x="733" d="M197 533q59 -10 80.5 8t21.5 35q0 31 -15 49t-29 41q-20 46 17.5 69t78.5 11q-22 13 -51.5 12.5t-59.5 -14.5q-18 -9 -27 -28.5t-3 -41.5q9 -22 26 -39.5t27 -40.5q8 -23 -10 -42t-56 -19zM323 633q10 -27 30 -48t33 -48q9 -28 -12.5 -50.5t-67.5 -22.5q71 -12 97 10 t25 41q0 37 -17.5 59t-34.5 49q-24 55 21 82t94 14q-26 14 -61.5 13.5t-70.5 -16.5q-23 -11 -33.5 -34t-2.5 -49zM175 56h345q24 1 41.5 16t21.5 38q12 -2 26 -3q56 1 93.5 38t38.5 92q-1 55 -38.5 92t-93.5 38q-14 0 -26 -3q-4 23 -21.5 38t-41.5 16h-345q-27 -1 -45 -18.5 t-19 -43.5v-238q1 -26 19 -43.5t45 -18.5zM583 310q13 5 26 5q34 -1 56 -23t22 -55t-22 -55t-56 -23q-13 0 -26 5v146zM361 -58q154 1 255.5 18t105.5 38h-722q4 -21 106 -38t255 -18z" />
<glyph unicode="&#xe80b;" horiz-adv-x="733" d="M536 421q-1 -87 -40 -151t-102 -86q7 -2 7 -8q-1 -8 -9 -9h-28q-9 -13 -11 -34t18 -43q31 -32 24.5 -65t-23.5 -50q-3 -4 -7.5 -4t-8 2.5t-3.5 7t2 7.5v0q5 3 16.5 30t-15.5 57q-22 23 -24 47.5t8 44.5h-25q-8 1 -9 9q0 4 3 7q-64 20 -104 84.5t-41 153.5q2 104 54.5 173 t131.5 72q79 -3 131.5 -72t54.5 -173zM612 333q10 1 10 9q52 15 85.5 67t34.5 125q-2 82 -44 137.5t-106 57.5q-33 0 -61.5 -17.5t-49.5 -47.5q47 -39 75 -101.5t29 -138.5q0 -43 -10 -84q-13 -20 -14.5 -48.5t24.5 -55.5q26 -30 15 -57t-16 -30v0q-3 -3 -2.5 -7.5t4 -7.5 t8 -2.5t6.5 3.5q17 18 24 50.5t-24 65.5q-22 23 -18 46t13 36h17zM121 400q-8 30 -8 61q0 55 20.5 99.5t54.5 72.5q-15 22 -35.5 34.5t-44.5 12.5q-46 -2 -76.5 -41.5t-31.5 -98.5q1 -52 25 -89.5t62 -48.5q1 -6 6 -7h13q6 -9 9 -25.5t-12 -32.5q-22 -23 -17.5 -47t16.5 -36 q6 -6 11 -1.5t0 10.5v0q-3 3 -11 22t11 41q19 19 18 39.5t-10 34.5z" />
<glyph unicode="&#xe80c;" horiz-adv-x="850" d="M839 578q-4 6 -10.5 2.5t-4.5 -10.5q9 -18 9 -36t-9 -31q-14 -21 -46 -20q-17 2 -33 16q5 14 7 28t0 25q-7 24 -27 24q-25 0 -26 -25q-1 -12 6.5 -27t20.5 -29q-6 -13 -14.5 -23t-17.5 -15q-33 102 -113 139.5t-158 35.5q-74 -1 -118 -14.5t-65 -28.5q0 4 -32.5 14.5 t-91.5 -14.5q3 1 23 -11t20 -45q-5 -8 -53 -52t-85 -27q-21 -36 -20.5 -65t8.5 -48q12 -27 45 -42t67 -20q17 -59 63 -88.5t52 -29.5l-19 -93h132l15 80h132l10 -80h138l-48 127q9 1 63 65t39 181q2 0 2 1q12 5 21.5 16t16.5 25q18 -15 39 -16q42 -2 61 27q11 17 11.5 39.5 t-10.5 44.5zM180 452q-9 0 -15 6t-6 14.5t6 14.5t14.5 6t14.5 -6t6 -14.5t-6 -14.5t-14 -6zM554 523q-111 46 -180.5 29.5t-72.5 -22.5l-18 35q6 9 84 28t202 -33zM732 513q-8 10 -12.5 20t-4.5 18.5t10 8.5q2 0 5 -1.5t5 -9.5q4 -16 -3 -36z" />
<glyph unicode="&#xe80d;" horiz-adv-x="733" d="M367 664l-363 -314h91v-313h226v179h91v-179h227v313h90zM367 341q-32 1 -53 22t-21 53t21 52.5t53 20.5t53 -20.5t21 -52.5t-21 -53t-53 -22z" />
<glyph unicode="&#xe80e;" horiz-adv-x="767" d="M345 367l-8 -5l-5 -3q-1 0 -2 -0.5t-2.5 -1.5t-4.5 -1q-6 -2 -11 -2q-7 3 -23.5 11t-34.5 13q-40 9 -82 1.5t-81 -33.5q-67 -48 -85 -118.5t22 -131.5q43 -59 116 -68.5t143 35.5q43 30 66 71.5t24 86.5q0 13 -0.5 25t0.5 20q0 4 4 8q2 3 6 6q6 6 11 9zM693 541 q-49 69 -95 105.5t-69 23.5h-1q-4 -4 -4 -10q2 -26 -2 -88t-87 -142l-59 -44l52 -78l43 24l24 12q105 47 165 28t84 -30q5 -3 10 0q1 1 2 1q20 16 2 72t-65 126z" />
<glyph unicode="&#xe80f;" horiz-adv-x="867" d="M736 137q14 13 23 31t9 39q-1 41 -28.5 67.5t-69.5 26.5t-69.5 -26.5t-28.5 -67.5q0 -21 9 -39t24 -32q-31 -7 -57 -24q15 -31 24.5 -71t9.5 -90h284q-1 86 -36.5 130t-93.5 56zM346 200q20 18 32 42t12 52q-1 54 -38.5 90t-93.5 37q-55 -1 -92.5 -37t-38.5 -90 q0 -29 12 -53t33 -42q-76 -17 -123 -76t-48 -172h520q-1 114 -49 173.5t-126 75.5zM569 452q11 -50 50.5 -77.5t89.5 -20.5l52 -40l6 67q24 20 35.5 49t5.5 62q-10 50 -49.5 77.5t-90.5 20.5q-51 -10 -78.5 -49t-20.5 -89zM659 642q11 1 21 1q-18 45 -60 74 q-63 42 -132.5 30t-114.5 -72q-42 -62 -29.5 -130.5t72.5 -112.5l12 -94l76 63q14 -1 27 0q-9 20 -14 42q-10 72 30 128.5t112 70.5z" />
<glyph unicode="&#xe810;" horiz-adv-x="633" d="M418 314q24 21 38 49.5t14 62.5q-2 64 -46 106.5t-110 44.5q-66 -2 -110 -44.5t-46 -106.5q0 -34 14 -63t39 -50q-91 -21 -146.5 -91t-57.5 -205h619q-2 136 -59 206.5t-149 90.5zM40 370q-2 -1 5 -12.5t43 -23.5q11 -2 18 6t7 19v127q0 9 -5 16t-13 9q28 68 86.5 109 t135.5 42q76 -1 135 -42t86 -109q-8 -2 -13 -9t-5 -16v-127q0 -11 7.5 -19t18.5 -6q36 12 43 23.5t5 12.5v106q1 1 -3 10.5t-30 20.5q-27 78 -92.5 126.5t-151.5 49.5q-87 -1 -152 -49.5t-93 -126.5q-25 -11 -29 -20.5t-3 -10.5v-106z" />
<glyph unicode="&#xe811;" horiz-adv-x="850" d="M155 213l132 195h-132l154 222l-308 -323h131l-131 -195h95v-49h70v49h51l70 101h-132zM476 258h132l-132 195h132l-183 271l-183 -271h132l-132 -195h132l-40 -60l-92 -135h147v-87h73v87h146l-92 135zM718 307h131l-308 323l154 -222h-131l131 -195h-131l69 -101h51 v-49h70v49h95z" />
<glyph unicode="&#xe812;" horiz-adv-x="1000" d="M999 115q-1 86 -36.5 130t-93.5 56q15 14 23.5 32t8.5 38q-1 41 -28 67.5t-69 26.5t-70 -26.5t-29 -67.5q0 -21 9 -39t25 -32q-16 -3 -30 -9q-23 28 -54.5 46.5t-68.5 26.5q20 18 31.5 42t11.5 52q-1 54 -38.5 90t-92.5 37q-56 -1 -93.5 -37t-38.5 -90q0 -28 12 -52.5 t33 -42.5q-36 -8 -66.5 -26t-52.5 -46q-15 6 -30 9q15 14 24 32t9 39q-1 41 -28.5 67.5t-69.5 26.5t-69.5 -26.5t-28.5 -67.5q0 -20 8.5 -38t23.5 -32q-58 -12 -93.5 -56t-36.5 -130h998z" />
<glyph unicode="&#xe813;" horiz-adv-x="533" d="M225 7q1 -39 1 -63v-25q-2 -4 3.5 -34.5t43.5 -34.5h206q39 4 44.5 34.5t3.5 34.5v88h-302zM527 305q-3 41 -24 77.5t-47 78.5q-25 44 -36.5 98.5t-11.5 101.5q1 21 10.5 28t10.5 6q11 7 11.5 59.5t-0.5 70.5t-11 22t-11 3h-83q-1 1 -11 -3t-11 -22t-0.5 -70.5 t10.5 -59.5q1 1 11 -6t11 -28q0 -47 -11.5 -101.5t-36.5 -98.5q-27 -42 -47.5 -78.5t-23.5 -77.5q-1 -10 -1 -32v-50h303zM173 223h-151q-7 -9 -16 -93t68 -138q4 -8 10 -64.5t-35 -64.5q-14 0 -21.5 -4t-10.5 -9h161q-3 5 -10.5 9t-21.5 4q-40 8 -34.5 64.5t9.5 64.5 q77 54 68 138t-16 93zM71 111q-6 3 -12 5q-21 5 -31 -1q0 27 3.5 49.5t7.5 36.5h117q3 -11 6.5 -28.5t4.5 -38.5v-8q-20 -18 -45.5 -22t-50.5 7z" />
<glyph unicode="&#xe814;" horiz-adv-x="650" d="M615 713q-8 12 -19 25t-23 12h-1q-8 -3 -14 -6l-5 -3l-401 -203v0q-9 -5 -12 -13t-1 -14v-2l-54 -25q-7 -4 -4 -17l-49 -23q-5 8 -17 2q-10 -5 -8 -21q3 -12 7.5 -21t8.5 -13t9.5 -6.5t11 -0.5t8.5 5.5t1 8.5q1 0 1 1l49 24q8 -8 14 -6l53 25l3 -3q10 -11 18.5 -9t9 2.5 l0.5 0.5l2 1l67 28q5 -13 16 -21v-16h-23q-7 -1 -8 -8v-19q1 -6 8 -7h24l-145 -421q-3 -8 0 -12.5t9 -6.5q12 -5 18 10l7 19l53 153h168q3 0 6 1l52 -151v0l3 -7l6 -17l1 -1l1 -1q1 -3 4 -3v-1h2h1h3h1h3v1h2q13 4 8 19l-145 418h18q8 1 8 7v19q0 8 -8 8h-26v17q17 13 18 36 q0 9 -4 18l91 38v-1l3 2l181 75l1 1q8 4 11.5 9t4.5 9q2 18 -8.5 44t-19.5 40zM237 157l79 229l79 -229h-158z" />
<glyph unicode="&#xe815;" horiz-adv-x="617" d="M609 242l-144 298q-10 23 -32 36t-50 8.5t-41.5 -23t-12.5 -44.5l3 -25q-12 -2 -23.5 -2t-23.5 2l3 25q1 26 -12.5 44.5t-42 23t-50 -8.5t-31.5 -36l-144 -298q-3 -12 -4 -24q2 -44 38 -73.5t89 -30.5q53 1 89 30.5t37 73.5l7 68q20 -9 44 -9t45 9l7 -68q2 -44 38 -73.5 t88 -30.5q53 1 89 30.5t37 73.5q0 12 -3 24zM131 140q-40 1 -67 23t-27 55t27 55t67 22t66.5 -22t26.5 -55t-26.5 -55t-66.5 -23zM486 140q-40 1 -67 23t-27 55t27 55t67 22t67 -22t27 -55t-27 -55t-67 -23z" />
<glyph unicode="&#xe816;" horiz-adv-x="783" d="M221 583q-10 10 -23 10t-23 -10q-22 -21 -32.5 -48t-10.5 -55t10.5 -55t32.5 -48q10 -9 22.5 -9t22.5 9.5t10 22t-9 22.5q-25 25 -25 58t25 58q9 10 9 23t-9 22zM389 339q-21 0 -40 6v-301h80v301q-20 -6 -40 -6v0zM67 480q0 33 12.5 64.5t38.5 57.5q9 9 9 22t-9.5 22.5 t-22.5 9.5t-23 -9q-35 -35 -52.5 -78t-17.5 -89t17.5 -89t52.5 -77q9 -10 22 -10t23 9.5t10 22.5t-9 23q-26 25 -38.5 56.5t-12.5 64.5zM389 573q-38 0 -67 -28.5t-29 -66t28 -67.5q30 -27 68 -27q18 0 35.5 7t31.5 20q28 30 28 67t-28 67q-14 14 -31.5 21t-35.5 7zM563 583 q-10 -9 -10 -22t10 -23q24 -25 24 -58t-24 -58q-10 -10 -10 -22.5t9.5 -22t23 -9.5t22.5 9q22 21 33 48t11 55t-11 55t-33 48q-10 10 -22.5 10t-22.5 -10zM712 647q-10 9 -23 9t-23 -9.5t-10 -22.5t10 -22v0q26 -26 38.5 -57.5t12.5 -64.5t-12.5 -64.5t-38.5 -56.5 q-10 -10 -10 -23t9.5 -22.5t22.5 -9.5t24 9q35 35 52 78.5t17 89t-17 88.5t-52 78z" />
<glyph unicode="&#xe817;" horiz-adv-x="617" d="M605 389q8 13 6 26q0 5 -2 10q-12 25 -47.5 49.5t-57.5 34t-47 16.5t-40 -5l-0.5 -0.5l-0.5 -0.5q-9 -10 -13 -18l-4 -9h1l-56 -105l-73 36l57 111v0l3.5 5t8.5 19v1l1 5q3 18 -19 34.5t-42.5 28.5t-61 26.5t-68.5 10.5q-18 -6 -24 -20.5t-6 -15.5v-1l-110 -321v-2h-1 q-2 -1 -4 -16.5t17 -28.5q0 -1 2 -1.5t3 -2.5q20 -10 43 -21l-34 -83q-2 -6 1 -12t9 -11t17.5 -9t21.5 -5q16 -2 22 8l37 90q20 2 29 22v0l18 35q2 0 3 -2l68 -33l-20 -39h-1q-5 -9 -5 -18.5t4 -17.5l-46 -79q-4 -12 6 -24q7 -8 17.5 -13t19 -7t15.5 -0.5t10 6.5l40 70 q19 -12 37 -21l3 -2q6 -3 12 -4q21 -4 30 5t9 11l1 3l203 274q2 2 7 10z" />
<glyph unicode="&#xe818;" horiz-adv-x="500" d="M457 550q-40 38 -93 38t-93 -38q-29 -29 -36.5 -67t7.5 -74l-234 -231l-3 -53l12 -13l76 6l28 28l-15 16l28 28l9 -9q2 0 13.5 8t14.5 20.5t2 33.5l-1 22l82 6l65 65q36 -13 73 -5.5t65 35.5q38 40 38 92t-38 92zM438 485q-10 -10 -23.5 -10t-23.5 10t-10 23t10 23 t23.5 10t24 -10t10.5 -23t-11 -23z" />
<glyph unicode="&#xe819;" horiz-adv-x="400" d="M81 704l-17 -3q-9 -2 -15.5 -9t-7.5 -16l-40 -362q-1 -9 4.5 -16.5t13.5 -10.5l13 -3q9 -3 15 -10.5t6 -16.5v-250q0 -8 6 -14t15 -6h7q9 0 15 6t6 14v680q0 8 -6 13t-15 4zM387 711q-5 0 -9 -3.5t-4 -8.5v-144q1 -2 -2.5 -18.5t-24.5 -18.5q-2 -2 -14.5 2t-14.5 32v147 q0 6 -4.5 10t-10.5 4t-10.5 -4t-4.5 -10v-142q-1 -31 -14 -36t-15 -3q-17 1 -22.5 12t-5.5 20v149q0 5 -3.5 8.5t-8.5 3.5t-8.5 -3.5t-3.5 -8.5v-173q1 -28 21 -48.5t51 -27.5v-443q0 -8 6 -14t15 -6h8q9 0 15 6t6 14v444q31 7 50 27.5t20 47.5v173q0 5 -3.5 8.5t-8.5 3.5z " />
<glyph unicode="&#xe81a;" horiz-adv-x="817" d="M811 560q0 9 -10 15l1 -1l-61 41h-1q-6 3 -15 5t-16 2h-232q-11 0 -18 -6t-7 -14v-30h-14v77q0 15 -9 25t-22 10t-22.5 -10t-9.5 -25v-77h-8v-25h8v-72h-11v30q0 8 -7 14t-18 6h-231q-8 0 -16.5 -2t-14.5 -5h-1l-61 -41l1 1q-9 -6 -9.5 -15.5t10.5 -14.5l-1 1l60 -38 l1 -1q6 -2 14.5 -4t16.5 -2h232q10 0 17 6t7 14v26h11v-78h-8v-25h8v-282q-118 -3 -165 -17.5t-45 -31.5h487q2 17 -46 32t-168 18v281h10v-30q0 -8 7 -14t18 -6h231q8 0 17 2t15 5l61 38h-1q10 5 10.5 14.5t-10.5 14.5l1 -1l-61 41q-6 3 -15 5.5t-17 2.5h-231q-11 0 -18 -6 t-7 -15v-26h-10v78h9v25h-9v72h14v-26q0 -8 7 -14t18 -6h232q7 0 16 2t15 5h1l60 38l-1 -1q11 6 11 15z" />
<glyph unicode="&#xe81b;" horiz-adv-x="783" d="M377 320q0 -11 -7 -18t-17.5 -7t-18 7t-7.5 18t7.5 18t18.5 7q8 -1 15 -6l215 209q-47 30 -102 24.5t-97 -46.5l-42 -42l-42 42q-49 47 -112.5 47t-112.5 -47q-52 -55 -52 -127.5t52 -127.5q0 -1 27 -30.5t85 -77.5l-143 -138l-10 10l-34 -68l65 37l-9 9l144 140 q55 -44 142 -95q141 86 204 148t62 65h2q52 55 52 127.5t-52 127.5l-13 12l-220 -213v-5zM747 627l-2 15l-50 -7l19 18l69 10l-2 14l-50 -7l34 33l-12 12l-33 -33l7 49l-15 2l-10 -69l-18 -18l7 49l-15 2l-10 -68l-14 -14l7 49l-14 2l-10 -68l-52 -50q7 -4 14 -10l49 48 l70 10l-2 15l-50 -7l14 13z" />
<glyph unicode="&#xe81c;" d="M744 625h-687q-21 -1 -35 -14.5t-15 -34.5v-452q1 -21 15 -34.5t35 -14.5h687q21 1 34.5 14.5t14.5 34.5v452q-1 21 -14.5 34.5t-34.5 14.5zM142 474q-14 12 -15 32q0 18 12.5 29.5t30.5 11.5t30.5 -12t12.5 -29q0 -20 -14 -31q25 -6 41 -25.5t16 -56.5h-170 q0 37 15.5 56t40.5 25zM715 172h-629v41h629v-41zM715 246h-629v41h629v-41zM715 319h-629v41h629v-41zM715 393h-398v41h398v-41zM715 467h-398v41h398v-41z" />
<glyph unicode="&#xe81d;" horiz-adv-x="1067" d="M274 521h-114q-7 0 -12 -4.5t-5 -12.5v-308q0 -8 5 -12.5t12 -4.5h114q16 1 17 17v308q-1 16 -17 17zM759 327v46h-451v-46h451zM46 462v-89h-19q-10 0 -17 -6.5t-7 -16.5t7 -16.5t17 -6.5h19v-89q1 -16 17 -17h63v258h-63q-16 -1 -17 -17zM1040 373h-19v89q-1 16 -17 17 h-63v-258h63q16 1 17 17v89h19q10 0 17 6.5t7 16.5t-7 16.5t-17 6.5zM907 521h-114q-16 -1 -17 -17v-308q1 -16 17 -17h114q7 0 12 4.5t5 12.5v308q0 8 -5 12.5t-12 4.5z" />
<glyph unicode="&#xe81e;" horiz-adv-x="583" d="M576 387l-568 245l105 -493l140 75l76 -146l1 188l-316 366l372 -336z" />
<glyph unicode="&#xe81f;" horiz-adv-x="750" d="M638 185q11 -17 15 -37.5t0 -41.5q-3 -9 -10.5 -14t-17 -3t-14.5 10t-3 17q4 25 -9 45t-37 25q-9 3 -14 10.5t-3 16.5t9.5 14t17.5 4q21 -5 38 -17t28 -29zM717 235q-18 27 -45.5 46.5t-62.5 26.5q-9 2 -17 -3t-10 -14t3 -17t14 -10v0q26 -5 45.5 -19.5t33 -34.5t18 -44 t-0.5 -49q-2 -9 3 -16.5t15 -9.5t17 2.5t10 13.5q7 35 0.5 67.5t-23.5 60.5zM489 180q-12 20 -33 25.5t-42 -5.5l-35 -19q-11 -6 -17 -16q-34 24 -70 60.5t-65 84.5q-27 49 -39.5 99t-15.5 91q12 0 23 6l35 20q20 11 26 32t-5 41l-79 140q-12 20 -33.5 25.5t-41.5 -4.5 l-51 -29q-44 -29 -38 -148.5t119 -327.5q122 -205 221.5 -272t147.5 -45l51 28q20 12 26 33t-5 41z" />
<glyph unicode="&#xe820;" horiz-adv-x="1050" d="M1040 159l-2 -26h-876q4 8 -21 92t-132 148q0 12 152.5 36t452.5 -85q7 7 -87.5 57.5t-369.5 57.5l36 80h24l11 28h34l8 20h202l343 -163l37 44h-18q-7 0 -7 7.5t7 8.5h99q8 -1 8 -8.5t-8 -7.5h-55l4 -75l9 -4l5 -14l14 -6l6 -14l18 -8l37 -81l34 -16q3 1 20 -13t15 -58z " />
<glyph unicode="&#xe821;" d="M629 204h40q12 0 20.5 8t8.5 20t-8.5 20.5t-20.5 8.5h-40v40q0 12 -8.5 20t-20.5 8t-20.5 -8t-8.5 -20v-40h-40q-12 0 -20.5 -8.5t-8.5 -20.5t8.5 -20t20.5 -8h40v-40q0 -12 8.5 -20t20.5 -8t20.5 8t8.5 20v40zM346 429h-146q-84 -2 -140 -57.5t-58 -139.5 q2 -83 58 -138.5t140 -57.5q52 1 94.5 24t69.5 62v0q13 19 36 19t36 -19v0q28 -39 70.5 -62t93.5 -24q85 2 140.5 57.5t57.5 138.5q-2 84 -57.5 139.5t-140.5 57.5h-186v78q-1 36 -25.5 60t-61.5 25q-23 0 -40.5 17.5t-17.5 40.5q-1 13 -14 13t-14 -13q0 -35 25.5 -59.5 t60.5 -25.5q25 -1 41.5 -17t17.5 -41v-78h-40zM114 186q-21 1 -34.5 14t-13.5 32.5t13.5 33t34 13.5t34 -13.5t13.5 -33t-13.5 -32.5t-33.5 -14zM200 271q-20 1 -33 14t-13 33t13 33.5t33 13.5t33.5 -13.5t13.5 -33.5t-13.5 -33t-33.5 -14zM287 279q20 0 33.5 -13.5 t13.5 -33.5t-13.5 -33t-33.5 -12.5t-33 13.5t-13 32.5t13 33t33 13.5zM200 100q-20 1 -33 14t-13 33t13 33.5t33 13.5t33.5 -13.5t13.5 -33.5t-13.5 -33t-33.5 -14zM600 103q-56 1 -93 37.5t-38 91.5q1 55 38.5 92t92.5 38q56 -1 93 -38t38 -92q-1 -55 -38 -91.5t-93 -37.5z " />
<glyph unicode="&#xe822;" horiz-adv-x="667" d="M240 431h-2l-191 14v-268q0 -18 12.5 -32.5t30.5 -18.5l232 -32v436l-31 -68q-5 -14 -19 -22.5t-32 -8.5zM56 588l-55 -105q-2 -8 3.5 -13t15.5 -5l220 -17q10 0 18.5 5t11.5 13l63 140h-247q-11 0 -19 -5t-11 -13zM427 431q-18 0 -32.5 8.5t-18.5 22.5l-31 68v-436 l232 32q18 4 30.5 18.5t12.5 32.5v268zM666 483l-55 105q-3 8 -11 13.5t-19 5.5h-248l64 -141q3 -8 11 -13t19 -5l220 17q10 0 15.5 5t3.5 13z" />
<glyph unicode="&#xe823;" horiz-adv-x="567" d="M444 569h-321q-15 0 -25.5 -11t-10.5 -26v-364q0 -15 10.5 -26t25.5 -11h321q15 0 25.5 11t10.5 26v364q0 15 -10.5 26t-25.5 11zM284 427q17 0 29 -7l-17 -15q-6 2 -12 2q-15 -1 -27 -9l-23 7q20 22 50 22zM218 352l23 -8q8 -17 24 -24l5 -24q-21 5 -35 20t-17 36z M325 309l-5 23q10 12 10 29l19 16q2 -7 2 -16q0 -16 -7 -29.5t-19 -22.5zM402 442l-87 -75l1 -6q-1 -15 -12 -24l24 -114q1 -6 -6 -8l-12 -3h-2l-4 1q-2 2 -3 5l-24 112q-9 2 -15.5 9t-8.5 16l-107 35q-3 1 -4 4t-1 6l4 11q2 5 7 5h3l105 -35q9 11 24 11q8 0 15 -4l84 74 q3 3 5.5 2.5t5.5 -2.5l8 -10q2 -2 2 -5t-2 -5zM529 647h-491q-16 0 -26.5 -10.5t-10.5 -25.5v-522q0 -15 10.5 -25.5t26.5 -10.5h491q15 0 26 10.5t11 25.5v522q0 15 -11 25.5t-26 10.5zM515 390q0 -10 -10 -11v1v-59v0q10 -1 10 -10v-118q0 -9 -10 -10v0v-15 q-1 -25 -18.5 -42.5t-42.5 -18.5h-321q-25 1 -42.5 18.5t-18.5 42.5v364q1 26 18.5 43t42.5 18h321q25 -1 42.5 -18t18.5 -43v-15v0q10 0 10 -10v-117z" />
<glyph unicode="&#xe824;" horiz-adv-x="933" d="M717 567l-213 63q-31 6 -48 -11t-17 -20q-5 1 -39.5 -18.5t-38.5 -68.5q-126 40 -206.5 58.5t-83.5 18.5q-85 -90 -62.5 -198t89.5 -172q37 -37 45 -64.5t3 -44.5l-110 -21q0 -9 6.5 -15t15.5 -6h850q9 0 15 6t6 15l-92 21l12 168q-103 73 -218 127.5t-224 91.5 q68 -16 169.5 -43.5t172.5 -58.5q3 5 10 47t-13 65q6 35 -10 48t-19 12zM110 471q-11 0 -18 7t-7 17t7 17t17.5 7t17.5 -7t7 -17t-7 -17t-17 -7z" />
<glyph unicode="&#xe825;" horiz-adv-x="1067" d="M135 173q20 15 45 24q31 10 66 10h6q38 -1 79 -14q19 -6 40 -15l5 -3l11 -4q9 -4 16 -7q35 -12 65 -14h9q27 0 51 10q13 6 23 15q3 2 4 3.5l1 1.5l8 8q9 9 19 16q37 25 83 31q14 2 29 2q23 0 47 -5q31 -6 65 -21q14 -5 29 -14l25 -12q30 -12 55 -16q15 -2 28 -2 q17 0 33 4q22 4 47 23q2 1 3 4q33 46 33 96.5t-3 54.5l-209 9h2l8 81q4 64 -28 91t-66 32l2 71h-20q-32 -1 -55 -24t-34 -44l-312 -3q-3 2 -29.5 -5.5t-34.5 -49.5l-24 -123l-251 11q0 -3 13 -44.5t39 -89.5q17 -28 37 -50t40 -38zM725 490q23 -1 37.5 -17t14 -38t-17 -36 t-39.5 -13t-38 16.5t-14 37.5t17 36t40 14zM563 497q23 -1 37.5 -17t13.5 -38t-17 -36t-39.5 -13t-38 16.5t-13.5 37.5t17 36t40 14zM414 503q23 -1 38 -16.5t14 -37.5t-17.5 -36t-39.5 -13.5t-38 16t-14 37.5t17.5 36.5t39.5 13.5zM556 87q-43 -22 -90 -20t-88 18 q-9 3 -19 7.5t-18 8.5q-15 8 -32 14q-31 12 -60 15t-52.5 -1.5t-39 -12t-24 -12.5t-10.5 -3.5t3 11t20 22.5t42.5 22.5t62.5 8.5t73 -12q18 -6 36 -15q10 -3 18 -7t17 -7q35 -12 72 -15t71 12q17 7 30 19q3 2 5 5q1 0 1 1l3 3q2 3 4 4q8 8 17 14q36 22 71.5 26.5t67.5 -2 t60 -19.5l27 -13q13 -7 28 -13q27 -12 60 -18t71.5 2.5t69.5 40.5q-14 -17 -32 -28t-37 -16q-38 -11 -72.5 -7t-64.5 15q-15 5 -28.5 11t-28.5 11q-27 10 -56.5 13.5t-59.5 -2.5t-56 -26l-14 -14l-2 -4q-5 -4 -8 -9q-16 -15 -38 -28z" />
<glyph unicode="&#xe826;" horiz-adv-x="550" d="M548 266q-1 16 -6 28l-9 25q-2 7 -11 9q-6 -15 -12 -32.5t-17 -32.5q-10 -11 -25 -23l-23 -13q-1 0 -3.5 -2t-2.5 -4t5 -3l7 -2q22 -4 43 -3q-4 -11 -9 -18t-13 -14q-10 -8 -16 -11q-12 -7 -25 -13l-12 -3q-14 -5 -31 -8l-20 -2q-11 1 -24 6.5t-18 14.5q-11 26 -11 61v22 q1 11 1 22q2 30 1.5 64t0.5 63q25 3 54 4t54 8q7 2 11.5 5.5t5.5 9t2 12.5q3 19 -8 28q-22 9 -49 12q-32 6 -68 7q-1 13 0 24.5t0 24.5q18 11 30 28t15 38l1 9v9q-3 29 -21 52l-13 13l-6 3q-22 16 -51 16q-38 -1 -64 -26.5t-27 -63.5q0 -27 13.5 -47.5t35.5 -32.5 q1 -12 1 -22.5t-1 -23.5q-21 -4 -45 -6t-45 -6l-14 -3q-7 -1 -12.5 -5t-7 -12t-1.5 -18v-9q1 -5 2 -8t4.5 -5.5t6.5 -4.5q14 -4 31 -3l43 -3q21 -2 40 -2q1 -34 1 -62l1 -62q1 -35 -6 -73l-6 -29q-3 -15 -13 -22q-7 -4 -16 -4t-20 1q-29 3 -53 10q-12 4 -23 9 q-14 9 -24 20.5t-16 25.5q11 -3 21 -2.5t21 2.5l6 2t2 4t-4 4l-6 2q-6 3 -13.5 8.5t-12.5 10.5q-13 11 -22 24q-14 23 -20 49l-2 9q0 5 -6 7q-5 -5 -7 -14q-5 -11 -9 -23.5t-5 -25.5q-1 -26 4 -51.5t14 -47.5l3 -6q2 -4 6 -4q4 6 2.5 14.5t2.5 14.5q6 -15 14 -28 q5 -7 11 -12q17 -18 38 -31.5t43 -24.5q16 -6 33.5 -10.5t32.5 -11.5q16 -13 30 -30l13 -17l14 -17q3 -3 7.5 -5.5t9.5 -1t9.5 5.5t7.5 9q8 11 12 20q13 21 31 34q24 15 54 22.5t57 19.5q18 8 32 19q12 13 19 28t12 32q4 -6 4 -14l1 -14q6 1 9.5 6t5.5 10q10 22 12 50z M310 589q-6 5 -16.5 6.5t-21.5 1.5t-20.5 -2.5t-13.5 -10.5q-9 11 -9 26q1 19 14 32t32 13t32 -13t13 -32q0 -14 -8 -25q0 1 -2 4z" />
<glyph unicode="&#xe827;" horiz-adv-x="1067" d="M1060 183l-181 31q17 114 -9.5 193.5t-31.5 83.5q-38 -72 -117 -114t-131 -56q38 116 164 171.5t142 55.5q-363 204 -537 31.5t-173 -214.5q99 18 191 -15t155 -76l-525 91q-3 -6 25 -87.5t120 -162.5q-2 -4 63 -34t216 -39h532q34 3 43 20.5t8 20.5l9 51q29 3 33.5 24.5 t3.5 24.5zM591 264q-4 23 -3 44q63 -11 114 -33t88 -46z" />
<glyph unicode="&#xe828;" horiz-adv-x="1017" d="M1008 464l-88 11q-10 -1 -11 -11v-20l-89 113q-1 2 -16 13.5t-42 19.5q-38 9 -103.5 17t-148.5 9h-1q-82 -1 -147 -9t-103 -17q-28 -8 -42.5 -19.5t-16.5 -14.5l-89 -112v20q0 5 -3 8t-7 3l-89 -11q-9 0 -10 -10v-41q1 -9 10 -10h61q-23 -16 -29.5 -32t-5.5 -17v-255 q0 -6 4.5 -10.5t10.5 -4.5h128q7 0 11.5 4.5t4.5 10.5v45h626v-45q0 -6 4.5 -10.5t11.5 -4.5h128q6 0 10.5 4.5t4.5 10.5v255q1 1 -5.5 17t-29.5 32h61q10 1 10 10v41q0 10 -10 10zM224 536q1 2 11.5 10t30.5 14q27 6 68.5 12t94.5 10q-1 -2 -1 -4v-10q0 -6 4.5 -10.5 t10.5 -4.5h134q6 0 10.5 4.5t4.5 10.5v10q0 2 -1 4q54 -4 95.5 -10t67.5 -12q20 -5 30.5 -13.5t10.5 -9.5l90 -112q-62 17 -158.5 32.5t-216.5 17.5v0q-120 -2 -216.5 -17.5t-157.5 -32.5zM244 238q-14 1 -23 8.5t-22 11.5q-10 2 -19 -2t-21 -5q-30 1 -49.5 20.5t-19.5 48.5 t19.5 48t49.5 20q19 0 35.5 -8t23.5 -24q2 -7 6.5 -17t20.5 -13q21 -2 33.5 -12t12.5 -29.5t-13.5 -32.5t-33.5 -14zM668 248h-316q-13 0 -22 9t-9 21.5t9 21.5t22 9h316q13 0 22 -9t9 -21.5t-9 -21.5t-22 -9zM861 251q-12 1 -20.5 5t-19.5 2q-13 -4 -22 -11.5t-23 -8.5 q-20 1 -33 14t-13.5 32.5t12.5 29.5t33 12q16 3 21 13t7 17q6 16 22.5 24t35.5 8q30 -1 49.5 -20t19.5 -48t-19.5 -48.5t-49.5 -20.5z" />
<glyph unicode="&#xe829;" horiz-adv-x="1033" d="M1016 465l-89 10q-4 0 -7 -3t-3 -7v-21l-90 113q-1 2 -16 14t-42 19q-38 9 -103.5 17t-148.5 10h-1q-82 -2 -147.5 -10t-104.5 -17q-27 -7 -42 -19t-16 -14l-89 -113v21q0 4 -3 7t-8 3l-88 -10q-5 0 -8 -3t-3 -7v-42q1 -9 11 -10h61q-23 -16 -30 -32t-6 -17v-255 q0 -7 4.5 -11.5t11.5 -4.5h128q7 0 11.5 4.5t4.5 11.5v45h628v-45q0 -7 4.5 -11.5t10.5 -4.5h128q7 0 11.5 4.5t4.5 11.5v255q1 1 -6 17t-30 32h62q10 1 10 10v42q0 9 -10 10zM176 251q-29 1 -48.5 20.5t-19.5 48.5t19.5 48t48.5 19t49 -19t20 -48t-19.5 -48.5t-49.5 -20.5z M256 193q-13 0 -21.5 8.5t-8.5 21t8.5 21t21 8.5t21 -8.5t8.5 -21t-8.5 -21t-20.5 -8.5zM516 475q-120 -2 -216.5 -17.5t-158.5 -32.5l90 112q0 1 10.5 9.5t30.5 13.5q27 7 68.5 13t94.5 9l-1 -4v-9q0 -7 4.5 -11.5t11.5 -4.5h134q6 0 10.5 4.5t4.5 11.5v9q0 3 -1 4 q53 -3 95 -9t69 -13q20 -5 30.5 -13.5t10.5 -9v-0.5l89 -112q-62 17 -158.5 32.5t-216.5 17.5h-1zM778 193q-12 0 -21 8.5t-9 21t9 21t21 8.5t21 -8.5t9 -21t-9 -21t-21 -8.5zM857 251q-29 1 -49 20.5t-20 48.5t20 48t49.5 19t49 -19t19.5 -48t-19.5 -48.5t-49.5 -20.5z" />
<glyph unicode="&#xe82a;" horiz-adv-x="1017" d="M1007 465l-89 10q-9 -1 -10 -10v-21l-90 113q-1 2 -16 13.5t-42 19.5q-38 9 -103 17t-148 9h-1q-83 -1 -148 -9t-103 -17q-28 -8 -42.5 -19.5t-16.5 -14.5l-89 -112v21q0 4 -3 7t-7 3l-89 -10q-4 0 -7 -3t-3 -8v-41q1 -9 10 -10h62q-23 -16 -30 -32t-6 -17v-255 q0 -6 4.5 -10.5t10.5 -4.5h128q7 0 11.5 4.5t4.5 10.5v45h627v-45q0 -6 4.5 -10.5t10.5 -4.5h128q7 0 11.5 4.5t4.5 10.5v255q1 1 -6 17t-30 32h62q9 1 10 10v42q0 4 -3 7t-7 3zM122 178q-12 0 -20.5 8.5t-8.5 20.5t8.5 21t21 9t21 -9t8.5 -21t-8.5 -20.5t-21.5 -8.5z M102 281q-18 3 -21.5 10.5t-2.5 8.5v30q-1 3 1.5 22t20.5 20l138 -20q5 2 38 -14.5t38 -71.5zM508 475q-120 -2 -216 -17.5t-158 -32.5l89 112q0 1 10.5 9t30.5 14q27 6 68.5 12t94.5 10q-1 -2 -1 -4v-10q0 -6 4.5 -10.5t11.5 -4.5h133q7 0 11.5 4.5t4.5 10.5v10l-1 4 q53 -4 94.5 -10t68.5 -12q19 -5 30 -13.5t11 -9v-0.5l89 -112q-62 17 -158 32.5t-216 17.5h-1zM894 178q-12 0 -20.5 8.5t-8.5 20.5t8.5 21t21 9t21 -9t8.5 -21t-8.5 -20.5t-21.5 -8.5zM939 330v-30q1 -1 -2.5 -8.5t-21.5 -10.5l-212 -15q5 55 38 71.5t38 14.5l138 20 q18 -1 20.5 -20t1.5 -22z" />
<glyph unicode="&#xe82b;" horiz-adv-x="1017" d="M1006 465l-88 10q-9 -1 -10 -10v-21l-90 113q-1 2 -16 13.5t-42 19.5q-38 9 -103.5 17t-148.5 9v0q-83 -1 -148 -9t-103 -17q-28 -8 -42.5 -19.5t-16.5 -14.5l-89 -112v20q0 5 -3 8t-7 3l-89 -11q-9 0 -10 -10v-41q1 -9 10 -10h62q-23 -16 -30 -32t-6 -17v-255 q0 -6 4.5 -10.5t10.5 -4.5h128q7 0 11.5 4.5t4.5 10.5v45h627v-45q0 -6 4.5 -10.5t10.5 -4.5h128q7 0 11.5 4.5t4.5 10.5v255q1 1 -6 17t-30 32h61q10 1 11 10v41q-1 10 -11 11zM223 537q0 1 10.5 9t30.5 14q27 6 68.5 12t94.5 10l-1 -4v-10q0 -6 4.5 -10.5t11.5 -4.5h133 q7 0 11.5 4.5t4.5 10.5v10l-1 4q53 -4 94.5 -10t68.5 -12q19 -5 30 -14l11 -9v0l89 -112q-62 17 -158 32.5t-216 17.5h-1q-120 -2 -216 -17.5t-158 -32.5zM169 251q-30 1 -49.5 20.5t-19.5 48.5t19.5 48t49 19t49 -19t19.5 -48t-19.5 -48.5t-48.5 -20.5zM677 251h-338 q-20 1 -33 14t-13 32t13 32t33 14h339q19 -1 32 -14t13.5 -32t-13 -32t-33.5 -14zM848 251q-29 1 -49 20.5t-20 48.5t20 48t49 19t49 -19t20 -48t-20 -48.5t-49 -20.5z" />
<glyph unicode="&#xe82c;" horiz-adv-x="1017" d="M975 -12h-45v450h-38v99h-45v97h-33l-14 120l-14 -120h-33v-97h-46v-99h-37v-450h-44v450h-234v314h-315v-764h-35q-18 0 -30 -12t-12 -30h1017q0 18 -12 30t-30 12zM255 676h56v-56h-56v56zM255 587h56v-56h-56v56zM255 497h56v-56h-56v56zM255 404h55v-56h-55v56z M255 314h55v-56h-55v56zM255 224h55v-56h-55v56zM157 676h57v-56h-57v56zM157 587h57v-56h-57v56zM157 497h57v-56h-57v56zM157 404h57v-56h-57v56zM157 314h57v-56h-57v56zM157 224h57v-56h-57v56zM447 93h-55v56h55v-56zM447 183h-55v56h55v-56zM447 273h-55v56h55v-56z M545 93h-57v56h57v-56zM545 183h-57v56h57v-56zM545 273h-57v56h57v-56zM779 135h-56v56h56v-56zM779 225h-56v56h56v-56zM779 315h-56v56h56v-56zM877 135h-57v56h57v-56zM877 225h-57v56h57v-56zM877 315h-57v56h57v-56z" />
<glyph unicode="&#xe82d;" d="M756 -13h-45v451h-38v100h-46v97h-33l-14 120l-14 -120h-33v-97h-46v-100h-37v-451h-44v768h-317v-768h-45q-18 0 -30 -12t-12 -30h796q0 18 -12 30t-30 12zM601 371h57v-56h-57v56zM601 281h57v-56h-57v56zM601 191h57v-56h-57v56zM503 371h57v-56h-57v56zM503 281h57 v-56h-57v56zM503 191h57v-56h-57v56zM268 679h57v-56h-57v56zM268 589h57v-57h-57v57zM268 498h57v-56h-57v56zM268 405h57v-56h-57v56zM268 315h57v-56h-57v56zM268 225h57v-56h-57v56zM170 679h57v-56h-57v56zM170 589h57v-57h-57v57zM170 498h57v-56h-57v56zM170 405h57 v-56h-57v56zM170 315h57v-56h-57v56zM170 225h57v-56h-57v56z" />
<glyph unicode="&#xe82e;" horiz-adv-x="817" d="M248 -115q2 57 18.5 80.5t18.5 22.5l74 58l-25 229l-334 -110q5 60 36.5 90.5t35.5 30.5l262 173v56q-1 19 14 150t60 150q45 -19 60.5 -150t14.5 -150v-56l262 -173q5 0 36.5 -30.5t35.5 -90.5l-334 110l-25 -229l73 -58q2 1 19 -22.5t19 -80.5l-161 73z" />
<glyph unicode="&#xe82f;" horiz-adv-x="817" d="M569 815q-2 -57 -19 -80.5t-19 -22.5l-73 -58l25 -229l334 110q-4 -60 -35.5 -90.5t-36.5 -30.5l-262 -173v-56q1 -19 -14.5 -150t-60.5 -150q-45 19 -60 150t-14 150v56l-262 173q-4 0 -35.5 30.5t-36.5 90.5l334 -110l25 229l-74 58q-2 -1 -18.5 22.5t-18.5 80.5 l160 -73z" />
<glyph unicode="&#xe830;" horiz-adv-x="1000" d="M1000 399l-83 -175v0q-9 -18 -27 -29q-14 -8 -32 -8h-584q-119 1 -195 18.5t-79 45.5q4 27 83.5 45t190.5 19h163l185 162q0 2 30 18.5t91 18.5l-111 -199h221l66 60q-1 2 17 12.5t64 11.5z" />
<glyph unicode="&#xe831;" horiz-adv-x="1000" d="M82 375l65 -60h221l-110 199q60 -2 90.5 -18.5t30.5 -18.5l184 -162h163q111 -1 190.5 -19t83.5 -45q-2 -28 -78 -45.5t-196 -18.5h-584q-18 0 -33 8q-17 11 -25 29h-1l-83 175q46 -1 64.5 -11.5t17.5 -12.5z" />
<glyph unicode="&#xe832;" horiz-adv-x="517" d="M465 566h-105v239h5q9 0 15.5 6.5t6.5 16t-6.5 16t-15.5 6.5h-213q-10 0 -16.5 -6.5t-6.5 -16t6.5 -16t16.5 -6.5h5q-1 -3 -1 -7v-232h-104q-21 -1 -35 -14.5t-15 -34.5v-578q1 -20 15 -33.5t35 -14.5h26v-23q0 -8 5 -13t13 -5h53q8 0 13 5t5 13v23h182v-23q0 -8 5.5 -13 t13.5 -5h53q8 0 13 5t5 13v23h26q21 1 34.5 14.5t14.5 33.5v578q-1 21 -14.5 34.5t-34.5 14.5zM69 -67q-14 0 -23 9t-9 23v57l89 -89h-57zM37 442v57q0 13 9 22.5t23 9.5h57zM329 566h-142v232q0 1 2 7h139q2 -3 2 -7v-232h-1zM480 -35q0 -14 -9 -23t-23 -9h-57l89 88v-56z M480 442l-89 89h57q14 0 23 -9.5t9 -22.5v-57z" />
<glyph unicode="&#xe833;" d="M731 545h-130v27q-2 49 -32.5 74t-68.5 25h-200q-49 -2 -74.5 -31.5t-25.5 -67.5v-27h-131q-28 -1 -47 -19.5t-20 -46.5v-127q106 -30 320.5 -46.5t475.5 45.5v128q-1 28 -20 46.5t-47 19.5zM534 545h-268v27q-1 2 4.5 16.5t29.5 16.5h200q2 1 17 -4t17 -29v-27zM442 268 q3 -7 3 -15q0 -19 -13 -32t-32 -13t-31.5 13t-12.5 32q0 8 3 16q-108 4 -194 17t-142 26l-21 -217q1 -28 20 -46.5t47 -19.5h662q28 1 47 19.5t20 46.5l-20 216q-88 -22 -173 -32t-163 -11z" />
<glyph unicode="&#xe834;" d="M731 574h-35q-3 8 -10 13t-17 5h-19q-9 0 -16 -5t-11 -13h-47v27q-2 48 -32.5 73.5t-68.5 25.5h-150q-49 -2 -74.5 -31.5t-25.5 -67.5v-27h-48q-3 8 -10.5 13t-16.5 5h-19q-9 0 -16.5 -5t-10.5 -13h-35q-28 -1 -46.5 -19.5t-19.5 -46.5v-442q1 -28 19.5 -46.5t46.5 -19.5 h662q28 1 46.5 19.5t19.5 46.5v442q-1 28 -19.5 46.5t-46.5 19.5zM89 47q-15 0 -25 10t-10 25v61l98 -96h-63zM54 433v61q0 15 10 25t25 10h63zM509 574h-218v27q-1 2 4.5 16.5t29.5 16.5h150q2 1 17 -4t17 -29v-27zM746 82q0 -15 -10 -25t-25 -10h-62l97 96v-61zM746 433 l-97 96h62q15 0 25 -10t10 -25v-61z" />
<glyph unicode="&#xe835;" d="M731 574h-35q-3 8 -10 13t-17 5h-19q-9 0 -16 -5t-11 -13h-48v27q-2 48 -32 73.5t-68 25.5h-150q-49 -2 -74.5 -31.5t-25.5 -67.5v-27h-48q-3 8 -10.5 13t-16.5 5h-19q-10 0 -17 -5t-10 -13h-34q-28 -1 -47 -19.5t-20 -46.5v-442q1 -28 20 -46.5t47 -19.5h661 q28 1 47 19.5t20 46.5v442q-1 28 -20 46.5t-47 19.5zM291 601q-1 2 4.5 16.5t29.5 16.5h150q2 1 17 -4t17 -29v-27h-218v27zM708 87h-616q-5 0 -8.5 3t-3.5 8t3.5 8.5t8.5 3.5h616q5 0 8.5 -3.5t3.5 -8.5t-3.5 -8t-8.5 -3zM708 160h-616q-5 0 -8.5 3t-3.5 8t3.5 8.5t8.5 3.5 h616q5 0 8.5 -3.5t3.5 -8.5t-3.5 -8t-8.5 -3zM708 233h-616q-5 0 -8.5 3t-3.5 8t3.5 8.5t8.5 3.5h616q5 0 8.5 -3.5t3.5 -8.5t-3.5 -8t-8.5 -3zM708 306h-616q-5 0 -8.5 3t-3.5 8t3.5 8.5t8.5 3.5h616q5 0 8.5 -3.5t3.5 -8.5t-3.5 -8t-8.5 -3zM708 378h-616q-5 0 -8.5 3.5 t-3.5 8.5t3.5 8.5t8.5 3.5h616q5 0 8.5 -3.5t3.5 -8.5t-3.5 -8.5t-8.5 -3.5zM708 451h-616q-5 0 -8.5 3.5t-3.5 8.5t3.5 8.5t8.5 3.5h616q5 0 8.5 -3.5t3.5 -8.5t-3.5 -8.5t-8.5 -3.5z" />
<glyph unicode="&#xe836;" d="M731 574h-131v27q-2 48 -32 73.5t-68 25.5h-200q-49 -2 -74.5 -31.5t-25.5 -67.5v-27h-131q-28 -1 -46.5 -19.5t-19.5 -46.5v-191h794v191q-1 28 -19.5 46.5t-46.5 19.5zM534 574h-267v27q-1 2 4 16.5t29 16.5h200q2 1 17 -4t17 -29v-27zM400 218q-28 0 -48.5 16 t-27.5 42h-321v-210q1 -28 19.5 -46.5t46.5 -19.5h662q28 1 46.5 19.5t19.5 46.5v210h-321q-7 -26 -27.5 -42t-48.5 -16z" />
<glyph unicode="&#xe837;" horiz-adv-x="1000" d="M864 239q0 3 31 19.5t99 14.5q1 7 -31.5 26t-105.5 -28q0 4 18 31t54 33q-4 7 -45 13t-65 -71q-7 30 -50 47.5t-101 -20.5q3 4 47.5 2.5t88.5 -53.5q-5 6 -57 16t-87 -53q4 4 50 14.5t86 -15.5q-8 0 -51 -24.5t-25 -69.5q2 4 31 32.5t64 38.5q1 -1 -5 -32.5t-21.5 -78 t-44.5 -90.5h-117v447h-232v312h-313v-759h-34q-18 0 -30 -11.5t-12 -29.5h837q0 18 -12 29.5t-30 11.5h-28q21 42 35.5 87.5t20.5 81.5q5 24 2 38h1q3 -2 23 -37t18 -80q7 1 21.5 35t-41.5 94q5 0 50.5 -14.5t65.5 -42.5q4 6 -10 44.5t-95 41.5zM218 170h-56v55h56v-55z M218 259h-56v56h56v-56zM218 348h-56v56h56v-56zM218 441h-56v55h56v-55zM218 530h-56v56h56v-56zM218 619h-56v56h56v-56zM314 170h-55v55h55v-55zM314 259h-55v56h55v-56zM314 348h-55v56h55v-56zM315 441h-56v55h56v-55zM315 530h-56v56h56v-56zM315 619h-56v56h56v-56z M450 96h-55v55h55v-55zM450 185h-55v56h55v-56zM450 274h-55v56h55v-56zM547 96h-56v55h56v-55zM547 185h-56v56h56v-56zM547 274h-56v56h56v-56z" />
<glyph unicode="&#xe838;" horiz-adv-x="517" d="M258 341q-17 0 -28.5 11.5t-11.5 29.5h-215v-443q1 -20 14.5 -33.5t34.5 -14.5h26v-23q0 -8 5 -13t13 -5h53q8 0 13 5t5 13v23h182v-23q0 -8 5.5 -13t13.5 -5h53q8 0 13 5t5 13v23h26q21 1 34.5 14.5t14.5 33.5v443h-215q0 -18 -11.5 -29.5t-29.5 -11.5zM465 566h-104 v232l-1 7h5q9 0 16 6.5t7 16t-6.5 16t-16.5 6.5h-213q-10 0 -16.5 -6.5t-6.5 -16t6.5 -16t16.5 -6.5h5l-1 -7v-232h-104q-21 -1 -35 -14.5t-15 -34.5v-99h512v99q-1 21 -14.5 34.5t-34.5 14.5zM330 566h-143v232q0 1 2 7h139q2 -3 2 -7v-232z" />
<glyph unicode="&#xe839;" horiz-adv-x="1067" d="M914 -48q0 18 -11.5 29.5t-29.5 11.5h-28q20 42 35 87t21 81q3 24 2 38v0q3 -2 23 -37t18 -80q7 1 21.5 35t-41.5 93q5 0 49.5 -14.5t64.5 -41.5q4 6 -10 44t-93 41q0 3 30.5 19t98.5 15q1 6 -31.5 25t-104.5 -27q0 4 18 30.5t53 32.5q-4 7 -44.5 13t-63.5 -70 q-8 30 -50.5 47t-98.5 -21q3 4 46.5 3t87.5 -53q-5 6 -56.5 16t-86.5 -53q4 4 49.5 14.5t84.5 -15.5q-8 0 -50 -24t-24 -69q2 4 30.5 32.5t62.5 37.5q0 -1 -4 -31q-6 -32 -21.5 -78.5t-44.5 -89.5h-120v444h-36v98h-46v95h-32l-13 118l-14 -118h-32v-95h-45v-98h-37v-444 h-43v755h-310v-755h-44q-17 0 -28.5 -11.5t-12.5 -29.5h911zM589 371h55v-56h-55v56zM589 282h55v-55h-55v55zM589 193h55v-55h-55v55zM493 371h56v-56h-56v56zM493 282h56v-55h-56v55zM493 193h56v-55h-56v55zM263 673h56v-55h-56v55zM263 584h56v-55h-56v55zM263 496h56 v-55h-56v55zM263 404h56v-55h-56v55zM263 316h56v-56h-56v56zM263 227h56v-55h-56v55zM168 673h55v-55h-55v55zM168 584h55v-55h-55v55zM168 496h55v-55h-55v55zM168 404h55v-55h-55v55zM168 316h55v-56h-55v56zM168 227h55v-55h-55v55z" />
<glyph unicode="&#xe83a;" horiz-adv-x="517" d="M465 566h-105v239h5q9 0 16 6.5t7 16t-7 16t-16 6.5h-213q-10 0 -16.5 -6.5t-6.5 -16t6.5 -16t16.5 -6.5h5l-1 -7v-232h-104q-21 -1 -35 -14.5t-15 -34.5v-104h512v104q-1 21 -14.5 34.5t-34.5 14.5zM330 566h-143v232q0 1 2 7h139q2 -3 2 -7v-232zM455 209 q-1 -23 -16 -38t-38 -16h-285q-23 1 -38.5 16t-16.5 38v171h-59v-337h512v337h-59v-171zM2 -61q1 -20 15 -33.5t35 -14.5h26v-23q0 -8 5 -13t13 -5h53q8 0 13 5t5 13v23h182v-23q0 -8 5.5 -13t13.5 -5h53q8 0 13 5t5 13v23h26q21 1 34.5 14.5t14.5 33.5v71h-512v-71z" />
<glyph unicode="&#xe83b;" horiz-adv-x="517" d="M465 566h-105v239h5q9 0 16 6.5t7 16t-7 16t-16 6.5h-213q-10 0 -16.5 -6.5t-6.5 -16t6.5 -16t16.5 -6.5h5l-1 -7v-232h-104q-21 -1 -34.5 -14.5t-14.5 -34.5v-578q1 -20 14.5 -33.5t34.5 -14.5h26v-23q0 -8 5 -13t13 -5h53q8 0 13 5t5 13v23h182v-23q0 -8 5.5 -13 t13.5 -5h53q8 0 13 5t5 13v23h26q21 1 34.5 14.5t14.5 33.5v578q-1 21 -14.5 34.5t-34.5 14.5zM187 798q0 1 2 7h139q2 -3 2 -7v-232h-143v232zM430 -28h-343q-8 1 -8 9t8 8h343q8 0 8 -8t-8 -9zM430 27h-343q-8 1 -8 9t8 9h343q8 -1 8 -9t-8 -9zM430 82h-343q-8 1 -8 9t8 9 h343q8 -1 8 -9t-8 -9zM430 137h-343q-8 1 -8 9t8 9h343q8 -1 8 -9t-8 -9zM430 192h-343q-8 1 -8 9t8 9h343q8 -1 8 -9t-8 -9zM430 247h-343q-8 1 -8 9t8 9h343q8 -1 8 -9t-8 -9zM430 302h-343q-8 1 -8 9t8 9h343q8 -1 8 -9t-8 -9zM430 358h-343q-8 0 -8 8t8 9h343q8 -1 8 -9 t-8 -8zM430 413h-343q-8 0 -8 8t8 9h343q8 -1 8 -9t-8 -8zM430 468h-343q-8 1 -8 8.5t8 8.5h343q8 -1 8 -8.5t-8 -8.5z" />
<glyph unicode="&#xe83c;" horiz-adv-x="917" d="M238 213h-53v91q0 7 -5 12t-12 5t-12 -5t-5 -12v-108q0 -7 5 -11.5t12 -4.5h70q8 0 12.5 4.5t4.5 11.5t-4.5 12t-12.5 5zM356 225q-2 75 -52.5 124.5t-125.5 51.5q-75 -2 -125.5 -51.5t-52.5 -124.5q2 -75 52.5 -124.5t125.5 -51.5q75 2 125.5 51.5t52.5 124.5zM178 86 q-60 1 -99.5 40.5t-41.5 98.5q2 59 41.5 98.5t99.5 40.5q59 -1 98.5 -40.5t41.5 -98.5q-2 -59 -41.5 -98.5t-98.5 -40.5zM541 225q-27 0 -46.5 15.5t-26.5 39.5h-77q8 -27 8 -55q-1 -73 -42 -128t-107 -78h604q26 1 44 18.5t19 43.5v199h-304q-7 -24 -26.5 -39.5 t-45.5 -15.5zM853 562h-123v26q-2 46 -30.5 69.5t-63.5 23.5h-190q-47 -2 -71 -30t-24 -63v-26h-123q-27 -1 -44.5 -18.5t-18.5 -44.5v-57h13q67 -1 119 -34t79 -89h541v180q-1 27 -19 44.5t-45 18.5zM667 562h-253v26q-1 2 4 15.5t28 15.5h190q2 1 15.5 -4t15.5 -27v-26z " />
<glyph unicode="&#xe83d;" horiz-adv-x="917" d="M613 280h304v-199q-1 -27 -19 -44.5t-45 -18.5h-604q66 24 107 79t42 127q0 29 -7 56h77q7 -24 26.5 -39.5t46 -15.5t46 15.5t26.5 39.5zM917 499v-180h-541q-28 56 -80 89t-118 34h-14v57q1 27 18.5 44.5t44.5 18.5h123v26q0 35 24.5 63.5t70.5 30.5h190q36 0 64.5 -24 t30.5 -70v-26h123q27 -1 45 -18.5t19 -44.5zM667 588q-2 22 -16 27t-16 4h-190q-22 -2 -27 -15.5t-4 -15.5v-26h253v26zM178 49q-75 2 -125.5 51.5t-52.5 123.5q2 75 52.5 124.5t125.5 51.5q75 -2 125 -51.5t52 -124.5q-2 -74 -52 -123.5t-125 -51.5zM318 224 q-2 59 -41.5 98.5t-98.5 40.5q-60 -1 -99.5 -40.5t-41.5 -98.5q2 -59 41.5 -98t99.5 -40q59 2 98.5 41t41.5 97zM256 217l-56 22l16 23l-27 -12l-7 55l-23 -55l-23 16l12 -26l-56 -8l55 -22l-16 -23l27 12l8 -56l23 56l23 -16l-13 26z" />
<glyph unicode="&#xe83e;" horiz-adv-x="917" d="M614 280h304v-199q-1 -27 -18.5 -44.5t-44.5 -18.5h-604q66 24 107 79t42 127q0 29 -7 56h77q7 -24 26.5 -39.5t46 -15.5t46 15.5t25.5 39.5zM918 499v-180h-540q-28 56 -80 89t-119 34h-14v57q1 27 19 44.5t45 18.5h123v26q0 35 24.5 63.5t70.5 30.5h190q36 0 64.5 -24 t30.5 -70v-26h123q27 -1 44.5 -18.5t18.5 -44.5zM669 588q-2 22 -16 27t-16 4h-190q-22 -2 -27 -15.5t-4 -15.5v-26h253v26zM229 239h-100q-6 0 -10.5 -4t-4.5 -10.5t4.5 -10.5t10.5 -4h100q14 1 14 14.5t-14 14.5zM179 49q-75 2 -125 51.5t-52 123.5q2 75 52 124.5 t125 51.5q75 -2 125.5 -51.5t52.5 -124.5q-2 -75 -52.5 -124t-125.5 -51zM320 224q-1 59 -41 98.5t-100 40.5q-59 -1 -98.5 -40.5t-41.5 -98.5q2 -58 41.5 -97t98.5 -41q60 2 100 41t41 97z" />
<glyph unicode="&#xe83f;" horiz-adv-x="917" d="M612 280h305v-199q-1 -26 -19 -43.5t-45 -18.5h-604q66 23 107 78t42 127q0 30 -7 56h77q7 -24 26.5 -39.5t46 -15.5t46 15.5t25.5 39.5zM917 499v-180h-541q-28 56 -80 89t-118 34h-14v57q1 27 18.5 44.5t44.5 18.5h124v26q0 35 24 63.5t70 30.5h190q36 0 64.5 -24 t30.5 -70v-26h123q27 -1 45 -18.5t19 -44.5zM667 588q-2 22 -16 27t-16 4h-190q-22 -2 -27 -15.5t-4 -15.5v-26h253v26zM228 239h-35v35q0 6 -4.5 10.5t-11 4.5t-11 -4.5t-4.5 -10.5v-35h-34q-14 -1 -14 -15t14 -14h34v-35q0 -6 4.5 -10.5t11 -4.5t11 4.5t4.5 10.5v35h35 q6 0 10.5 4t4.5 10.5t-4.5 10.5t-10.5 4zM178 49q-75 2 -125.5 51.5t-52.5 124.5q2 74 52.5 123.5t125.5 51.5q75 -2 125 -51.5t52 -123.5q-2 -75 -52 -124.5t-125 -51.5zM318 225q-2 59 -41.5 98t-98.5 40q-60 -1 -99.5 -40t-41.5 -98q2 -59 41.5 -98.5t99.5 -40.5 q59 1 98.5 40.5t41.5 98.5z" />
<glyph unicode="&#xe840;" horiz-adv-x="917" d="M614 280h305v-199q-1 -27 -19 -44.5t-45 -18.5h-604q66 24 107 79t42 127q0 29 -7 56h77q7 -24 26 -39.5t46 -15.5t46 15.5t26 39.5zM919 499v-180h-541q-28 56 -80 89t-119 34h-13v57q1 27 18.5 44.5t44.5 18.5h123v26q0 35 24.5 63.5t70.5 30.5h190q36 0 64.5 -24 t30.5 -70v-26h123q27 -1 45 -18.5t19 -44.5zM669 588q-2 22 -16 27t-16 4h-190q-22 -2 -27 -15.5t-4 -15.5v-26h253v26zM225 270q-10 9 -21 0l-25 -24l-24 24q-5 5 -11 5t-11 -5q-7 -10 0 -21l25 -25l-25 -24q-7 -10 0 -21q5 -4 11 -4t11 4l24 24l25 -24q11 -9 20.5 1 t0.5 20l-24 24l24 25q9 11 0 21zM179 49q-75 2 -125 51.5t-52 123.5q2 75 52 124.5t125 51.5q75 -2 125.5 -51.5t52.5 -124.5q-2 -74 -52.5 -123.5t-125.5 -51.5zM320 224q-1 59 -41 98.5t-100 40.5q-59 -1 -98.5 -40.5t-41.5 -98.5q2 -58 41.5 -97t98.5 -41q60 2 100 41 t41 97z" />
<glyph unicode="&#xe841;" horiz-adv-x="650" d="M604 671h-557q-20 0 -33 -13t-14 -33v-550q1 -20 14 -33t33 -13h557q19 0 32 13t14 33v550q-1 20 -14 33t-32 13zM586 207q0 -15 -11 -26t-27 -11h-446q-16 0 -26.5 11t-10.5 26v364q0 15 10.5 25.5t26.5 10.5h446q16 0 27 -10.5t11 -25.5v-364zM494 205h-312 q1 27 21 44.5t51 18.5l16 -1q-13 26 -22.5 54t-13.5 50q-2 17 -1 24v0q-2 -1 -15 -23t-11 -50q-4 0 -13.5 22t26.5 59q-3 0 -31.5 -9.5t-41.5 -26.5q-3 4 6 28.5t60 25.5q0 2 -19.5 12t-62.5 9q0 4 20.5 16t65.5 -17q0 2 -11 19t-34 21q3 4 28.5 8t40.5 -44q4 19 31 29.5 t63 -13.5q-2 2 -29.5 1.5t-55.5 -33.5q3 4 36 10.5t54 -33.5q-2 2 -31 9t-54 -9q5 0 32 -15t15 -44q-1 2 -19 20.5t-40 23.5l3 -19q3 -20 12.5 -45.5t27.5 -52.5q17 16 39.5 25t49.5 9q50 -1 84 -30t35 -73z" />
<glyph unicode="&#xe842;" horiz-adv-x="917" d="M614 280h305v-199q-1 -27 -19 -44.5t-45 -18.5h-604q66 24 107 79t42 127q0 30 -8 56h78q7 -24 26 -39.5t46 -15.5t46 15.5t26 39.5zM919 499v-180h-541q-28 56 -80 89t-119 34h-13v57q1 27 18.5 44.5t44.5 18.5h123v26q0 35 24.5 63.5t70.5 30.5h190q36 0 64.5 -24 t30.5 -70v-26h123q27 -1 45 -18.5t19 -44.5zM669 588q-2 22 -16 27t-16 4h-190q-22 -2 -27 -15.5t-4 -15.5v-26h253v26zM221 270l-60 -59l-24 24q-10 9 -21 0q-4 -5 -4 -11t4 -10l35 -35q5 -4 10.5 -4t10.5 4l71 70q9 11 0 21q-5 5 -11 5t-11 -5zM179 49q-75 2 -125 51.5 t-52 123.5q2 75 52 124.5t125 51.5q75 -2 125.5 -51.5t52.5 -124.5q-2 -74 -52.5 -123.5t-125.5 -51.5zM320 224q-1 59 -41 98.5t-100 40.5q-59 -1 -98.5 -40.5t-41.5 -98.5q2 -58 41.5 -97t98.5 -41q60 2 100 41t41 97z" />
<glyph unicode="&#xe843;" horiz-adv-x="650" d="M253 276l-64 92l-72 -102h417l-144 205zM604 671h-557q-20 0 -33 -13t-14 -33v-550q1 -20 14 -33t33 -13h557q19 0 32 13t14 33v550q-1 20 -14 33t-32 13zM585 267q0 -15 -10.5 -26t-26.5 -11h-446q-16 0 -26.5 11t-10.5 26v304q0 15 10.5 25.5t26.5 10.5h446 q16 0 26.5 -10.5t10.5 -25.5v-304z" />
<glyph unicode="&#xe844;" horiz-adv-x="1017" d="M259 275l-65 93l-73 -103h422l-145 207zM614 675h-564q-20 -1 -33 -14t-14 -32v-558q1 -19 14 -32t33 -14h564q20 1 33.5 14t13.5 32v558q0 19 -13.5 32t-33.5 14zM596 266q0 -15 -11 -26t-27 -11h-452q-15 0 -26 11t-11 26v307q0 16 11 26.5t26 10.5h452q16 0 27 -10.5 t11 -26.5v-307zM1005 324l-249 246q-7 7 -16 8t-17 -3v-56q7 5 15 4.5t14 -6.5l199 -197q8 -7 8 -16.5t-8 -16.5l-137 -136q-7 -7 -16.5 -7t-16.5 7l-58 58v-177q8 -4 17 -3t16 8l249 246q8 9 8 20.5t-8 20.5z" />
<glyph unicode="&#xe845;" horiz-adv-x="1017" d="M1002 324l-249 246q-7 7 -16 8t-17 -3v-56q7 5 15 4.5t14 -6.5l199 -197q8 -7 8 -16.5t-8 -16.5l-137 -136q-7 -7 -16.5 -7t-16.5 7l-58 58v-177q8 -4 17 -3t16 8l249 246q8 9 8 20.5t-8 20.5zM611 675h-564q-20 -1 -33 -14t-14 -32v-558q1 -19 14 -32t33 -14h564 q20 1 33.5 14t13.5 32v558q0 19 -13.5 32t-33.5 14zM593 205q0 -15 -11 -26t-27 -11h-452q-15 0 -26 11t-11 26v368q0 16 11 26.5t26 10.5h452q16 0 27 -10.5t11 -26.5v-368zM500 204h-316q1 27 21.5 44.5t51.5 18.5q1 0 16 -1q-13 26 -22.5 55t-13.5 51q-2 15 -1 24v0 q-2 -1 -15 -23t-11 -51q-4 0 -13.5 22t26.5 59q-3 0 -32 -9t-42 -26q-3 4 6 28t60 26q0 2 -19.5 12t-62.5 9q0 4 20.5 16.5t66.5 -17.5q0 2 -11.5 19t-34.5 21q3 4 29 8.5t41 -44.5q4 19 31.5 29.5t63.5 -12.5q-2 2 -30 1.5t-56 -34.5q3 4 36 10.5t55 -33.5q-2 2 -31 9 t-54 -10q5 0 32 -15t15 -44q-1 2 -19.5 20.5t-40.5 24.5q0 -1 3.5 -20.5t12.5 -45.5t28 -53q17 16 40 25.5t49 9.5q52 -1 86 -30.5t35 -73.5z" />
<glyph unicode="&#xe846;" d="M400 424q-44 -1 -73 -29.5t-29 -71.5t29 -71.5t73 -28.5t73 28.5t29 71.5t-29 71.5t-73 29.5zM741 603h-212q-1 23 -16.5 38.5t-38.5 16.5h-148q-23 -1 -38.5 -16.5t-16.5 -38.5h-212q-24 -1 -40 -16.5t-17 -39.5v-448q1 -24 17 -39.5t40 -16.5h682q25 1 40.5 16.5 t16.5 39.5v448q-1 24 -16.5 39.5t-40.5 16.5zM400 110q-92 2 -152.5 62.5t-62.5 150.5q2 90 62.5 150.5t152.5 62.5q92 -2 152.5 -62t62.5 -151q-2 -91 -62.5 -151t-152.5 -62zM712 490q-14 0 -23.5 9t-9.5 23.5t9.5 24t24 9.5t24 -9.5t9.5 -24t-9.5 -23.5t-24.5 -9z" />
<glyph unicode="&#xe847;" d="M517 450q-53 -1 -89 -36.5t-37 -88.5q1 -52 37 -87.5t89 -36.5q54 1 89.5 36.5t36.5 87.5q-1 53 -36.5 88.5t-89.5 36.5zM549 245q14 11 23 28t9 37q-1 35 -25 58.5t-60 24.5q-16 0 -31 -6q22 18 52 19q36 -1 60 -25t25 -59q0 -27 -14.5 -47.5t-38.5 -29.5zM739 603h-39 q-6 14 -19 22.5t-29.5 8.5t-29 -8.5t-19.5 -22.5h-15q-6 14 -18.5 22.5t-29.5 8.5t-29.5 -8.5t-18.5 -22.5h-90q-1 23 -16 38.5t-38 16.5h-149q-23 -1 -38 -16.5t-16 -38.5h-88q-25 -1 -40.5 -16.5t-16.5 -39.5v-448q1 -24 16.5 -39.5t40.5 -16.5h682q25 1 40.5 16.5 t16.5 39.5v448q-1 24 -16.5 39.5t-40.5 16.5zM214 139q0 -15 -10.5 -25t-25.5 -10h-81q-15 0 -25 10t-10 25v373q0 15 10 24.5t25 9.5h81q15 0 25.5 -9.5t10.5 -24.5v-373zM517 144q-78 2 -129.5 53t-53.5 128q2 77 53.5 128t129.5 53q78 -2 129.5 -53t53.5 -128 q-2 -77 -53.5 -128t-129.5 -53z" />
<glyph unicode="&#xe848;" d="M578 279h218v-180q-1 -24 -17 -39.5t-40 -16.5h-682q-24 1 -40 16.5t-17 39.5v180h218q12 -66 61 -108t119 -43q70 1 119 43t61 108zM739 603h-39q-6 14 -19 22.5t-29.5 8.5t-29 -8.5t-18.5 -22.5h-201q-1 23 -16.5 38.5t-38.5 16.5h-148q-24 -1 -39 -16.5t-16 -38.5h-88 q-24 -1 -40 -16.5t-17 -39.5v-208h218q12 66 61 108t119 43q70 -1 119 -43t61 -108h218v208q-1 24 -17 39.5t-40 16.5zM398 185q-54 1 -89.5 36t-36.5 88q1 53 36.5 88t89.5 36q53 -1 89 -36t37 -88q-1 -53 -37 -88t-89 -36zM377 377q36 -1 60 -24.5t25 -58.5q0 -20 -9 -37 t-23 -28q24 9 38.5 29.5t14.5 47.5q-1 35 -25 58.5t-60 24.5q-30 -1 -52 -18q14 6 31 6z" />
<glyph unicode="&#xe849;" horiz-adv-x="750" d="M687 561h-123v26q-2 46 -30.5 69.5t-63.5 23.5h-189q-47 -2 -71 -30t-24 -63v-26h-123q-27 -1 -44.5 -18.5t-18.5 -43.5v-180h200q9 67 57.5 110t117.5 44q70 -1 118 -44t58 -110h199v180q-1 26 -18.5 43.5t-44.5 18.5zM501 561h-252v26q-1 2 4 15.5t28 15.5h189 q2 1 15.5 -4t15.5 -27v-26zM551 280h199v-198q-1 -26 -18.5 -43.5t-44.5 -18.5h-624q-27 1 -44.5 18.5t-18.5 43.5v198h199q9 -68 57.5 -111.5t118.5 -45.5q70 2 119 45.5t57 111.5zM375 160q59 2 98.5 41t41.5 97q-2 59 -41.5 98t-98.5 41q-59 -2 -98.5 -41t-41.5 -98 q2 -58 41.5 -97t98.5 -41zM300 317q2 3 6 3h47v47q1 7 9 8h27q3 0 4.5 -1l1.5 -1q2 -3 2 -6v-47h47q5 0 6 -3v0q3 -2 3 -5v-27q0 -3 -2 -5.5t-7 -2.5h-47v-47q0 -4 -2.5 -6.5t-5.5 -2.5h-27q-4 0 -6.5 2.5t-2.5 6.5v47h-47q-3 0 -6 2.5t-3 5.5v27q0 3 3 5z" />
<glyph unicode="&#xe84a;" horiz-adv-x="700" d="M195 71q-1 -22 -15.5 -36t-36.5 -14t-36.5 14t-14.5 36t14.5 36.5t36.5 14.5t36.5 -14.5t15.5 -36.5zM559 123q-22 -1 -37 -15.5t-15 -36.5t15 -36.5t37 -14.5t36.5 14.5t14.5 36.5t-14.5 36.5t-36.5 15.5zM696 513v-384q0 -22 -14 -38t-36 -19q-1 37 -25.5 61t-62 24 t-62.5 -24.5t-26 -61.5h-240q-1 37 -25.5 61.5t-62.5 24.5t-62.5 -24t-25.5 -61q-21 3 -35 19t-15 38v384q1 25 17 41t41 17h114v23q0 33 22 59.5t65 27.5h174q34 0 60 -22.5t27 -64.5v-23h114q25 -1 41 -17t17 -41zM466 594q-2 21 -14.5 25.5t-14.5 3.5h-174 q-21 -2 -25.5 -14.5t-3.5 -14.5v-23h232v23z" />
<glyph unicode="&#xe84b;" horiz-adv-x="667" d="M643 508q0 14 -9.5 23t-23.5 9h-89q-2 79 -55 131t-133 54q-79 -2 -132 -54t-55 -131h-90q-14 0 -23 -9t-9 -23l-23 -501q0 -14 9.5 -23t23.5 -9h599q14 0 23 9t9 23zM179 540q2 65 45.5 108t108.5 45q65 -2 109 -45t46 -108h-309zM163 441q-12 0 -21 9t-9 21.5t9 21 t21.5 8.5t21.5 -8.5t9 -21t-9 -21.5t-22 -9zM503 441q-12 0 -21 9t-9 21.5t9 21t21.5 8.5t21.5 -8.5t9 -21t-9 -21.5t-22 -9z" />
<glyph unicode="&#xe84c;" horiz-adv-x="617" d="M617 500l-32 -480q0 -19 -13 -32t-33 -13h-460q-20 0 -33 13t-13 32l-32 480q0 19 13 32t32 13h39l-1 -11q1 -22 16 -37t37.5 -15t37.5 15t16 37q0 6 -2 11h240q-2 -5 -2 -11q1 -22 16 -37t37.5 -15t37.5 15t16 37q0 6 -1 11h39q19 0 32 -13t13 -32zM138 501 q14 0 23.5 9.5t9.5 23.5q-1 17 -16 27q10 57 52 93.5t102 37.5q60 -1 102 -38t52 -94q-14 -9 -15 -26q0 -14 9.5 -23.5t23.5 -9.5t23.5 9.5t9.5 23.5q0 10 -5 17.5t-13 11.5q-11 70 -62.5 115t-124.5 47q-74 -2 -125 -47t-62 -116q-8 -4 -12.5 -11.5t-4.5 -16.5 q0 -14 9 -23.5t24 -9.5z" />
<glyph unicode="&#xe84d;" horiz-adv-x="667" d="M644 601q0 14 -9.5 23t-23.5 9h-555q-14 0 -23.5 -9t-9.5 -23l-23 -502q0 -14 9.5 -23t23.5 -9h601q14 0 23 9t9 23zM592 564h-56l1 -2q0 -10 -5 -17t-13 -11q-10 -70 -61 -114.5t-123 -46.5q-73 2 -123.5 46.5t-61.5 113.5q-8 4 -13.5 11.5t-5.5 17.5l1 2h-56 q-8 0 -14 6t-6 14t6 13.5t14 5.5h516q8 0 14 -5.5t6 -13.5t-6 -14t-14 -6zM471 562q1 1 1 2h-276l1 -2q-1 -17 -15 -26q9 -57 51 -93.5t102 -37.5q59 1 101 37t51 93q-15 9 -16 27z" />
<glyph unicode="&#xe84e;" horiz-adv-x="617" d="M570 633h-522q-19 0 -32 -13t-14 -32l32 -476q1 -19 14 -32t32 -13h458q19 0 32 13t14 32l32 476q0 19 -13 32t-33 13zM496 401q-11 -70 -62 -115t-124 -47q-73 2 -124 46.5t-62 114.5q-8 4 -13.5 11.5t-5.5 17.5q0 14 9.5 23t23.5 9t23.5 -9t9.5 -23q-1 -17 -14 -27 q9 -57 51 -93.5t102 -37.5q59 1 101 37.5t51 93.5q-14 9 -15 27q0 14 9.5 23t23.5 9t23.5 -9t9.5 -23q-1 -20 -17 -28zM536 528h-454q-14 0 -23 9.5t-9 23.5t9 23t23 9h454q14 0 23.5 -9t9.5 -23t-9.5 -23.5t-23.5 -9.5z" />
<glyph unicode="&#xe84f;" d="M389 323q-1 -43 -30 -71.5t-73 -28.5t-73 28.5t-29 71.5t29 71.5t73 28.5t73 -28.5t30 -71.5zM796 547v-448q-1 -24 -17 -39.5t-40 -16.5h-682q-25 1 -40.5 16.5t-16.5 39.5v448q1 24 16.5 39.5t40.5 16.5h100q1 23 16.5 38.5t38.5 16.5h148q23 -1 38.5 -16.5t16.5 -38.5 h324q24 -1 40 -16.5t17 -39.5zM503 323q-2 90 -62.5 150.5t-152.5 62.5q-92 -2 -152.5 -62.5t-62.5 -150.5q2 -91 62.5 -151t152.5 -62q92 2 152.5 62t62.5 151zM729 502q0 15 -9.5 24t-24 9t-24 -9t-9.5 -23.5t9.5 -24t24 -9.5t24 9.5t9.5 23.5z" />
<glyph unicode="&#xe850;" horiz-adv-x="650" d="M596 496h-40q1 54 -21 104t-68 87q-74 57 -162 52.5t-156 -65.5q-9 -8 -11.5 -19t4.5 -21q17 -19 30.5 -14t14.5 7q50 48 118 52t124 -39q34 -28 50.5 -65.5t15.5 -78.5h-441q-23 -1 -38 -16t-16 -38v-428q1 -22 16 -37.5t38 -16.5h542q23 1 38 16.5t16 37.5v428 q-1 23 -16 38t-38 16zM359 189v-63q0 -14 -9.5 -23.5t-24 -9.5t-24 9.5t-9.5 23.5v63q-20 10 -32 28t-12 41q1 33 23 54.5t55 21.5t55 -21.5t23 -54.5q0 -23 -12 -41t-33 -28z" />
<glyph unicode="&#xe851;" horiz-adv-x="767" d="M551 248q-148 -9 -216.5 -90.5t-57.5 -126.5q3 -3 2.5 -23.5t-39.5 -24.5q-34 -1 -56.5 25.5t-23.5 79.5q8 105 37 138t-18 32h-83q-24 1 -40 17t-16 40.5t16 40.5t40 17h-36q-25 1 -41 17t-16 40.5t16 40.5t41 17h9q-25 1 -41 16.5t-16 40t16 40.5t41 17h27 q-24 1 -40 17t-16 40.5t16 40.5t40 17h455v-469zM608 248h120q13 0 22.5 9t9.5 23v405q0 13 -9.5 22.5t-22.5 9.5h-120v-469z" />
<glyph unicode="&#xe852;" horiz-adv-x="767" d="M214 452q148 9 216 90.5t58 126.5q-3 3 -2.5 23.5t39.5 24.5q34 1 56.5 -25.5t23.5 -79.5q-8 -104 -37 -137.5t18 -32.5h82q25 -1 41 -17t16 -40.5t-16 -40.5t-41 -17h36q25 -1 41 -17t16 -40.5t-16 -40t-41 -16.5h-9q25 -1 41 -17t16 -40.5t-16 -40.5t-41 -17h-27 q25 -1 41 -17t16 -40.5t-16 -40.5t-41 -17h-454v469zM156 452h-119q-14 0 -23 -9t-9 -23v-405q0 -13 9 -22.5t23 -9.5h119v469z" />
<glyph unicode="&#xe853;" horiz-adv-x="583" d="M583 723v-548q0 -33 -24.5 -63t-67.5 -46q-50 -18 -85.5 -5.5t-49 49.5t4.5 74.5t67 57.5q22 7 43.5 9t40.5 -2v293l-279 -63v-382q0 -33 -24.5 -62.5t-67.5 -46.5q-50 -18 -86 -5.5t-49.5 49.5t4.5 74.5t67 57.5q46 15 85 7v462z" />
<glyph unicode="&#xe854;" horiz-adv-x="500" d="M437 562q17 -41 15 -106q-7 -97 -47.5 -174t-82.5 -124q-7 4 -13 7q40 45 81 120.5t48 170.5q0 104 -39.5 144t-74.5 45q24 -41 29 -102q5 -88 -17 -193.5t-44 -178.5q-7 3 -14 4q22 72 44 176.5t17 190.5q-16 121 -74.5 140t-90.5 -133q-16 -110 6.5 -210t49.5 -163 q-8 -1 -14 -4q-28 65 -50 166.5t-7 212.5q11 64 28 94q-30 1 -72.5 -37t-46.5 -157q3 -92 46 -165t89 -118q-9 -3 -14 -7q-48 48 -90.5 122.5t-45.5 167.5q1 73 18 115q-39 -18 -60.5 -81t32.5 -167q35 -60 71 -99.5t67 -61.5v-1l43 -47h8l2 -36h-10q-8 0 -9 -10l7 -37 q1 -8 9 -9h39q10 1 10 9l7 38q0 8 -10 9h-9l1 12v0l1 24h7q16 15 34 29l18 15q-1 1 0 1q29 22 64 63.5t69 106.5q47 100 28 158.5t-53 79.5zM264 73h-25l-3 36h30z" />
<glyph unicode="&#xe855;" d="M400 745q-170 -4 -283 -115.5t-117 -279.5q4 -168 117 -279.5t283 -115.5q170 4 283 115.5t117 279.5q-4 168 -117 279.5t-283 115.5zM595 596q-20 -22 -35 -23t-16 1q-19 -3 -27.5 11t-23.5 54q-3 6 -4 11q59 -17 106 -54zM255 628q8 -12 25 -28q12 -6 46 13.5t53 15.5 q10 -10 8.5 -36t10.5 -25q65 21 79.5 -15t49.5 -72q28 -23 5 -46l-50 -53q-28 -25 -66 -28.5t-41 -32.5q4 -33 -3.5 -57.5t-62.5 -29.5q-26 3 3.5 41t18.5 58q-15 12 -39.5 2t-38.5 -37q-15 -35 -39 -71.5t-27 18.5q4 63 15 99t-22.5 45t-45.5 4t-31 2q-9 4 -16 2 q13 77 57 137t111 94zM226 89q1 9 13.5 23t45.5 -4q35 -24 59.5 -35.5t58.5 -8.5q18 2 37.5 -3t33.5 -15q-35 -9 -74 -9q-48 0 -92 13.5t-82 38.5zM594 103q0 22 19.5 54t33.5 48q23 32 40.5 94t-1.5 73q-39 4 -56 -15.5t-29 -17.5q-22 14 -8 36t-19 41q-37 20 -17.5 50.5 t60.5 37.5q15 1 31.5 -2t32.5 -8q35 -65 36 -144q-1 -76 -33.5 -139.5t-89.5 -107.5z" />
<glyph unicode="&#xe856;" d="M400 745q-170 -4 -283 -115.5t-117 -279.5q4 -168 117 -279.5t283 -115.5q170 4 283 115.5t117 279.5q-4 168 -117 279.5t-283 115.5zM83 350q1 24 4 46q7 2 15 -2q19 -8 31.5 -2.5t47.5 -2.5q33 -10 22 -47.5t-15 -101.5q3 -57 28 -19.5t40 73.5q14 28 39.5 38t41.5 -1 q11 -21 -19.5 -60.5t-4.5 -41.5q58 4 65 29.5t3 59.5q3 30 42.5 33.5t68.5 29.5l51 54q23 24 -5 48q-36 36 -51 73t-82 16q-13 -1 -11 25.5t-8 36.5q-20 5 -55 -15.5t-48 -14.5q-15 15 -22 27q64 31 139 32q54 0 103 -17v-1q16 -41 24.5 -55.5t28.5 -11.5q1 -1 13.5 -1 t30.5 15q47 -38 77 -91q-24 7 -47 5q-41 -7 -61.5 -38.5t18.5 -52.5q34 -19 19 -41.5t8 -36.5q13 -3 30.5 17.5t57.5 16.5q19 -11 1 -75t-42 -97q-10 -12 -25 -35t-24 -46q-62 -55 -145 -74q-14 6 -28.5 8.5t-28.5 1.5q-35 -4 -60 8t-62 36q-27 16 -40.5 8t-17.5 -20 q-67 43 -106.5 111.5t-40.5 152.5z" />
<glyph unicode="&#xe857;" horiz-adv-x="833" d="M538 315h-108v183q0 15 -9.5 24.5t-24 9.5t-24 -9.5t-9.5 -24.5v-216q0 -14 9.5 -23.5t23.5 -9.5h142q14 0 23.5 9.5t9.5 24t-9.5 23.5t-23.5 9zM259 697q-30 20 -68 24q-32 4 -62 -3.5t-55 -24.5q-6 5 -15 5q-12 0 -20 -8t-8 -20q1 -8 4 -14q-26 -34 -33 -80 q-4 -36 6 -68t32 -58q25 84 82 148t137 99zM830 576q-6 46 -33 80q5 6 5 14q0 12 -8 20t-20 8q-9 0 -15 -5q-25 17 -55 24.5t-62 3.5q-38 -4 -68 -24q80 -35 137 -99t82 -148q22 26 31.5 58t5.5 68zM772 343q-3 132 -85 227t-211 119q-1 19 -16 34q-18 18 -42 18.5 t-43 -16.5q-16 -15 -19 -37q-128 -24 -210 -118.5t-85 -226.5q1 -82 34.5 -150.5t91.5 -117.5l-24 -19q-18 -15 -20 -36.5t12 -40.5q18 -21 43 -21q19 0 35 12l56 45q60 -23 127.5 -23t127.5 23l56 -45q15 -12 35 -12q25 0 43 21q14 19 11.5 40.5t-20.5 36.5l-23 19 q58 49 91.5 117.5t34.5 150.5zM416 65q-119 3 -198.5 81.5t-82.5 196.5q3 118 82.5 196.5t198.5 81.5q120 -3 199.5 -81.5t82.5 -196.5q-3 -118 -82.5 -196.5t-199.5 -81.5z" />
<glyph unicode="&#xe858;" d="M400 745q-170 -4 -283 -115.5t-117 -279.5q4 -168 117 -279.5t283 -115.5q170 4 283 115.5t117 279.5q-4 168 -117 279.5t-283 115.5zM400 37q-134 3 -223.5 92t-93.5 221q4 133 93.5 221.5t223.5 91.5q135 -3 224.5 -91.5t92.5 -221.5q-3 -132 -92.5 -221t-224.5 -92z M537 322h-122v206q0 16 -11 27t-26.5 11t-26.5 -11t-11 -27v-243q0 -15 11 -26t27 -11h159q15 0 26 11t11 26.5t-11 26t-26 10.5z" />
<glyph unicode="&#xe859;" horiz-adv-x="650" d="M596 511h-54q-2 91 -63.5 151.5t-153.5 62.5q-92 -2 -153.5 -62.5t-63.5 -151.5h-54q-23 -1 -38 -16.5t-16 -37.5v-428q1 -23 16 -38t38 -16h542q23 1 38 16t16 38v428q-1 22 -16 37.5t-38 16.5zM359 218v-64q0 -14 -9.5 -23.5t-24 -9.5t-24.5 9.5t-10 23.5v64 q-20 9 -32 27t-12 42q1 32 23 54t55 22t55 -22t23 -54q0 -24 -12 -42t-32 -27zM163 511q2 68 47.5 113t114.5 47q69 -2 115 -47t48 -113h-325z" />
<glyph unicode="&#xe85a;" d="M400 741q-168 -4 -280 -114.5t-116 -276.5q4 -166 116 -276.5t280 -114.5q168 4 280 114.5t116 276.5q-4 166 -116 276.5t-280 114.5zM400 40q-133 3 -221.5 90.5t-91.5 219.5q3 132 91.5 219.5t221.5 90.5q133 -3 222 -90.5t92 -219.5q-3 -132 -92 -219.5t-222 -90.5z M435 497q-3 9 -12 15t-22 6t-22 -6t-12 -15l-101 -283q-3 -9 3 -18.5t19.5 -12.5t23.5 2t13 14l19 59h113l18 -59q3 -8 13.5 -13.5t22.5 -2.5q15 4 20.5 14t2.5 17zM360 308l41 127l40 -127h-81z" />
<glyph unicode="&#xe85b;" d="M400 741q-168 -4 -280 -114.5t-116 -276.5q4 -166 116 -276.5t280 -114.5q168 4 280 114.5t116 276.5q-4 166 -116 276.5t-280 114.5zM400 40q-133 3 -222 90.5t-92 219.5q3 132 92 219.5t222 90.5q133 -3 221.5 -90.5t91.5 -219.5q-3 -132 -91.5 -219.5t-221.5 -90.5z M482 485q-15 15 -39 23t-56 8h-68q-14 0 -22.5 -7.5t-8.5 -16.5v-282q0 -9 8.5 -17.5t22.5 -8.5t22 7.5t7 16.5v96h39q34 0 58 8.5t39 22t21.5 31.5t6.5 38v5q0 23 -7 42.5t-23 33.5zM452 401q0 -9 -3.5 -18t-12 -15.5t-20.5 -10t-29 -4.5h-39v112h39q34 0 49.5 -15 t15.5 -37v-12z" />
<glyph unicode="&#xe85c;" d="M400 741q-168 -4 -280 -114.5t-116 -276.5q4 -166 116 -276.5t280 -114.5q168 4 280 114.5t116 276.5q-4 166 -116 276.5t-280 114.5zM400 40q-133 3 -221.5 90.5t-91.5 219.5q3 132 91.5 219.5t221.5 90.5q133 -3 222 -90.5t92 -219.5q-3 -132 -92 -219.5t-222 -90.5z M479 525q7 -13 4 -25l-3 -12q-4 -12 -16.5 -18.5t-29 -2t-24.5 16.5t-5 24l3 13q5 12 18 18.5t29.5 1.5t23.5 -16zM452 429q7 -12 4 -24l-64 -226q-4 -12 -16.5 -18.5t-29 -2t-24.5 17t-5 24.5l64 226q4 12 17.5 18.5t30 1.5t23.5 -17z" />
<glyph unicode="&#xe85d;" horiz-adv-x="483" d="M242 350q-62 2 -102.5 42t-42.5 101q2 62 42.5 102.5t102.5 41.5q62 -1 102.5 -41.5t42.5 -102.5q-2 -61 -42.5 -101t-102.5 -42zM242 732q-102 -3 -170.5 -70t-71.5 -169q15 -119 121 -311.5t121 -213.5q15 21 121 213.5t121 311.5q-3 102 -71.5 169t-170.5 70z" />
<glyph unicode="&#xe85e;" horiz-adv-x="867" d="M795 664h-723q-31 -1 -51 -21t-21 -51v-484q1 -31 21 -51t51 -21h723q31 1 51 21t21 51v484q-1 31 -21 51t-51 21zM101 617h665q7 0 13 -3l-310 -287q-15 -15 -36 -16q-18 0 -34 15v0l-312 288q6 3 14 3zM814 124l-165 154q-9 8 -20.5 8t-20 -9t-8 -20t8.5 -20l163 -153 l-6 -1h-665l-6 1l160 152q8 8 8.5 19.5t-8 20.5t-20 9t-20.5 -8l-162 -153q-3 10 -4 22v408q0 14 5 27l320 -296l1 -1q26 -23 58 -24q17 0 32.5 7t28.5 19h1l318 295q5 -13 5 -27v-408q0 -12 -4 -22z" />
<glyph unicode="&#xe85f;" horiz-adv-x="867" d="M71 36q-30 1 -50 21t-21 51v484q1 31 21 51t50 21h724q31 -1 51 -21t21 -51v-484q-1 -31 -21 -51t-51 -21h-724zM340 306q-11 0 -19 -7l-178 -170q-6 -5 -8 -13t1 -16t10.5 -12.5t15.5 -4.5h543q8 0 15 4.5t10 12.5t1.5 16t-7.5 13l-178 170q-9 7 -19 7t-19 -7l-16 -15 q-26 -23 -58 -23.5t-58 22.5l-18 16q-8 7 -18 7zM791 550q-11 0 -19 -7l-183 -169q-8 -8 -8 -19.5t8 -19.5l183 -172q8 -6 19 -7q6 0 11 2q16 8 16 25v341q0 8 -4.5 14.5t-12.5 9.5q-5 3 -10 2zM76 550q-5 1 -12 -2t-11 -9.5t-4 -14.5v-341q0 -8 4.5 -14.5t12.5 -9.5 q5 -2 10 -2q11 0 19 7l183 171q8 8 8 19.5t-8 19.5l-184 169q-7 7 -18 7zM153 617q-18 -1 -26 -17q-2 -8 -0.5 -16t7.5 -14l264 -244q17 -15 35 -15q8 0 17 3t19 13l263 243q13 13 7 30q-3 8 -10 12.5t-15 4.5h-561z" />
<glyph unicode="&#xe860;" horiz-adv-x="783" d="M753 138l-172 170q29 58 30 127q-3 128 -89.5 213.5t-216.5 88.5q-129 -3 -215.5 -88.5t-89.5 -213.5q3 -128 89.5 -213t215.5 -88q70 0 130 29l171 -170q32 -30 73.5 -30t73 31t31.5 71.5t-31 72.5zM305 222q-92 2 -153 62t-63 151q2 91 63 151.5t153 62.5 q92 -2 153.5 -62.5t63.5 -151.5q-2 -91 -63.5 -151t-153.5 -62zM412 472h-70v69q0 15 -10.5 26t-26 11t-26.5 -11t-11 -26v-69h-70q-15 0 -26 -10.5t-11 -26t11 -26t26 -10.5h70v-69q0 -16 11 -26.5t26.5 -10.5t26 10.5t10.5 26.5v69h70q16 0 26.5 10.5t10.5 26t-10.5 26 t-26.5 10.5z" />
<glyph unicode="&#xe861;" horiz-adv-x="783" d="M754 138l-172 170q29 58 29 127q-3 128 -89.5 213.5t-215.5 88.5q-129 -3 -215.5 -88.5t-89.5 -213.5q3 -128 89.5 -213t215.5 -88q70 0 129 29l172 -170q32 -30 73.5 -30t73.5 30q30 32 30 72.5t-30 72.5zM306 222q-92 2 -153 62.5t-63 150.5q2 91 63 151.5t153 62.5 q92 -2 153 -62.5t63 -151.5q-2 -90 -63 -150.5t-153 -62.5zM413 472h-214q-16 0 -26.5 -10.5t-10.5 -26t10.5 -26t26.5 -10.5h214q15 0 26 10.5t11 26t-11 26t-26 10.5z" />
<glyph unicode="&#xe862;" horiz-adv-x="783" d="M750 140l-170 168q28 58 28 127q-3 126 -88.5 210.5t-213.5 87.5q-128 -3 -213.5 -87.5t-88.5 -210.5q3 -127 88.5 -211.5t213.5 -87.5q69 1 128 28l170 -168q32 -29 73 -29t73 29q30 32 30 72.5t-30 71.5zM306 223q-91 2 -151.5 62t-62.5 150q2 89 62.5 149t151.5 62 q91 -2 151.5 -62t62.5 -149q-2 -90 -62.5 -150t-151.5 -62z" />
<glyph unicode="&#xe863;" d="M400 741q-168 -4 -280 -114.5t-116 -276.5q4 -166 116 -276.5t280 -114.5q168 4 280 114.5t116 276.5q-4 166 -116 276.5t-280 114.5zM87 350q3 132 91.5 219.5t221.5 90.5q56 0 105.5 -18t90.5 -51l-440 -435q-33 41 -51 90t-18 104zM400 40q-56 0 -105.5 18t-90.5 51 l440 435q33 -40 51.5 -89.5t18.5 -104.5q-3 -132 -92 -219.5t-222 -90.5z" />
<glyph unicode="&#xe864;" horiz-adv-x="567" d="M548 552h-65v14q-1 27 -19 44.5t-46 17.5t-45.5 -17.5t-18.5 -44.5v-14h-141v14q-1 27 -19 44.5t-45.5 17.5t-45.5 -17.5t-19 -44.5v-14h-66q-7 0 -12 -5t-5 -12v-447q0 -7 5 -12t12 -5h530q8 0 13 5t5 12v447q0 7 -5 12t-13 5zM496 158q0 -8 -5 -13t-13 -5h-390 q-7 0 -12 5t-5 13v308q0 7 5 12t12 5h390q8 0 13 -5t5 -12v-308zM208 409v-64q0 -8 -5 -13t-13 -5h-45q-8 0 -12.5 5t-4.5 13v64q0 8 4.5 13t12.5 5h45q8 0 13 -5t5 -13zM323 409v-64q0 -8 -5 -13t-12 -5h-46q-7 0 -12 5t-5 13v64q0 8 5 13t12 5h46q7 0 12 -5t5 -13z M439 409v-64q0 -8 -5 -13t-13 -5h-45q-7 0 -12 5t-5 13v64q0 8 5 13t12 5h45q8 0 13 -5t5 -13zM208 278v-65q0 -7 -5 -12t-13 -5h-45q-8 0 -12.5 5t-4.5 12v65q0 8 4.5 13t12.5 5h45q8 0 13 -5t5 -13zM323 278v-65q0 -7 -5 -12t-12 -5h-46q-7 0 -12 5t-5 12v65q0 8 5 13 t12 5h46q7 0 12 -5t5 -13zM439 278v-65q0 -7 -5 -12t-13 -5h-45q-7 0 -12 5t-5 12v65q0 8 5 13t12 5h45q8 0 13 -5t5 -13z" />
<glyph unicode="&#xe865;" horiz-adv-x="767" d="M767 423v-334q-1 -54 -37.5 -90t-90.5 -37h-320q-12 0 -21 9t-9 21t9 20.5t21 8.5h320q29 1 48.5 20t20.5 48v301h-171q-40 1 -71.5 22.5t-46.5 56.5l-8 30q-2 9 -2 18v162h-168q-29 -1 -48.5 -20t-20.5 -48v-368q0 -12 -8.5 -20.5t-20.5 -8.5t-20.5 8.5t-8.5 20.5v368 q1 54 37 90t90 37h206q12 -1 21 -9l290 -286q9 -8 9 -20zM358 222q-13 12 -29 12t-29 -12l-164 -161l-65 65q-13 12 -29.5 12t-29 -12.5t-12.5 -28t12 -28.5l95 -95q13 -12 29.5 -12t29.5 12l192 191q12 13 12 28.5t-12 28.5z" />
<glyph unicode="&#xe866;" horiz-adv-x="767" d="M764 423v-335q-1 -54 -37.5 -90.5t-91.5 -37.5h-274q-12 0 -20.5 9t-8.5 21t8.5 20.5t20.5 8.5h274q30 1 49.5 20.5t20.5 48.5v303h-172q-40 1 -71.5 22t-46.5 56l-8 31q-2 9 -2 18v163h-169q-29 -1 -48.5 -20.5t-20.5 -48.5v-323q0 -12 -9 -20.5t-21 -8.5t-20.5 8.5 t-8.5 20.5v323q1 54 37 90.5t91 37.5h207q11 -1 21 -9l292 -287q8 -9 8 -21zM264 221q-13 13 -29 13t-29 -13l-68 -66l-67 66q-13 13 -29.5 13t-29 -12.5t-12.5 -28.5t12 -29l68 -67l-68 -67q-12 -13 -12 -29t12.5 -28.5t29 -12.5t29.5 12l67 67l68 -67q13 -12 29 -12 t28.5 12.5t12.5 28.5t-12 29l-67 67l67 67q12 13 12 29t-12 28z" />
<glyph unicode="&#xe867;" horiz-adv-x="667" d="M654 741h-640q-5 0 -9 -4t-4 -9v-442q19 -139 159 -229t169 -97l5 -1l6 1q29 7 169 97t159 229v442q0 5 -4 9t-10 4zM595 311q-15 -108 -124.5 -178.5t-132.5 -75.5q-1 -1 -3.5 -1t-4.5 1q-23 5 -132.5 75.5t-124.5 178.5v346q1 10 11 11h501q10 -1 10 -11v-346zM491 573 q-13 7 -27 4t-23 -16l-154 -244l-61 80q-10 12 -24 14t-26.5 -7.5t-14.5 -23.5t7 -26l93 -122q12 -14 29 -14h2q19 2 29 17l182 288q7 13 4 27t-16 23z" />
<glyph unicode="&#xe868;" d="M800 423v-334q-1 -54 -37 -90t-91 -37h-480q-12 0 -20.5 9t-8.5 21t8.5 20.5t20.5 8.5h480q29 1 48.5 20t20.5 48v301h-171q-40 1 -71 22.5t-47 56.5l-8 30l-1 18v162h-168q-29 -1 -48.5 -20t-20.5 -48v-322q0 -12 -8.5 -20.5t-21 -8.5t-21 8.5t-8.5 20.5v322 q1 54 37 89.5t91 36.5h205q13 0 21 -8l290 -286q9 -8 9 -20zM355 138q0 17 -12 29t-30 12h-272q-17 -1 -28.5 -12.5t-11.5 -29t11.5 -29t28.5 -11.5h272q18 0 30 11.5t12 29.5z" />
<glyph unicode="&#xe869;" horiz-adv-x="567" d="M402 444q-10 6 -21 3.5t-17 -11.5l-116 -185l-47 60q-7 9 -18 10.5t-20.5 -5.5t-11 -18t5.5 -20l71 -92q8 -11 22 -11h1q14 2 22 13l138 219q6 10 3.5 20.5t-12.5 16.5zM548 552h-65v14q-1 27 -19 44.5t-45.5 17.5t-45.5 -17.5t-19 -44.5v-14h-141v14q-1 27 -19 44.5 t-45.5 17.5t-45.5 -17.5t-19 -44.5v-14h-66q-7 0 -12 -5t-5 -12v-447q0 -7 5 -12t12 -5h530q8 0 13 5t5 12v447q0 7 -5 12t-13 5zM496 158q0 -8 -5 -13t-13 -5h-389q-8 0 -13 5t-5 13v308q0 7 5 12t13 5h389q8 0 13 -5t5 -12v-308z" />
<glyph unicode="&#xe86a;" horiz-adv-x="567" d="M439 427h-81v-100h81v100zM243 196h81v100h-81v-100zM128 196h80v100h-80v-100zM358 196h81v100h-81v-100zM208 427h-80v-100h80v100zM324 427h-81v-100h81v100zM483 552v14q-1 27 -19 44.5t-45.5 17.5t-45.5 -17.5t-19 -44.5v-14h-141v14q-1 27 -19 44.5t-45.5 17.5 t-45.5 -17.5t-19 -44.5v-14h-83v-481h565v481h-83zM496 140h-425v343h425v-343z" />
<glyph unicode="&#xe86b;" horiz-adv-x="567" d="M228 186q8 -10 22 -10h1q14 1 22 12l138 219q6 10 3.5 20.5t-12.5 16.5t-21 3.5t-17 -11.5l-116 -185l-47 60q-7 9 -18 10.5t-20 -5.5t-11 -18t5 -20zM483 552v14q-1 27 -19 44.5t-45.5 17.5t-45.5 -17.5t-19 -44.5v-14h-141v14q-1 27 -19 44.5t-45.5 17.5t-45.5 -17.5 t-19 -44.5v-14h-83v-481h565v481h-83zM496 140h-425v343h425v-343z" />
<glyph unicode="&#xe86c;" horiz-adv-x="633" d="M631 606v-101q0 -8 -6 -13.5t-14 -5.5h-589q-8 0 -14 5.5t-6 13.5v101q0 8 6 13.5t14 5.5h590q8 0 13.5 -5.5t5.5 -13.5zM612 420h-590q-8 0 -14 -6t-6 -14v-100q0 -8 6 -14t14 -6h590q8 0 13.5 6t5.5 14v100q0 8 -5.5 14t-13.5 6zM612 214h-590q-8 0 -14 -5.5t-6 -13.5 v-100q0 -8 6 -14t14 -6h590q8 0 13.5 6t5.5 14v100q0 8 -5.5 13.5t-13.5 5.5z" />
<glyph unicode="&#xe86d;" d="M800 423v-334q-1 -54 -37 -90t-91 -37h-328q-12 0 -20.5 9t-8.5 21t8.5 20.5t20.5 8.5h328q29 1 48.5 20t20.5 48v301h-171q-40 1 -71 22.5t-47 56.5l-8 30l-1 18v162h-168q-29 -1 -48.5 -20t-20.5 -48v-206q0 -12 -8.5 -20.5t-21 -8.5t-21 8.5t-8.5 20.5v206q1 54 37 90 t91 37h205q13 -1 21 -9l290 -286q9 -8 9 -20zM354 138q0 17 -11.5 28.5t-29.5 11.5h-94v94q0 18 -12 29.5t-29.5 11.5t-29 -11.5t-12.5 -29.5v-94h-95q-18 0 -29.5 -11.5t-11.5 -29t11.5 -29t29.5 -11.5h95v-94q1 -17 12.5 -28.5t29 -11.5t29.5 11.5t12 28.5v94h94 q18 0 29.5 11.5t11.5 29.5z" />
<glyph unicode="&#xe86e;" horiz-adv-x="283" d="M273 535l-187 -185l187 -185q11 -11 11 -25t-11 -24.5t-25 -10.5t-25 10l-213 210q-10 11 -10 25t10 25l213 210q11 10 25 10t25 -10.5t11 -24.5t-11 -25z" />
<glyph unicode="&#xe86f;" horiz-adv-x="283" d="M10 165l188 185l-188 185q-10 11 -10 25t10.5 24.5t25 10.5t25.5 -10l212 -210q11 -11 11 -25t-11 -25l-212 -210q-11 -10 -25.5 -10t-25 10.5t-10.5 24.5t10 25z" />
<glyph unicode="&#xe870;" horiz-adv-x="500" d="M439 219l-189 187l-189 -187q-11 -10 -25.5 -10t-25 10.5t-10.5 24.5t11 25l214 212q11 11 25 11t25 -11l215 -212q11 -11 11 -25t-11 -24.5t-25.5 -10.5t-25.5 10z" />
<glyph unicode="&#xe871;" horiz-adv-x="567" d="M249 608v-207q0 -7 -5 -12t-13 -5h-209q-8 0 -13 5t-5 12v207q0 7 5 12t13 5h209q8 0 13 -5t5 -12zM545 625h-209q-8 0 -13 -5t-5 -12v-207q0 -7 5 -12t13 -5h209q7 0 12 5t5 12v207q0 7 -4.5 12t-12.5 5zM231 316h-209q-8 0 -13 -5t-5 -12v-207q0 -7 5 -12t13 -5h209 q8 0 13 5t5 12v207q0 7 -5 12t-13 5zM545 316h-209q-8 0 -13 -5t-5 -12v-207q0 -7 5 -12t13 -5h209q7 0 12 5t5 12v207q0 7 -4.5 12t-12.5 5z" />
<glyph unicode="&#xe872;" horiz-adv-x="567" d="M158 608v-118q0 -8 -5 -13t-12 -5h-120q-8 0 -12.5 5t-4.5 13v118q0 7 4.5 12t12.5 5h120q7 0 12 -5t5 -12zM340 625h-120q-8 0 -13 -5t-5 -12v-118q0 -8 5 -13t13 -5h120q7 0 12 5t5 13v118q0 7 -5 12t-12 5zM546 625h-120q-7 0 -12 -5t-5 -12v-118q0 -8 5 -13t12 -5 h120q7 0 12 5t5 13v118q0 7 -4.5 12t-12.5 5zM141 429h-120q-8 0 -12.5 -5t-4.5 -13v-118q0 -7 4.5 -12t12.5 -5h120q7 0 12 5t5 12v118q0 8 -5 13t-12 5zM340 429h-120q-8 0 -13 -5t-5 -13v-118q0 -7 5 -12t13 -5h120q7 0 12 5t5 12v118q0 8 -5 13t-12 5zM546 429h-120 q-7 0 -12 -5t-5 -13v-118q0 -7 5 -12t12 -5h120q7 0 12 5t5 12v118q0 8 -4.5 13t-12.5 5zM141 228h-120q-8 0 -12.5 -5t-4.5 -12v-119q0 -7 4.5 -12t12.5 -5h120q7 0 12 5t5 12v119q0 7 -5 12t-12 5zM340 228h-120q-8 0 -13 -5t-5 -12v-119q0 -7 5 -12t13 -5h120q7 0 12 5 t5 12v119q0 7 -5 12t-12 5zM546 228h-120q-7 0 -12 -5t-5 -12v-119q0 -7 5 -12t12 -5h120q7 0 12 5t5 12v119q0 7 -4.5 12t-12.5 5z" />
<glyph unicode="&#xe873;" horiz-adv-x="517" d="M258 593l64 -182l195 -4l-155 -116l56 -184l-160 110l-159 -110l56 184l-155 116l194 4z" />
<glyph unicode="&#xe874;" horiz-adv-x="617" d="M547 575h-477q-28 -1 -46 -19t-19 -46v-320q1 -28 19 -46t46 -19h477q28 1 46 19t19 46v320q-1 28 -19 46t-46 19zM370 304l118 -112h-359l118 112l12 -11q22 -20 50 -19.5t50 20.5zM308 342q-5 0 -10 5h-1l-174 161h370l-174 -161q-5 -5 -11 -5zM193 353l-120 -113v225z M544 465v-225l-121 113z" />
<glyph unicode="&#xe875;" horiz-adv-x="517" d="M470 306q-1 -2 -2 -2q-10 -14 -58.5 -58.5t-144.5 -101.5q-3 -2 -7 -2t-8 2q-102 61 -150.5 107t-53.5 55q-43 47 -43 107t44 106q19 19 43.5 29t51.5 10t51.5 -10t43.5 -29l22 -22l21 22q19 19 43.5 29t51.5 10t51.5 -10t43.5 -29q44 -47 44 -107t-44 -106z" />
<glyph unicode="&#xe876;" horiz-adv-x="517" d="M474 314h-1q1 -2 -50 -52.5t-165 -119.5q-114 69 -165 119.5t-50 52.5q-43 45 -43 103t43 103q39 38 90.5 38t90.5 -38l34 -34l34 34q40 38 91.5 38t90.5 -38q43 -45 43 -103t-43 -103z" />
<glyph unicode="&#xe877;" horiz-adv-x="533" d="M525 393l-141 -105l51 -167q3 -10 -6 -17q-4 -3 -8.5 -3t-9.5 3l-144 99l-145 -99q-4 -3 -8.5 -3t-9.5 3q-8 7 -6 17l52 167l-141 105q-8 7 -4.5 16.5t13.5 11.5l176 3l58 165q4 10 14.5 10t14.5 -10l58 -165l176 -3q11 -2 14.5 -11.5t-4.5 -16.5z" />
<glyph unicode="&#xe878;" horiz-adv-x="267" d="M250 325l-210 -123q-18 -9 -29 -2t-11 27v246q0 21 11 28t29 -3l209 -123q17 -11 17.5 -25t-16.5 -25z" />
<glyph unicode="&#xe879;" horiz-adv-x="317" d="M185 466l125 -209q10 -18 3 -29t-28 -11h-252q-21 0 -28.5 11t3.5 29l126 208q11 18 25.5 18.5t25.5 -17.5z" />
<glyph unicode="&#xe87a;" horiz-adv-x="317" d="M133 234l-125 209q-11 18 -3.5 29t28.5 11h252q21 0 28 -11t-3 -29l-126 -208q-11 -18 -25 -18.5t-26 17.5z" />
<glyph unicode="&#xe87b;" horiz-adv-x="333" d="M329 529l-180 -179l180 -179l-72 -71l-253 250l253 250z" />
<glyph unicode="&#xe87c;" horiz-adv-x="267" d="M17 375l210 123q18 10 29 3t11 -28v-246q0 -20 -11 -27t-29 2l-209 123q-17 11 -18 25t17 25z" />
<glyph unicode="&#xe87d;" horiz-adv-x="500" d="M61 481l189 -187l189 187q11 11 25.5 11t25 -11t10.5 -25t-10 -25l-215 -212q-11 -10 -25 -10t-25 10l-214 212q-11 11 -11 25t11 25t25 11t25 -11z" />
<glyph unicode="&#xe87e;" horiz-adv-x="433" d="M426 368q12 -12 5.5 -27t-23.5 -16h-94v-164q0 -11 -7 -18t-18 -7h-144q-11 0 -18 7t-7 18v164h-94q-8 0 -14.5 4t-9.5 11q-5 16 6 28l191 189q8 7 18.5 7t17.5 -7z" />
<glyph unicode="&#xe87f;" horiz-adv-x="433" d="M432 360q6 -16 -6 -28l-191 -189q-7 -7 -17.5 -7t-18.5 7l-191 189q-11 12 -6 28q3 7 9.5 11t14.5 4h94v164q0 11 7 18t18 7h144q11 0 18 -7t7 -18v-164h94q17 -1 24 -15z" />
<glyph unicode="&#xe880;" horiz-adv-x="433" d="M427 368q7 -7 7 -17.5t-7 -18.5l-192 -189q-7 -6 -18 -7q-4 0 -10 2q-14 7 -15 23v93h-166q-11 0 -18 7t-7 18v142q0 11 7 18t18 7h166v93q1 16 15 23q6 3 10 2q11 0 18 -7z" />
<glyph unicode="&#xe881;" horiz-adv-x="433" d="M433 421v-142q0 -11 -7 -18t-18 -7h-166v-93q0 -16 -16 -23q-4 -2 -9 -2q-10 0 -18 7l-192 189q-7 8 -7 18t7 18l192 189q8 7 18 7q5 0 9 -2q16 -7 16 -23v-93h166q11 0 18 -7t7 -18z" />
<glyph unicode="&#xe882;" horiz-adv-x="367" d="M148 67v439l-93 -85l-51 47l179 165l180 -165l-51 -47l-93 85v-439h-71z" />
<glyph unicode="&#xe883;" horiz-adv-x="367" d="M219 633v-439l92 85l52 -47l-179 -165l-180 165l51 47l92 -85v439h72z" />
<glyph unicode="&#xe884;" horiz-adv-x="267" d="M267 196l-267 154l267 154v-308z" />
<glyph unicode="&#xe885;" horiz-adv-x="267" d="M0 504l267 -154l-267 -154v308z" />
<glyph unicode="&#xe886;" horiz-adv-x="317" d="M159 483l157 -266h-314z" />
<glyph unicode="&#xe887;" horiz-adv-x="333" d="M4 171l181 179l-181 179l72 71l253 -250l-253 -250z" />
<glyph unicode="&#xe888;" horiz-adv-x="500" d="M429 191l-179 177l-179 -177l-71 71l250 247l250 -247z" />
<glyph unicode="&#xe889;" horiz-adv-x="500" d="M71 509l179 -177l179 177l71 -71l-250 -247l-250 247z" />
<glyph unicode="&#xe88a;" horiz-adv-x="583" d="M575 315h-439l85 -90l-47 -50l-166 175l166 175l47 -50l-85 -90h439v-70z" />
<glyph unicode="&#xe88b;" horiz-adv-x="583" d="M8 385h440l-85 90l47 50l165 -175l-165 -175l-47 50l85 90h-440v70z" />
<glyph unicode="&#xe88c;" horiz-adv-x="317" d="M1 484h316l-158 -268z" />
<glyph unicode="&#xe88d;" horiz-adv-x="433" d="M278 159q0 -9 -7 -16t-16 -7h-75q-9 1 -16 7.5t-7 15.5v131h-133q-9 0 -16 6v0q-7 8 -7 17v74q0 9 7 16t16 7h132v131q0 9 7 16t17 7h75q9 0 17 -7v0q7 -6 6 -16v-131h132q11 0 17 -6v0q7 -8 7 -17v-74q0 -9 -6.5 -16t-17.5 -7h-132v-131z" />
<glyph unicode="&#xe88e;" horiz-adv-x="433" d="M24 290q-9 0 -17 6v0q-6 8 -6 17v74q0 9 6 17q8 6 17 6h386q11 0 17 -6v0q7 -8 7 -17v-74q0 -9 -6.5 -16t-17.5 -7h-386z" />
<glyph unicode="&#xe88f;" horiz-adv-x="767" d="M762 640q-1 -36 -25 -60t-60.5 -24t-61 24t-24.5 60t24.5 60t61 24t60.5 -24t25 -60zM636 69h-44v134q0 24 -19 38l-155 111l161 163q10 11 12.5 24.5t-3 27t-17.5 21t-26 7.5h-323q-20 0 -33.5 -13.5t-13.5 -33.5t13.5 -33t33.5 -14h210l-120 -123q-15 -15 -13.5 -36.5 t19.5 -34.5l5 -4l-158 -160l-81 72q-16 13 -35 12t-32.5 -16t-12 -33.5t15.5 -32.5l179 -158q14 -12 31 -12q20 0 36 16q13 15 12 34t-16 32l-26 23l165 168l96 -69v-110h-101q-20 0 -33 -13.5t-13 -33.5t13 -33t33 -14h240q20 1 33.5 14t13.5 33t-13.5 33.5t-33.5 13.5z " />
<glyph unicode="&#xe890;" horiz-adv-x="417" d="M410 235q7 -6 7 -15.5t-7 -16.5l-52 -52q-8 -6 -16.5 -6t-16.5 6l-117 115l-116 -115q-6 -6 -16 -7v0q-9 1 -17 7l-52 52q-6 7 -6 16.5t6 15.5l117 115l-117 115q-7 7 -7 16.5t7 15.5l52 52q7 7 17 7v0q10 0 16 -7l116 -115l117 115q7 7 16 7v0q9 0 17 -7l52 -52 q7 -6 7 -15.5t-7 -16.5l-117 -115z" />
<glyph unicode="&#xe891;" horiz-adv-x="667" d="M166 719q1 41 28.5 68.5t69.5 27.5t69.5 -27.5t28.5 -68.5q-1 -41 -28.5 -68.5t-69.5 -27.5t-69.5 27.5t-28.5 68.5zM627 -46q-10 -4 -20 -4q-17 0 -30.5 9t-19.5 25l-4 10q-45 -51 -106.5 -80t-132.5 -30q-133 3 -222 91t-92 220q2 103 60.5 182t154.5 112v47 q1 22 16 37t37.5 15t38 -15t16.5 -37v-33h168q23 -1 38 -16t15 -37.5t-15 -37.5t-38 -16h-168v-103h190q17 0 30.5 -9t19.5 -25l94 -236q8 -21 -0.5 -40.5t-29.5 -28.5zM504 116l-28 70h-207q-23 1 -38 16t-16 38v133q-49 -27 -77.5 -73.5t-29.5 -104.5q2 -87 60 -144.5 t146 -59.5q63 1 114 34.5t76 90.5z" />
<glyph unicode="&#xe892;" horiz-adv-x="533" d="M521 470l-325 -321q-6 -7 -16 -7h-5q-9 0 -16 7l-147 143q-6 7 -6 16t6 17l50 49q6 7 17 7v0q10 0 16 -7l83 -81l260 259q8 6 17.5 6t15.5 -6l50 -50q7 -7 7 -16t-7 -16z" />
<glyph unicode="&#xe893;" horiz-adv-x="600" d="M300 646q-128 -3 -212.5 -86.5t-87.5 -209.5q3 -126 87.5 -209.5t212.5 -86.5q128 3 212.5 86.5t87.5 209.5q-3 126 -87.5 209.5t-212.5 86.5zM300 75q-118 3 -197 80.5t-82 194.5q3 117 82 194.5t197 80.5q119 -3 197.5 -80.5t81.5 -194.5q-3 -117 -81.5 -194.5 t-197.5 -80.5zM58 358l-9 -2q5 104 75.5 172t175.5 71q82 -1 144.5 -45t90.5 -116l-9 -1q-28 68 -88 109.5t-138 42.5q-101 -2 -168.5 -67t-73.5 -164zM539 311l10 2q-16 -92 -84 -150.5t-165 -60.5q-73 1 -131.5 36.5t-90.5 95.5l10 2q32 -57 87 -90.5t125 -34.5 q92 2 157.5 57.5t81.5 142.5zM69 300q-11 -3 -22 4l6 9q9 -4 14 -2q7 0 7 4t-8 3.5t-14 1.5t-7 10t4 12t12 5q11 2 18 -2l-5 -9q-5 2 -10.5 1t-6.5 -5q2 -4 9 -3t13 -1.5t7.5 -10t-3.5 -12t-14 -5.5zM130 311l14 3l-29 41l-13 -2l-13 -49l14 3l2 8l20 3zM107 326l4 16l8 -14 zM166 317l-13 -2l-6 35l-14 -2l-1 10l39 7l2 -11l-13 -2zM177 366l13 2l8 -45l-13 -3zM229 342q0 3 -8 2.5t-13.5 1.5t-7 10t3.5 12t13 5q9 3 18 -2l-5 -9q-6 3 -11.5 2t-5.5 -5t7.5 -3.5t13.5 -2t7.5 -9.5t-3.5 -11.5t-13 -6.5q-12 -3 -22 4l6 10q8 -5 14.5 -4t5.5 6z M243 377l35 6l2 -11l-22 -4l1 -8l21 3l2 -10l-21 -4l3 -15l-13 -3zM297 386l-12 -49l13 3l2 8l21 3l4 -7l14 2l-29 42zM303 359l3 15l8 -13zM348 371q1 -5 4 -8.5t9 -2.5t11 7l9 -8q-6 -8 -17 -10q-13 -2 -20.5 4t-9 15.5t3.5 17.5t18 11q10 2 19 -4l-7 -9q-6 3 -10 2 q-7 -2 -9 -6t-1 -9zM418 395l-14 -2l6 -35l-13 -2l-6 35l-13 -2l-2 10l40 7zM442 364l-13 -2l-8 45l13 2zM475 368q11 2 17 9.5t4 18.5t-10 16t-19 3.5t-17 -9t-4.5 -19t10 -16.5t19.5 -3zM468 405q13 1 15 -11.5t-10 -14.5q-5 -1 -9.5 2t-5.5 9q-1 11 10 15zM529 425l13 2 l8 -45l-11 -2l-23 21l1 -10l3 -14l-13 -2l-8 45l11 2l24 -22zM93 248q-13 -2 -20.5 4t-9 15t3.5 17.5t18 11.5q9 2 19 -5l-6 -8q-6 3 -11 2q-12 -2 -10 -16q1 -4 4 -7.5t9 -3t10 3.5l-1 6l-12 -2l-1 10l22 4l3 -20q-1 -5 -6 -8t-12 -4zM116 273l-4 26l13 2l4 -25 q2 -11 11 -9t6 11l-4 26l13 2l4 -25q4 -21 -17.5 -24.5t-25.5 16.5zM180 271l20 4l5 -7l14 2l-29 42l-13 -2l-13 -49l14 2zM186 298l8 -13l-12 -2zM265 278v0l-15 14q10 7 8.5 14t-7 11t-14.5 3l-22 -4l7 -45l13 2l-2 15h4l14 -13zM241 299l-10 -2l-2 11l10 1q5 1 5.5 -4 t-3.5 -6zM278 327l-13 -49l14 2l2 8l20 3l4 -6l14 2l-28 42zM283 300l4 15l8 -14zM323 288l-8 45l11 2l24 -22l-5 25l14 2l7 -45l-11 -2l-23 21l2 -10l2 -14zM406 337l-14 -2l6 -35l-13 -2l-6 35l-13 -2l-2 10l40 7zM410 349l35 6l2 -11l-23 -4l1 -6l22 3l2 -10l-22 -4l1 -7 l24 4l2 -10l-37 -7zM498 317l-36 -6l-8 45l35 6l2 -11l-23 -3l1 -7l22 4l2 -11l-22 -3l1 -7l24 4zM525 322q13 2 17.5 9.5t3 17t-8.5 15t-20 3.5l-19 -3l8 -46zM519 356q6 1 9.5 -1.5t4.5 -7.5q3 -11 -10 -15l-6 -1l-4 24zM185 431l2 -14l-37 -6l-2 14l10 2l-5 30l-9 -5 l-3 15l26 13l8 -51zM212 488q-12 -2 -19.5 -10t-5.5 -24l2 -9q3 -15 12.5 -20t21.5 -3t19 10t5 23l-1 9q-3 15 -12.5 20.5t-21.5 3.5zM220 436q-10 -1 -13 12l-2 9q-1 14 9 15q11 3 14 -11l1 -9q2 -15 -9 -16zM279 498q-12 -1 -19.5 -9t-5.5 -24l2 -9q3 -15 12.5 -20.5 t21.5 -3.5t19 10.5t5 23.5l-1 9q-3 14 -12.5 19.5t-21.5 3.5zM287 447q-10 -2 -13 12l-2 9q-1 14 9.5 15.5t13.5 -12.5l1 -8q2 -15 -9 -16zM332 507q-9 -2 -12.5 -7t-2 -11t6 -9.5t13 -2t12 6.5t2.5 11t-6 9.5t-13 2.5zM335 488q-5 -1 -5.5 2.5t4 4.5t5.5 -2.5t-4 -4.5z M381 479q-8 -1 -11.5 -6t-2.5 -11t6 -10t13.5 -2.5t11.5 6.5t2 11t-5.5 9.5t-13.5 2.5zM384 460q-4 1 -4.5 4.5t4 4t4.5 -3t-4 -5.5zM366 512l17 2l-32 -70l-16 -3zM249 230l-17 -17l11 -21l-22 10l-17 -16l3 23l-21 11l24 4l4 24l11 -21zM322 242l-16 -17l10 -21l-21 10 l-17 -16l3 23l-22 11l24 4l4 24l11 -21zM395 255l-16 -18l10 -21l-21 10l-17 -16l3 23l-22 11l24 5l4 23l11 -21zM468 267l-16 -18l11 -21l-22 10l-17 -16l3 23l-21 11l23 5l4 23l12 -21z" />
<glyph unicode="&#xe894;" horiz-adv-x="417" d="M404 322q-33 32 -129 127l-108 107h-167v-165l237 -235q1 -3 17.5 -10.5t38.5 10.5l111 111q3 1 10.5 17t-10.5 38zM112 446q-13 -12 -28.5 -12t-27.5 12t-12 27.5t12 27t27.5 11.5t27.5 -11.5t12 -27t-11 -27.5z" />
<glyph unicode="&#xe895;" horiz-adv-x="617" d="M82 709q1 40 27.5 66.5t67.5 26.5t67.5 -26.5t26.5 -66.5t-26.5 -66.5t-67.5 -26.5t-67.5 26.5t-27.5 66.5zM614 -36l-79 250q-5 16 -18.5 26t-31.5 10h-188l-49 300q-4 22 -21.5 34t-39.5 8.5t-34 -20.5t-9 -39l57 -343q3 -20 17.5 -32t34.5 -12h193l68 -213 q6 -17 19.5 -26.5t30.5 -9.5q8 0 16 2q21 7 30.5 25.5t3.5 39.5zM380 91h-222l-53 348q-4 22 -21 34.5t-39 9t-34.5 -20t-9.5 -38.5l60 -393q3 -19 17.5 -31.5t34.5 -12.5h267q22 1 36.5 15.5t14.5 36.5t-14.5 36.5t-36.5 15.5z" />
<glyph unicode="&#xe896;" horiz-adv-x="533" d="M241 698q1 36 25.5 60t61 24t61 -24t24.5 -60t-24.5 -60t-61 -24t-61 24t-25.5 60zM446 302q16 -17 37 -17q17 0 30 11q15 13 17.5 31.5t-10.5 34.5l-167 201q-9 13 -24 18q-19 6 -36.5 -2t-24.5 -27l-199 -573q-6 -19 2.5 -36t27.5 -24q8 -2 16 -2q15 0 27 8.5t17 22.5 l88 252l160 -261q6 -11 17 -16.5t23.5 -5.5t24.5 6q17 11 21.5 29.5t-5.5 35.5l-201 328l43 126zM142 280l80 235q9 29 -3.5 54t-41 34.5t-54 -3t-36.5 -40.5l-80 -234q-9 -29 3.5 -54t40.5 -36q12 -3 23 -3q23 0 41.5 12.5t26.5 34.5z" />
<glyph unicode="&#xe897;" horiz-adv-x="500" d="M152 720q1 41 28.5 68.5t69.5 27.5t69.5 -27.5t28.5 -68.5q-1 -41 -28.5 -68.5t-69.5 -27.5t-69.5 27.5t-28.5 68.5zM328 452l62 -188q6 -17 20 -27t31 -10q9 0 17 3q22 7 31.5 26t3.5 41l-81 249q-6 17 -20 27t-32 10h-220q-18 0 -32 -10t-20 -27l-81 -249q-6 -22 4 -41 t31.5 -25.5t40.5 3t27 30.5l62 188q0 -3 2 -8l19 -52l-61 -166q-2 -3 -2 -6l-95 -265q-7 -22 2.5 -41.5t30.5 -27.5q9 -3 18 -3q17 0 31 9.5t20 26.5l82 230h62l82 -230q6 -17 20 -26.5t31 -9.5q9 0 18 3q21 8 30.5 27.5t2.5 41.5l-95 265q0 3 -2 6l-60 166l18 52q2 5 2 8z " />
<glyph unicode="&#xe898;" horiz-adv-x="767" d="M744 457l-156 122l11 27q6 18 -1 34.5t-25 23t-34.5 -0.5t-23.5 -25l-67 -171h-396q-19 0 -32 -13t-13 -32t13 -32t32 -13h115l-68 -289q-4 -19 5.5 -34t27.5 -19q6 -2 11 -2q15 0 27.5 9.5t15.5 25.5l34 142h245l-26 -123q-3 -19 6.5 -34t27.5 -19l10 -1q16 0 28 10 t16 26l66 308h122q15 0 26.5 8t16 22t1 27.5t-14.5 22.5zM568 475q-13 0 -21.5 8.5t-8.5 20.5t8.5 20t21 8t21 -8t8.5 -20t-8.5 -20.5t-20.5 -8.5z" />
<glyph unicode="&#xe899;" horiz-adv-x="650" d="M202 673q1 45 31.5 75.5t76.5 31.5q46 -1 77 -31.5t32 -75.5q-1 -45 -32 -75.5t-77 -31.5q-46 1 -76.5 31.5t-31.5 75.5zM612 414l-266 120q0 1 -2 1q-3 2 -6 2.5t-5.5 1t-5.5 0.5l-6 1l-6 -1q-2 0 -5 -0.5t-6 -1.5l-6 -2l-261 -121q-22 -11 -30 -33t2 -45 q8 -17 22.5 -25.5t31.5 -8.5q13 0 25 5l153 71q-3 -8 -3 -17v-65l-144 -76q-21 -12 -28.5 -34.5t4.5 -44.5l100 -189q8 -15 22 -23.5t31 -8.5q14 0 27 7q23 12 30 34.5t-4 45.5l-73 137l78 41q8 -2 17 -2h49q9 0 17 2l82 -42l-72 -136q-11 -23 -4 -45.5t30 -34.5 q13 -7 27 -7q17 0 31 8.5t22 23.5l100 189q12 22 4 45t-29 35l-148 75v65q0 9 -3 17l158 -71q13 -5 25 -5q18 0 32 8.5t22 25.5q10 23 2 45t-31 33z" />
<glyph unicode="&#xe89a;" horiz-adv-x="950" d="M582 588q1 36 25.5 60.5t61.5 24.5t61 -24.5t24 -60.5t-24.5 -60t-61 -24t-61 24t-25.5 60zM251 302q7 0 13 1l305 84h308q20 1 33.5 14t13.5 33t-13.5 33.5t-33.5 13.5h-287l-87 149q-9 14 -23 20t-30 2l-180 -45q-19 -6 -29 -22t-4.5 -35.5t22 -29t35.5 -4.5l145 36 l52 -89l-252 -69q-20 -6 -29 -22.5t-5 -35.5q5 -16 18 -25t28 -9zM28 192q4 -3 51 -16.5t124 -15.5q46 0 99.5 9.5t112.5 34.5q46 20 93.5 30t99.5 10h292q20 1 33.5 14t13.5 33t-13.5 33.5t-33.5 13.5h-293q-62 0 -119 -11.5t-112 -35.5q-129 -49 -215 -35t-93 22 q-19 8 -37 1.5t-26.5 -25t-1.5 -36t25 -26.5zM900 205h-98h-195q-62 0 -119 -11.5t-112 -36.5q-128 -49 -214 -34.5t-94 22.5q-19 7 -37 0.5t-26.5 -24.5t-1.5 -35.5t25 -26.5q4 -3 51 -17t124 -16q46 0 99.5 10t112.5 35q46 20 93.5 29.5t99.5 9.5q99 1 194 1l98 -1 q20 1 33.5 14.5t13.5 33.5t-13.5 33.5t-33.5 13.5z" />
<glyph unicode="&#xe89b;" horiz-adv-x="517" d="M160 720q1 41 28.5 68.5t69.5 27.5t70 -27.5t29 -68.5q-1 -41 -29 -68.5t-70 -27.5t-69.5 27.5t-28.5 68.5zM514 300l-95 248q-6 16 -19.5 25.5t-30.5 9.5h-221q-17 0 -31 -9.5t-20 -25.5l-94 -248q-8 -22 1 -41.5t30.5 -27.5t41.5 1t28 30l46 119l-15 -174l-27 -265 q-2 -22 12 -39t37 -19q2 -1 5 -1q21 0 36 13.5t18 34.5l22 218h41l22 -218q3 -21 18 -34.5t36 -13.5q2 0 5 1q23 3 36.5 19.5t11.5 38.5l-27 265l-14 174l46 -119q6 -16 19.5 -25.5t30.5 -9.5q10 1 20 4q21 8 29.5 27.5t1.5 41.5z" />
<glyph unicode="&#xe89c;" horiz-adv-x="883" d="M133 439q1 38 27 63.5t64.5 25.5t64 -25.5t25.5 -63.5t-25.5 -63.5t-64 -25.5t-64.5 25.5t-27 63.5zM828 429h-388l18 90q4 21 -7 37.5t-32 20.5t-38 -7t-21 -32l-30 -149q-4 -23 11 -41t38 -18h399v-30h-672v259q0 21 -14 34.5t-36 13.5t-36 -13.5t-15 -34.5v-418 q1 -21 15 -34.5t36 -13.5t36 13.5t14 34.5v60h672v-60q1 -21 15 -34.5t35 -13.5t35 13.5t15 34.5v238q-1 22 -15 36t-35 14z" />
<glyph unicode="&#xe89d;" horiz-adv-x="733" d="M118 265q-50 1 -83 34t-34 82q1 49 34 81.5t83 33.5q49 -1 82 -33.5t34 -81.5q-1 -49 -34 -82t-82 -34zM366 419q49 1 82.5 34t34.5 82q-1 49 -34.5 81.5t-82.5 33.5q-50 -1 -83 -33.5t-34 -81.5q1 -49 34 -82t83 -34zM614 515q-50 -1 -83 -33.5t-34 -81.5q1 -49 34 -82 t83 -34q49 1 82 34t34 82q-1 49 -34 81.5t-82 33.5zM409 352q-16 19 -41 19h-1q-23 -1 -41 -18l-194 -210q-11 -13 -14 -29t4 -31t21 -24t31 -9h384q17 0 30.5 9t20.5 24t4 31t-14 28z" />
<glyph unicode="&#xe89e;" horiz-adv-x="1017" d="M882 410q32 -25 41.5 -44t8.5 -32v-52q0 -15 10 -24.5t25 -9.5t24.5 9.5t9.5 24.5v52q1 72 -77 130q-17 12 -31 29t-15 37q2 21 14 34.5t14 14.5q11 9 13 22t-7 24.5t-22.5 13.5t-25.5 -6q-7 -3 -29 -29.5t-26 -72.5q0 -65 73 -121zM791 464q-17 12 -31 29t-15 37 q2 21 14 34.5t14 14.5q11 9 13 22t-7 24.5t-22.5 14t-25.5 -6.5q-7 -3 -29 -29.5t-26 -72.5q0 -65 73 -121q32 -25 41.5 -44t8.5 -32v-52q0 -15 10 -24.5t24.5 -9.5t24.5 9.5t10 24.5v52q1 72 -77 130zM0 128q1 -29 20.5 -48t48.5 -20h728v136h-728q-29 -1 -48.5 -20 t-20.5 -48zM947 196h-78v-136h78q29 1 48.5 20t19.5 48t-19.5 48t-48.5 20z" />
<glyph unicode="&#xe89f;" horiz-adv-x="617" d="M77 524q1 41 28.5 67.5t68.5 26.5t68 -26.5t27 -67.5t-27 -67.5t-68 -26.5t-68.5 26.5t-28.5 67.5zM538 -60q-18 0 -30.5 -12.5t-12.5 -30.5t12.5 -30.5t31 -12.5t31 12.5t12.5 30.5t-12.5 30.5t-31.5 12.5zM617 454q-4 21 -19.5 32t-35.5 10l-232 339q-6 8 -15.5 10.5 t-18.5 -1.5l-113 -57q-11 -5 -14 -16t3 -20l9 -15q5 -9 15 -12t19 1l96 45l193 -284l-213 -41q-23 -5 -35 -24.5t-6 -41.5l45 -154l-278 -283q-16 -17 -15.5 -37.5t16.5 -36t37.5 -15.5t37.5 16l178 180l-26 -134q-3 -22 9 -39.5t34 -21.5q4 -1 10 -1q19 0 33.5 12t18.5 31 l57 305q1 6 1 11v4l-39 137l206 40q22 4 34 21.5t8 39.5z" />
<glyph unicode="&#xe8a0;" horiz-adv-x="433" d="M428 595h-121q-11 0 -20 -12.5t-10 -30.5v-87h151v-122h-151v-368h-142v368h-129v122h129v73q1 79 48.5 132t123.5 55h121v-130z" />
<glyph unicode="&#xe8a1;" horiz-adv-x="717" d="M38 524q0 -88 59 -126q25 -15 49.5 -19.5t39.5 -4.5h12q-1 -1 0.5 -24.5t22.5 -53.5h-1q-48 4 -129.5 -22.5t-90.5 -125.5q9 -100 81 -125t104 -21h4h7q15 -1 48.5 4t70.5 22q92 44 93 153q-2 52 -28.5 85.5t-54.5 56.5q-16 13 -27.5 25.5t-12 24.5t8.5 21.5t22 21.5 q21 17 36.5 46t16.5 78q1 43 -9.5 72.5t-44.5 48.5q4 2 14 3l17 2q20 3 40 8.5t22 19.5v4h-184q-13 5 -94 -24.5t-92 -149.5zM335 168q1 -42 -30.5 -69.5t-86.5 -32.5q-56 -3 -94.5 19t-41.5 64t33 74t90 37h13q52 -1 83 -26t34 -66zM287 562q13 -48 -3 -88.5t-50 -51.5 q-7 -2 -15 -2q-31 1 -56.5 27t-37.5 68q-12 45 2 83q7 19 19 31.5t27 16.5q8 3 16 3q36 1 60 -18.5t38 -68.5zM597 426v119h-76v-119h-120v-75h120v-119h76v119h120v75h-120z" />
<glyph unicode="&#xe8a2;" horiz-adv-x="650" d="M267 217q-15 -87 -42.5 -161.5t-85.5 -118.5q-14 127 12.5 232t51.5 206q-34 69 -2 145.5t109 55.5q70 -50 12 -171t36 -157q124 -7 163 140t-35 240q-123 103 -262.5 30.5t-127.5 -235.5q11 -36 29.5 -62t-7.5 -76q-69 17 -95 66.5t-23 123.5q9 121 92 196.5t191 88.5 q136 14 239 -44.5t124 -182.5q18 -145 -53 -258.5t-214 -110.5q-36 4 -60 19z" />
<glyph unicode="&#xe8a3;" horiz-adv-x="700" d="M699 510q-40 -170 -152.5 -294t-172.5 -160q-50 -28 -90 -1t-58 64q-21 54 -61 189t-58 168q-17 14 -46 -2.5t-32 -20.5l-29 37q5 8 71.5 74t139.5 88q68 6 86.5 -79t32.5 -163q16 -68 29 -105t28 -36.5t41 34.5t57 92q29 62 4 96t-86 1q43 149 174.5 165t121.5 -147z " />
<glyph unicode="&#xe8a4;" horiz-adv-x="500" d="M466 228q-9 -3 -19 -4q-15 0 -28.5 8.5t-19.5 23.5l-46 111l18 -164l33 -249q2 -22 -10.5 -37.5t-33.5 -19.5h-5q-20 0 -34.5 12t-18.5 32l-27 204l-38 -1l-15 -205q-2 -21 -15.5 -34t-33.5 -13h-6q-21 2 -34.5 17t-12.5 37l18 251l14 254l-96 -3q-24 0 -39.5 17.5 t-13.5 40.5l22 143q4 21 20 33t37.5 8.5t34 -19.5t9.5 -37l-13 -83l235 6q17 1 30 -7.5t19 -23.5l97 -232q7 -20 -0.5 -38.5t-27.5 -27.5zM144 728q3 -3 8 -3l172 5q5 0 8 3l20 25q3 5 2 10t-6 7l-72 32q-2 1 -5 1l-71 -2q-2 0 -4 -1l-70 -37q-4 -2 -5 -7.5t2 -9.5zM148 681 q0 -19 8 -35.5t21 -28.5q26 -24 66 -25v0v0q39 2 64.5 29t25.5 66q0 9 -2 18l-182 -5q-1 -9 -1 -19z" />
<glyph unicode="&#xe8a5;" horiz-adv-x="750" d="M528 490l-448 255q-19 9 -33 11l376 -371zM2 728q-2 -10 -2 -11v-735q-1 -1 3 -13l384 380zM51 -56q12 3 29 11l448 255l-105 103zM733 373l-158 90l-115 -114l114 -113l159 91q17 10 17 23t-17 23z" />
<glyph unicode="&#xe8a6;" horiz-adv-x="850" d="M810 777h-770q-17 0 -28.5 -11.5t-11.5 -28.5v-774q0 -17 11.5 -28.5t28.5 -11.5h770q17 0 28.5 11.5t11.5 28.5v774q0 17 -11.5 28.5t-28.5 11.5zM118 460v-287h-50v287h-43l68 67l68 -67h-43zM642 -18h-435v736h435v-736zM743 173l-67 67h42v287h51v-287h42zM370 558 q1 23 16.5 38t39 15t38.5 -15t15 -38t-15 -38.5t-38.5 -15.5t-39 15.5t-16.5 38.5zM281 322l54 139q3 9 10.5 14.5t17.5 5.5h124q21 -1 29 -20l53 -139q4 -12 -1 -23t-17 -16q-5 -2 -11 -2q-9 0 -17 5.5t-11 14.5l-26 67l8 -98l15 -149q1 -13 -6.5 -22t-20.5 -11h-3 q-12 0 -20 7.5t-10 19.5l-13 122h-23l-12 -122q-2 -12 -10 -19.5t-20 -7.5h-3q-13 2 -20.5 11t-7.5 22l16 149l8 98l-26 -67q-5 -12 -16 -17t-23 -0.5t-17 15.5t-1 23z" />
<glyph unicode="&#xe8a7;" horiz-adv-x="650" d="M477 739h5q3 -41 -9.5 -72t-31.5 -53.5t-47 -39t-70 -14.5q-2 40 10.5 70t32 51.5t49 37.5t61.5 20zM542 312q-4 61 20.5 100t63.5 62q-40 61 -129 76q-37 4 -67.5 -3.5t-59.5 -18.5l-19 -8q-10 -4 -20 -4q-14 0 -29 5l-27 11q-26 11 -56 16q-34 5 -63 -3.5t-51 -22.5 q-43 -26 -70.5 -74.5t-30.5 -112.5v-35q7 -89 38 -159.5t76 -123.5q15 -20 36 -36t47 -20h16q34 6 61.5 18t64.5 13q36 -3 64.5 -15.5t62.5 -14.5q41 2 67 27t44 52q20 28 37 59t28 66v2q-41 18 -70 53t-34 91z" />
<glyph unicode="&#xe8a8;" horiz-adv-x="733" d="M657 497v-20q-1 -153 -109.5 -282t-314.5 -137q-63 0 -121 17.5t-107 49.5q17 -3 35 -3q53 0 100 17t85 47q-50 2 -87 29.5t-52 72.5q13 -3 28 -3q21 0 39 5q-52 12 -85 51t-34 94v2q31 -17 67 -19q-30 21 -48 52.5t-18 70.5q0 41 20 74q56 -67 135 -108t172 -46 q-3 16 -3 34q2 62 43.5 103.5t105.5 43.5q32 0 59.5 -12.5t48.5 -34.5q51 11 95 36q-8 -26 -25.5 -47t-40.5 -35q46 6 86 24q-30 -45 -74 -76z" />
<glyph unicode="&#xe8a9;" horiz-adv-x="850" d="M850 277q0 -17 -11.5 -28.5t-28.5 -11.5h-24q-11 -48 -43.5 -89t-81.5 -71l20 -32q8 -15 4 -30t-18 -25q-10 -6 -21 -6q-22 0 -35 20l-23 38q-74 -27 -162.5 -27t-163.5 27l-23 -38q-13 -20 -35 -20q-11 0 -20 6q-15 10 -19 25t5 30l19 32q-49 30 -81.5 71t-43.5 89h-23 q-18 0 -29.5 11.5t-11.5 28.5t11.5 28.5t29.5 11.5h102v331q1 29 20 48t47.5 19t47 -17.5t21.5 -44.5q15 -6 25.5 -20t10.5 -32h-113q0 18 10 32t26 20q-2 10 -9.5 16.5t-18.5 6.5t-19 -8t-8 -20v-331h627q17 0 28.5 -11.5t11.5 -28.5z" />
<glyph unicode="&#xe8aa;" horiz-adv-x="633" d="M359 578q1 48 33.5 80.5t81.5 33.5q49 -1 81.5 -33.5t33.5 -80.5q-1 -48 -33.5 -80.5t-81.5 -33.5q-49 1 -81.5 33.5t-33.5 80.5zM264 483q36 1 60 25t24 59t-24 58.5t-59.5 23.5t-59.5 -23.5t-24 -58.5t24 -59t59 -25zM631 288q-2 66 -46 109.5t-111 45.5 q-31 0 -58 -10.5t-48 -29.5q-14 29 -41.5 47t-62.5 18q-25 0 -46.5 -10t-37.5 -27q-12 23 -34 36.5t-49 13.5q-40 -1 -67 -27.5t-28 -66.5l1 -6h-1v-161h147v-71h168v-141h314v280zM97 493q29 1 48.5 20t19.5 48t-19.5 48.5t-48.5 19.5t-48.5 -19.5t-19.5 -48.5t19.5 -48 t48.5 -20z" />
<glyph unicode="&#xe8ab;" horiz-adv-x="667" d="M157 567l-53 175h45l30 -116h2l28 116h46l-52 -169v-120h-46v114zM253 617q1 25 17 39.5t43 14.5q25 0 41 -15t16 -40v-110q0 -27 -15.5 -42.5t-43.5 -16.5q-26 1 -41.5 17t-16.5 43v110zM295 503q0 -9 4.5 -14t12 -5t12.5 5.5t5 13.5v116q0 6 -5.5 10.5t-12.5 4.5 t-11.5 -4t-4.5 -11v-116zM432 450q11 0 23 7t23 19v-23h40v213h-40v-162q-6 -6 -12.5 -11t-11.5 -5t-7.5 3.5t-2.5 11.5v163h-40v-178q0 -19 7 -28.5t21 -9.5zM403 220q-4 0 -9 -2l-8 -7v-132q5 -6 10 -8t9 -2q8 0 11 4.5t3 14.5v110q0 11 -4 16.5t-12 5.5zM550 219 q-9 0 -13.5 -5.5t-4.5 -19.5v-21h36v21q0 14 -4.5 19.5t-13.5 5.5zM664 178q0 -60 -5 -122q-1 -40 -28 -66t-67 -27q-112 -5 -230 -5t-231 5q-41 1 -68 27t-28 66q-4 62 -4 123t4 122q1 39 28 65.5t68 27.5q107 4 218 4h24q111 0 219 -4q40 -1 67 -27.5t28 -65.5 q5 -61 5 -123zM146 285h47v42h-139v-42h47v-247h45v247zM306 251h-40v-162q-4 -6 -11.5 -11t-11.5 -5q-6 0 -8.5 3.5t-2.5 11.5v163h-40v-178q1 -19 8 -28.5t19.5 -9.5t24 7t22.5 19v-23h40v213zM461 200q0 27 -10 40.5t-29 13.5q-10 0 -18.5 -5.5t-17.5 -14.5v93h-40v-289 h40v16q9 -9 17.5 -14t20.5 -5q18 0 27.5 12t9.5 35v118zM609 194q0 31 -15 46.5t-42 16t-44 -17.5t-17 -45v-96q0 -30 15.5 -48t42.5 -18q30 0 45 16.5t15 49.5v16h-41v-15q0 -18 -4 -24t-14 -5.5t-13.5 6.5t-4.5 23v41h77v54z" />
<glyph unicode="&#xe8ac;" horiz-adv-x="450" d="M446 31q-47 -22 -83.5 -30.5t-80.5 -8.5q-49 0 -86.5 12t-64.5 35.5t-37.5 49.5t-10.5 74v252h-79v101q43 14 73 39.5t48.5 61.5t24.5 91h102v-181h170v-112h-170v-184q0 -62 6.5 -80t24.5 -28q24 -15 54 -15q55 0 109 36v-113z" />
<glyph unicode="&#xe8ad;" horiz-adv-x="733" d="M163 192q-67 2 -111 46.5t-46 111.5q2 68 46 112t111 46q67 -2 111.5 -46t46.5 -112q-2 -67 -46.5 -111.5t-111.5 -46.5zM570 192q-67 2 -111 46.5t-46 111.5q2 68 46 112t111 46q67 -2 111 -46t46 -112q-2 -67 -46 -111.5t-111 -46.5z" />
<glyph unicode="&#xe8ae;" horiz-adv-x="1000" d="M37 180l16 69l-16 71q-2 4 -10 4t-10 -4l-14 -71l14 -69q2 -3 10 -3t10 3zM139 141l14 107l-14 165q-2 7 -12 7q-5 0 -8.5 -2t-3.5 -5l-12 -165l12 -107q0 -3 3.5 -5t8.5 -2q10 1 12 7zM241 143l11 105l-11 220q-2 8 -14.5 8t-13.5 -8l-11 -220l11 -105q1 -8 13.5 -8 t14.5 8zM342 145l10 103l-10 221q0 5 -4.5 8t-10.5 3q-14 -1 -17 -11l-8 -221l8 -103q3 -10 17 -11q6 0 10.5 3t4.5 8zM444 146l8 102l-8 254q0 5 -5 8.5t-12.5 3.5t-12.5 -3.5t-5 -8.5l-7 -254l7 -102q0 -5 5 -8.5t12.5 -3.5t12.5 3.5t5 8.5zM515 134h178l179 -1 q55 1 91 36t37 87q-1 52 -37 87t-91 36q-27 0 -50 -10q-10 85 -72.5 140.5t-153.5 57.5q-44 -1 -82 -15q-7 -3 -10 -6t-3 -8v-390q0 -5 4.5 -9.5t9.5 -4.5z" />
<glyph unicode="&#xe8af;" horiz-adv-x="717" d="M396 408l48 -23l73 23v42q-2 66 -46.5 110t-111.5 46q-68 -2 -112.5 -46t-46.5 -110v-220q0 -15 -11 -25.5t-26.5 -10.5t-26 10.5t-10.5 25.5v92h-122v-92q2 -66 46.5 -110t112.5 -46q67 2 111.5 46t46.5 110v220q0 15 11 26t26.5 11t26.5 -11t11 -26v-42zM592 322v-92 q0 -15 -11 -25.5t-26.5 -10.5t-26.5 10.5t-11 25.5v94l-73 -23l-48 23v-94q2 -66 46.5 -110t111.5 -46q68 2 112.5 46t46.5 110v92h-121z" />
<glyph unicode="&#xe8b0;" horiz-adv-x="667" d="M151 605q0 -30 -20.5 -50t-56.5 -21q-34 1 -54 21t-20 50.5t20.5 49.5t55.5 19t54.5 -19t20.5 -50zM4 25v454h142v-454h-142zM232 334q0 84 -4 145h123l7 -64h3q14 24 49 48t93 26q71 0 116.5 -48t47.5 -148v-268h-143v251q0 45 -16.5 71.5t-55.5 27.5q-29 -1 -47.5 -17 t-25.5 -36q-3 -7 -4 -16.5t-1 -18.5v-262h-142v309z" />
<glyph unicode="&#xe8b1;" horiz-adv-x="733" d="M350 451q-42 72 -76.5 121t-39.5 55q-65 -31 -109.5 -86.5t-60.5 -127.5q9 -1 90 4t196 34zM388 348q6 2 12 3q-11 27 -25 52q-124 -34 -216.5 -39.5t-101.5 -3.5v-10q0 -59 21 -111t58 -94v1q0 8 63.5 81t188.5 121zM176 109v0q-3 3 -7 5zM293 647h-0.5t0.5 0v0z M571 580q-41 36 -93 56t-111 20q-39 0 -73 -8l40 -56q34 -49 75 -123q87 35 124.5 71t37.5 40zM367 -8q-155 4 -257 105t-106 253q4 152 106 253t257 105q154 -4 256 -105t106 -253q-4 -152 -106 -253t-256 -105zM420 300q-134 -53 -189 -118.5t-55 -72.5q40 -31 88.5 -48 t102.5 -17q65 1 121 24q-3 22 -18.5 84.5t-47.5 148.5zM433 423q11 -21 21 -44l7 -16q83 8 146.5 0.5t68.5 -10.5q0 55 -18.5 103.5t-51.5 88.5q0 -4 -41 -43t-132 -79zM479 315q30 -85 44.5 -144t16.5 -75q52 36 87 88.5t45 117.5q-7 4 -61.5 13.5t-131.5 -0.5z" />
<glyph unicode="&#xe8b2;" horiz-adv-x="933" d="M317 517q-4 0 -8 -2l-45 91l-133 -15l55 -110q-195 -100 -184.5 -237t27.5 -150l428 122l-117 238q163 35 273 -9t114 -54l-145 -39l-42 77q-29 5 -62.5 6.5t-69.5 -4.5l99 -200l428 122q5 18 -135.5 111.5t-482.5 52.5zM145 235q-6 3 -5.5 54.5t84.5 113.5l64 -130z" />
<glyph unicode="&#xe8b3;" horiz-adv-x="783" d="M323 373q24 13 36 27q23 27 23 70t-22 73q-36 50 -125 50h-232v-474h216q37 0 68 6t55 24q19 15 34 37q21 34 21 75t-19 70.5t-55 41.5zM99 511h104q35 0 57 -8q26 -10 26 -43q1 -30 -19.5 -42t-50.5 -12h-117v105zM264 209q-18 -8 -48 -8h-117v127h118q32 -1 48 -8 q31 -15 31 -51q0 -44 -32 -60zM777 338q-6 42 -28 73q-24 35 -61 51.5t-84 16.5q-78 0 -127 -48.5t-49 -140.5q0 -97 54 -140t126 -43q85 0 133 51q30 32 35 63h-95q-8 -15 -20 -24q-19 -16 -50 -16t-52 13q-35 21 -37 74h259q0 46 -4 70zM524 329q5 35 24.5 55t55.5 19 q33 0 55 -18.5t25 -55.5h-160zM706 512h-206v59h206v-59z" />
<glyph unicode="&#xe8b4;" horiz-adv-x="633" d="M540 702q50 -39 83.5 -221.5t-33.5 -328.5q-68 -113 -188.5 -147t-238.5 27q-116 68 -151 187.5t29 235.5q14 23 29 41l21 23q3 2 10.5 -4t4.5 -13q-20 -73 -13.5 -129t33.5 -104q2 -2 8.5 -3.5t7.5 1.5q8 151 76.5 252.5t166.5 164.5q56 17 97 21.5t58 -3.5z" />
<glyph unicode="&#xe8b5;" horiz-adv-x="650" d="M522 350q-2 -82 -58 -137t-139 -57q-84 2 -139 57t-57 137q0 19 3 37h-132v-258q1 -42 30 -70.5t72 -29.5h446q44 1 72.5 29.5t29.5 70.5v258h-132q4 -18 4 -37zM548 671h-446q-43 -1 -72 -29.5t-30 -70.5v-109h165q27 38 68.5 60t91.5 22t91.5 -22t68.5 -60h165v109 q-1 42 -29.5 70.5t-72.5 29.5zM598 547q0 -8 -5 -13t-13 -5h-54q-8 0 -13.5 5t-5.5 13v54q0 8 5.5 13t13.5 5h54q8 0 13 -5t5 -13v-54zM446 350q-1 51 -35 85t-86 35q-52 -1 -86 -35t-35 -85q1 -51 35 -84.5t86 -34.5q52 1 86 34.5t35 84.5z" />
<glyph unicode="&#xe8b6;" horiz-adv-x="717" d="M693 272q8 35 8 74q-4 146 -99 243.5t-239 101.5q-30 0 -58 -5q-46 30 -105 31q-83 -2 -138.5 -58.5t-58.5 -141.5q1 -56 27 -101q-6 -33 -7 -69q4 -146 99 -243.5t239 -101.5q33 0 63 5q42 -23 92 -24q84 2 139.5 58.5t57.5 141.5q1 48 -20 89zM536 181q-24 -33 -69 -52 t-106 -20q-74 0 -122 27q-33 18 -55 50t-22 62q0 20 14.5 33t35.5 13q17 0 29.5 -10t19.5 -30q9 -21 19.5 -35t29 -23t48.5 -9q42 0 68 18t26 43q0 21 -13 34t-36 19.5t-62 15.5q-53 12 -89 27.5t-58 43.5t-22 69q0 39 23 69.5t66 46.5t99 16q46 0 80 -11t56 -29t32.5 -38 t10.5 -38.5t-14 -33.5t-35 -15q-19 1 -28.5 9.5t-20.5 27.5q-13 24 -30.5 38t-56.5 14q-37 0 -58.5 -14t-21.5 -34q0 -11 7 -20t20.5 -16t27.5 -10.5l46 -11.5q41 -9 75 -20.5t58 -27.5t38 -40.5t14 -60.5q-1 -42 -24 -77z" />
<glyph unicode="&#xe8b7;" horiz-adv-x="750" d="M739 17h-728q2 160 67.5 243.5t171.5 108.5q-29 25 -45.5 59.5t-16.5 75.5q2 76 54 126.5t130 52.5q78 -2 130 -52.5t54 -126.5q0 -40 -16.5 -74.5t-44.5 -59.5q108 -23 175 -107t69 -246z" />
<glyph unicode="&#xe8b8;" horiz-adv-x="833" d="M134 252q-57 1 -95 39t-39 94q1 57 39 95t95 39q56 -1 94 -39t39 -95q-1 -56 -39 -94t-94 -39zM417 430q57 1 95 39t39 94q-1 57 -39 95t-95 39q-57 -1 -94.5 -39t-38.5 -95q1 -56 39 -94t94 -39zM701 541q-57 -1 -95 -39t-39 -94q1 -57 39 -95t95 -39q56 1 94 39t39 95 q-1 56 -39 94t-94 39zM467 353q-9 10 -21.5 15.5t-26.5 5.5v0q-28 -1 -47 -21l-222 -243q-12 -14 -15 -32.5t4.5 -36t23 -28t35.5 -10.5h439q19 0 34.5 10.5t23 28t5 35.5t-15.5 33z" />
<glyph unicode="&#xe8b9;" horiz-adv-x="833" d="M137 696q1 39 26.5 64.5t64 25.5t64 -25.5t25.5 -64t-25.5 -64t-64 -25.5t-64 25.5t-26.5 63.5zM300 446l57 -176q6 -16 18.5 -25.5t29.5 -9.5q8 0 15 3q20 7 29 24.5t3 38.5l-75 232q-6 16 -18.5 25.5t-29.5 9.5h-204q-16 0 -29 -9.5t-18 -25.5l-75 -232 q-6 -21 2.5 -38.5t29 -24t38.5 2t25 29.5l57 176q0 -4 2 -8l17 -49l-55 -155l-3 -6l-88 -248q-6 -20 2.5 -38.5t28.5 -25.5q8 -3 17 -3q15 0 28 9t19 24l76 216h57l76 -216q6 -15 18.5 -24t28.5 -9q9 0 17 3q20 7 28.5 25.5t1.5 38.5l-87 248l-3 6l-55 155l17 49zM594 605 q38 1 63.5 27t25.5 64.5t-25.5 64t-63.5 25.5t-64 -25.5t-26 -64t26 -64.5t64 -27zM830 303l-87 232q-6 15 -19 24t-28 9h-204q-16 0 -28.5 -9t-18.5 -24l-88 -232q-7 -20 1 -38.5t28 -25.5t38.5 1t26.5 28l42 111l-13 -163l-25 -248q-2 -21 10.5 -36.5t33.5 -18.5h6 q19 0 33 12.5t16 32.5l21 204h37l21 -204q3 -20 16.5 -32.5t33.5 -12.5h5q21 3 33.5 18.5t11.5 36.5l-25 248l-14 163l42 -111q6 -15 19 -24t28 -9q9 0 18 3q20 8 28 26.5t1 38.5z" />
<glyph unicode="&#xe8ba;" horiz-adv-x="600" d="M223 35q-14 0 -27.5 6.5t-22.5 18.5l-160 212q-16 22 -12.5 46.5t25 41t46 13t41.5 -24.5l105 -140l266 427q14 23 39 28.5t47.5 -8.5t28 -38.5t-7.5 -47.5l-314 -504q-8 -14 -21.5 -21.5t-29.5 -8.5h-3z" />
<glyph unicode="&#xe8bb;" horiz-adv-x="333" d="M276 733q-33 10 -59.5 -2.5t-33.5 -37.5l-7 -25q-6 -24 10 -48.5t48.5 -34t58 3.5t31.5 37l7 26q7 24 -7.5 48t-47.5 33zM223 543q-33 9 -59.5 -3.5t-33.5 -37.5l-128 -452q-7 -25 9 -49.5t49 -33.5t58.5 4t31.5 37l128 453q6 24 -8.5 48.5t-46.5 33.5z" />
<glyph unicode="&#xe8bc;" horiz-adv-x="667" d="M437 287l51 -108l-94 65l-93 -227l-31 230l-108 -51l65 93l-227 94l230 30l-51 109l93 -65l94 226l30 -230l109 52l-65 -94l227 -94z" />
<glyph unicode="&#xe8bd;" horiz-adv-x="667" d="M612 595h-557q-23 -1 -38.5 -16.5t-16.5 -40.5v-376q1 -24 16.5 -40t38.5 -17h557q23 1 38.5 17t16.5 40v376q-1 25 -16.5 40.5t-38.5 16.5zM77 558h512q6 0 11 -2l-239 -224q-12 -12 -27 -12t-27 11v0l-240 225q5 2 10 2zM626 174l-127 120q-7 7 -16 6.5t-15.5 -7 t-6 -16t7.5 -15.5l125 -119l-5 -1h-511l-5 1l123 118q7 6 7 15.5t-6.5 16.5t-15.5 7t-16 -7l-124 -119q-3 9 -3 17l-1 318q1 11 4 20l247 -230v0q20 -18 46 -18.5t46 19.5v0l245 230q4 -10 4 -21v-317q0 -10 -3 -18z" />
</font>
</defs>
</svg>
